<svg width="24" height="25" viewBox="0 0 24 25" fill="none" xmlns="http://www.w3.org/2000/svg">
<path d="M8.65829 17.053L8.65814 17.0514C8.64496 16.9164 8.7436 16.7915 8.88791 16.7777L8.89026 16.7775C9.01206 16.7653 9.14886 16.8707 9.16278 17.0076C9.31383 18.6406 9.78481 19.8788 10.8056 20.6849C11.8083 21.4766 13.2427 21.77 15.1205 21.77H15.2505C17.3201 21.77 18.8709 21.4092 19.8853 20.3948C20.8997 19.3804 21.2605 17.8296 21.2605 15.76V9.23998C21.2605 7.17035 20.8997 5.61955 19.8853 4.60518C18.8709 3.5908 17.3201 3.22998 15.2505 3.22998H15.1205C13.2323 3.22998 11.7907 3.52843 10.7872 4.33531C9.76864 5.15427 9.30462 6.41033 9.16324 8.06656C9.1404 8.22645 9.01341 8.31419 8.88791 8.30223L8.88792 8.30209L8.87613 8.30125C8.74674 8.29201 8.63942 8.17631 8.64901 8.02879C8.81259 6.12129 9.40073 4.83018 10.4006 4.00266C11.4117 3.1658 12.9306 2.72998 15.1105 2.72998H15.2405C17.638 2.72998 19.2305 3.24461 20.2332 4.24728C21.2359 5.24996 21.7505 6.8425 21.7505 9.23998V15.76C21.7505 18.1575 21.2359 19.75 20.2332 20.7527C19.2305 21.7554 17.638 22.27 15.2405 22.27H15.1105C12.945 22.27 11.4346 21.8414 10.4254 21.0176C9.42735 20.2029 8.83564 18.932 8.65829 17.053Z" fill="#FF161A" stroke="#FF161A"/>
<path d="M14.9991 12.75H3.61914C3.48528 12.75 3.36914 12.6339 3.36914 12.5C3.36914 12.3661 3.48528 12.25 3.61914 12.25H14.9991C15.133 12.25 15.2491 12.3661 15.2491 12.5C15.2491 12.6339 15.133 12.75 14.9991 12.75Z" fill="#FF161A" stroke="#FF161A"/>
<path d="M3.2059 12.1465L2.85235 12.5001L3.2059 12.8536L6.0259 15.6736C6.12064 15.7684 6.12064 15.9318 6.0259 16.0265L6.01981 16.0326L6.01393 16.0389C5.98368 16.0713 5.92481 16.1001 5.84945 16.1001C5.78491 16.1001 5.7243 16.0778 5.67301 16.0265L2.32301 12.6765C2.22827 12.5818 2.22827 12.4184 2.32301 12.3236L5.67301 8.97364C5.76774 8.8789 5.93116 8.8789 6.0259 8.97364C6.12064 9.06838 6.12064 9.2318 6.0259 9.32653L3.2059 12.1465Z" fill="#FF161A" stroke="#FF161A"/>
</svg>
