<svg width="350" height="38" viewBox="0 0 350 38" fill="none" xmlns="http://www.w3.org/2000/svg">
<path d="M123.836 28.312C124.908 27.832 125.892 27.304 126.788 26.728C127.7 26.168 128.42 25.64 128.948 25.144C129.492 24.648 129.764 24.256 129.764 23.968C129.764 23.328 129.268 21.424 128.276 18.256L131.516 16.96C131.916 18.064 132.228 19.24 132.452 20.488C132.676 21.72 132.788 22.88 132.788 23.968C132.788 25.632 132.164 27.152 130.916 28.528C129.668 29.904 127.94 31.088 125.732 32.08L123.836 28.312ZM135.021 24.856C135.213 23.656 135.309 21.96 135.309 19.768C135.309 17.576 135.221 15.256 135.045 12.808C134.885 10.36 134.701 8.544 134.493 7.36L138.213 6.52C138.373 7.624 138.517 9.304 138.645 11.56C138.773 13.8 138.837 16.016 138.837 18.208C138.837 21.232 138.709 23.568 138.453 25.216L135.021 24.856ZM148.341 11.344L151.629 19.12C151.853 19.664 152.101 20.032 152.373 20.224C152.661 20.4 153.101 20.488 153.693 20.488H154.005L154.245 22.744L154.005 25H153.693C152.557 25 151.621 24.672 150.885 24.016C150.149 23.344 149.469 22.296 148.845 20.872L145.365 12.952L148.341 11.344ZM141.813 19.96C142.309 20.2 142.853 20.416 143.445 20.608C144.053 20.784 144.789 20.872 145.653 20.872C146.405 20.872 147.045 20.792 147.573 20.632C148.101 20.456 148.509 20.264 148.797 20.056C149.085 19.848 149.269 19.664 149.349 19.504L151.365 22.096C151.045 22.736 150.469 23.408 149.637 24.112C148.821 24.8 147.645 25.144 146.109 25.144C144.125 25.144 142.181 24.464 140.277 23.104L141.813 19.96ZM153.715 20.488H155.011C156.499 20.488 157.555 20.368 158.179 20.128C158.819 19.888 159.139 19.552 159.139 19.12C159.139 18.72 158.699 17.464 157.819 15.352L160.867 13.672C161.187 14.344 161.507 15.248 161.827 16.384C162.163 17.504 162.331 18.512 162.331 19.408C162.331 21.2 161.771 22.584 160.651 23.56C159.531 24.52 157.891 25 155.731 25H153.715V20.488ZM154.003 26.896L156.259 29.152L154.747 30.664L154.003 31.408L153.259 30.664L151.747 29.152L154.003 26.896ZM158.155 26.896L160.411 29.152L158.899 30.664L158.155 31.408L157.411 30.664L155.899 29.152L158.155 26.896ZM165.344 19.96C165.888 20.2 166.464 20.416 167.072 20.608C167.68 20.784 168.384 20.872 169.184 20.872C170.032 20.856 170.728 20.776 171.272 20.632C171.832 20.488 172.216 20.328 172.424 20.152C171.992 18.584 170.312 16.84 167.384 14.92L169.52 10.96C171.424 12.24 172.944 13.704 174.08 15.352C175.216 16.984 175.784 18.56 175.784 20.08C175.784 20.752 175.648 21.424 175.376 22.096C174.96 23.088 174.216 23.848 173.144 24.376C172.072 24.888 170.904 25.144 169.64 25.144C167.416 25.144 165.472 24.464 163.808 23.104L165.344 19.96Z" fill="url(#paint0_linear_284_1356)"/>
<g clip-path="url(#clip0_284_1356)">
<rect x="188.5" width="8" height="8" rx="2" fill="url(#paint1_linear_284_1356)"/>
<circle opacity="0.3" cx="192.5" cy="-9" r="25" fill="url(#paint2_linear_284_1356)"/>
<circle opacity="0.3" cx="173.5" cy="3" r="25" fill="url(#paint3_linear_284_1356)"/>
</g>
<g clip-path="url(#clip1_284_1356)">
<rect x="198.5" width="28" height="8" rx="2" fill="url(#paint4_linear_284_1356)"/>
<circle opacity="0.3" cx="257.5" cy="-23" r="50" fill="url(#paint5_linear_284_1356)"/>
<circle opacity="0.3" cx="236.5" cy="-32" r="50" fill="url(#paint6_linear_284_1356)"/>
</g>
<g clip-path="url(#clip2_284_1356)">
<rect x="196.5" y="10.2222" width="27.5556" height="8" rx="2" transform="rotate(90 196.5 10.2222)" fill="url(#paint7_linear_284_1356)"/>
<circle opacity="0.3" cx="219.5" cy="69.2222" r="50" transform="rotate(90 219.5 69.2222)" fill="url(#paint8_linear_284_1356)"/>
<circle opacity="0.3" cx="228.5" cy="48.2222" r="50" transform="rotate(90 228.5 48.2222)" fill="url(#paint9_linear_284_1356)"/>
</g>
<g clip-path="url(#clip3_284_1356)">
<rect x="198.5" y="10" width="8" height="8" rx="2" fill="url(#paint10_linear_284_1356)"/>
<circle opacity="0.3" cx="202.5" cy="1" r="25" fill="url(#paint11_linear_284_1356)"/>
<circle opacity="0.3" cx="183.5" cy="13" r="25" fill="url(#paint12_linear_284_1356)"/>
</g>
<g clip-path="url(#clip4_284_1356)">
<rect x="208.5" y="10" width="8" height="8" rx="2" fill="url(#paint13_linear_284_1356)"/>
<circle opacity="0.3" cx="212.5" cy="1" r="25" fill="url(#paint14_linear_284_1356)"/>
<circle opacity="0.3" cx="193.5" cy="13" r="25" fill="url(#paint15_linear_284_1356)"/>
</g>
<g clip-path="url(#clip5_284_1356)">
<rect x="218.5" y="10" width="8" height="8" rx="2" fill="url(#paint16_linear_284_1356)" fill-opacity="0.4"/>
<circle opacity="0.3" cx="222.5" cy="1" r="25" fill="url(#paint17_linear_284_1356)" fill-opacity="0.4"/>
<circle opacity="0.3" cx="203.5" cy="13" r="25" fill="url(#paint18_linear_284_1356)" fill-opacity="0.4"/>
</g>
<g clip-path="url(#clip6_284_1356)">
<rect x="198.5" y="20" width="8" height="8" rx="2" fill="url(#paint19_linear_284_1356)"/>
<circle opacity="0.3" cx="202.5" cy="11" r="25" fill="url(#paint20_linear_284_1356)"/>
<circle opacity="0.3" cx="183.5" cy="23" r="25" fill="url(#paint21_linear_284_1356)"/>
</g>
<g clip-path="url(#clip7_284_1356)">
<rect x="208.5" y="20" width="8" height="8" rx="2" fill="url(#paint22_linear_284_1356)" fill-opacity="0.4"/>
<circle opacity="0.3" cx="212.5" cy="11" r="25" fill="url(#paint23_linear_284_1356)" fill-opacity="0.4"/>
<circle opacity="0.3" cx="193.5" cy="23" r="25" fill="url(#paint24_linear_284_1356)" fill-opacity="0.4"/>
</g>
<g clip-path="url(#clip8_284_1356)">
<rect x="218.5" y="20" width="8" height="8" rx="2" fill="url(#paint25_linear_284_1356)"/>
<circle opacity="0.3" cx="222.5" cy="11" r="25" fill="url(#paint26_linear_284_1356)"/>
<circle opacity="0.3" cx="203.5" cy="23" r="25" fill="url(#paint27_linear_284_1356)"/>
</g>
<g clip-path="url(#clip9_284_1356)">
<rect x="198.5" y="30" width="8" height="8" rx="2" fill="url(#paint28_linear_284_1356)" fill-opacity="0.4"/>
<circle opacity="0.3" cx="202.5" cy="21" r="25" fill="url(#paint29_linear_284_1356)" fill-opacity="0.4"/>
<circle opacity="0.3" cx="183.5" cy="33" r="25" fill="url(#paint30_linear_284_1356)" fill-opacity="0.4"/>
</g>
<g clip-path="url(#clip10_284_1356)">
<rect x="208.5" y="30" width="8" height="8" rx="2" fill="url(#paint31_linear_284_1356)"/>
<circle opacity="0.3" cx="212.5" cy="21" r="25" fill="url(#paint32_linear_284_1356)"/>
<circle opacity="0.3" cx="193.5" cy="33" r="25" fill="url(#paint33_linear_284_1356)"/>
</g>
<g clip-path="url(#clip11_284_1356)">
<rect x="218.5" y="30" width="8" height="8" rx="2" fill="url(#paint34_linear_284_1356)" fill-opacity="0.4"/>
<circle opacity="0.3" cx="222.5" cy="21" r="25" fill="url(#paint35_linear_284_1356)" fill-opacity="0.4"/>
<circle opacity="0.3" cx="203.5" cy="33" r="25" fill="url(#paint36_linear_284_1356)" fill-opacity="0.4"/>
</g>
<defs>
<linearGradient id="paint0_linear_284_1356" x1="150" y1="37" x2="150" y2="1" gradientUnits="userSpaceOnUse">
<stop stop-color="#2D39B8"/>
<stop offset="0.606" stop-color="#2BC4CC"/>
<stop offset="1" stop-color="#FAFAFE"/>
</linearGradient>
<linearGradient id="paint1_linear_284_1356" x1="192.5" y1="0" x2="192.5" y2="8" gradientUnits="userSpaceOnUse">
<stop stop-color="#12174A"/>
<stop offset="0.55" stop-color="#1F6E8B"/>
<stop offset="1" stop-color="#2BC4CC"/>
</linearGradient>
<linearGradient id="paint2_linear_284_1356" x1="192.5" y1="-34" x2="192.5" y2="16" gradientUnits="userSpaceOnUse">
<stop stop-color="#313EC8"/>
<stop offset="1" stop-color="#CBCEF2"/>
</linearGradient>
<linearGradient id="paint3_linear_284_1356" x1="173.5" y1="-22" x2="173.5" y2="28" gradientUnits="userSpaceOnUse">
<stop stop-color="#313EC8"/>
<stop offset="1" stop-color="#CBCEF2"/>
</linearGradient>
<linearGradient id="paint4_linear_284_1356" x1="198.5" y1="4" x2="226.5" y2="4" gradientUnits="userSpaceOnUse">
<stop stop-color="#12174A"/>
<stop offset="0.546" stop-color="#1F6E8B"/>
<stop offset="1" stop-color="#2BC4CC"/>
</linearGradient>
<linearGradient id="paint5_linear_284_1356" x1="257.5" y1="-73" x2="257.5" y2="27" gradientUnits="userSpaceOnUse">
<stop stop-color="#313EC8"/>
<stop offset="1" stop-color="#CBCEF2"/>
</linearGradient>
<linearGradient id="paint6_linear_284_1356" x1="236.5" y1="-82" x2="236.5" y2="18" gradientUnits="userSpaceOnUse">
<stop stop-color="#313EC8"/>
<stop offset="1" stop-color="#CBCEF2"/>
</linearGradient>
<linearGradient id="paint7_linear_284_1356" x1="196.5" y1="14.2222" x2="224.056" y2="14.2222" gradientUnits="userSpaceOnUse">
<stop stop-color="#12174A"/>
<stop offset="0.546" stop-color="#1F6E8B"/>
<stop offset="1" stop-color="#2BC4CC"/>
</linearGradient>
<linearGradient id="paint8_linear_284_1356" x1="219.5" y1="19.2222" x2="219.5" y2="119.222" gradientUnits="userSpaceOnUse">
<stop stop-color="#313EC8"/>
<stop offset="1" stop-color="#CBCEF2"/>
</linearGradient>
<linearGradient id="paint9_linear_284_1356" x1="228.5" y1="-1.77783" x2="228.5" y2="98.2222" gradientUnits="userSpaceOnUse">
<stop stop-color="#313EC8"/>
<stop offset="1" stop-color="#CBCEF2"/>
</linearGradient>
<linearGradient id="paint10_linear_284_1356" x1="202.5" y1="10" x2="202.5" y2="18" gradientUnits="userSpaceOnUse">
<stop stop-color="#253099"/>
<stop offset="0.5" stop-color="#2BC4CC"/>
<stop offset="1" stop-color="#DBDDF6"/>
</linearGradient>
<linearGradient id="paint11_linear_284_1356" x1="202.5" y1="-24" x2="202.5" y2="26" gradientUnits="userSpaceOnUse">
<stop stop-color="#6C76DB"/>
<stop offset="1" stop-color="#FAFAFE"/>
</linearGradient>
<linearGradient id="paint12_linear_284_1356" x1="183.5" y1="-12" x2="183.5" y2="38" gradientUnits="userSpaceOnUse">
<stop stop-color="#6C76DB"/>
<stop offset="1" stop-color="#FAFAFE"/>
</linearGradient>
<linearGradient id="paint13_linear_284_1356" x1="212.5" y1="10" x2="212.5" y2="18" gradientUnits="userSpaceOnUse">
<stop stop-color="#253099"/>
<stop offset="0.5" stop-color="#2BC4CC"/>
<stop offset="1" stop-color="#DBDDF6"/>
</linearGradient>
<linearGradient id="paint14_linear_284_1356" x1="212.5" y1="-24" x2="212.5" y2="26" gradientUnits="userSpaceOnUse">
<stop stop-color="#6C76DB"/>
<stop offset="1" stop-color="#FAFAFE"/>
</linearGradient>
<linearGradient id="paint15_linear_284_1356" x1="193.5" y1="-12" x2="193.5" y2="38" gradientUnits="userSpaceOnUse">
<stop stop-color="#6C76DB"/>
<stop offset="1" stop-color="#FAFAFE"/>
</linearGradient>
<linearGradient id="paint16_linear_284_1356" x1="222.5" y1="10" x2="222.5" y2="18" gradientUnits="userSpaceOnUse">
<stop stop-color="#2D39B8"/>
<stop offset="0.5" stop-color="#5BD2D8"/>
<stop offset="1" stop-color="#EAECFA"/>
</linearGradient>
<linearGradient id="paint17_linear_284_1356" x1="222.5" y1="-24" x2="222.5" y2="26" gradientUnits="userSpaceOnUse">
<stop stop-color="#8C93E3"/>
<stop offset="1" stop-color="#FAFAFE"/>
</linearGradient>
<linearGradient id="paint18_linear_284_1356" x1="203.5" y1="-12" x2="203.5" y2="38" gradientUnits="userSpaceOnUse">
<stop stop-color="#8C93E3"/>
<stop offset="1" stop-color="#FAFAFE"/>
</linearGradient>
<linearGradient id="paint19_linear_284_1356" x1="202.5" y1="20" x2="202.5" y2="28" gradientUnits="userSpaceOnUse">
<stop stop-color="#253099"/>
<stop offset="0.5" stop-color="#2BC4CC"/>
<stop offset="1" stop-color="#DBDDF6"/>
</linearGradient>
<linearGradient id="paint20_linear_284_1356" x1="202.5" y1="-14" x2="202.5" y2="36" gradientUnits="userSpaceOnUse">
<stop stop-color="#6C76DB"/>
<stop offset="1" stop-color="#FAFAFE"/>
</linearGradient>
<linearGradient id="paint21_linear_284_1356" x1="183.5" y1="-2" x2="183.5" y2="48" gradientUnits="userSpaceOnUse">
<stop stop-color="#6C76DB"/>
<stop offset="1" stop-color="#FAFAFE"/>
</linearGradient>
<linearGradient id="paint22_linear_284_1356" x1="212.5" y1="20" x2="212.5" y2="28" gradientUnits="userSpaceOnUse">
<stop stop-color="#2D39B8"/>
<stop offset="0.5" stop-color="#5BD2D8"/>
<stop offset="1" stop-color="#EAECFA"/>
</linearGradient>
<linearGradient id="paint23_linear_284_1356" x1="212.5" y1="-14" x2="212.5" y2="36" gradientUnits="userSpaceOnUse">
<stop stop-color="#8C93E3"/>
<stop offset="1" stop-color="#FAFAFE"/>
</linearGradient>
<linearGradient id="paint24_linear_284_1356" x1="193.5" y1="-2" x2="193.5" y2="48" gradientUnits="userSpaceOnUse">
<stop stop-color="#8C93E3"/>
<stop offset="1" stop-color="#FAFAFE"/>
</linearGradient>
<linearGradient id="paint25_linear_284_1356" x1="222.5" y1="20" x2="222.5" y2="28" gradientUnits="userSpaceOnUse">
<stop stop-color="#253099"/>
<stop offset="0.5" stop-color="#2BC4CC"/>
<stop offset="1" stop-color="#DBDDF6"/>
</linearGradient>
<linearGradient id="paint26_linear_284_1356" x1="222.5" y1="-14" x2="222.5" y2="36" gradientUnits="userSpaceOnUse">
<stop stop-color="#6C76DB"/>
<stop offset="1" stop-color="#FAFAFE"/>
</linearGradient>
<linearGradient id="paint27_linear_284_1356" x1="203.5" y1="-2" x2="203.5" y2="48" gradientUnits="userSpaceOnUse">
<stop stop-color="#6C76DB"/>
<stop offset="1" stop-color="#FAFAFE"/>
</linearGradient>
<linearGradient id="paint28_linear_284_1356" x1="202.5" y1="30" x2="202.5" y2="38" gradientUnits="userSpaceOnUse">
<stop stop-color="#2D39B8"/>
<stop offset="0.5" stop-color="#5BD2D8"/>
<stop offset="1" stop-color="#EAECFA"/>
</linearGradient>
<linearGradient id="paint29_linear_284_1356" x1="202.5" y1="-4" x2="202.5" y2="46" gradientUnits="userSpaceOnUse">
<stop stop-color="#8C93E3"/>
<stop offset="1" stop-color="#FAFAFE"/>
</linearGradient>
<linearGradient id="paint30_linear_284_1356" x1="183.5" y1="8" x2="183.5" y2="58" gradientUnits="userSpaceOnUse">
<stop stop-color="#8C93E3"/>
<stop offset="1" stop-color="#FAFAFE"/>
</linearGradient>
<linearGradient id="paint31_linear_284_1356" x1="212.5" y1="30" x2="212.5" y2="38" gradientUnits="userSpaceOnUse">
<stop stop-color="#253099"/>
<stop offset="0.5" stop-color="#2BC4CC"/>
<stop offset="1" stop-color="#DBDDF6"/>
</linearGradient>
<linearGradient id="paint32_linear_284_1356" x1="212.5" y1="-4" x2="212.5" y2="46" gradientUnits="userSpaceOnUse">
<stop stop-color="#6C76DB"/>
<stop offset="1" stop-color="#FAFAFE"/>
</linearGradient>
<linearGradient id="paint33_linear_284_1356" x1="193.5" y1="8" x2="193.5" y2="58" gradientUnits="userSpaceOnUse">
<stop stop-color="#6C76DB"/>
<stop offset="1" stop-color="#FAFAFE"/>
</linearGradient>
<linearGradient id="paint34_linear_284_1356" x1="222.5" y1="30" x2="222.5" y2="38" gradientUnits="userSpaceOnUse">
<stop stop-color="#2D39B8"/>
<stop offset="0.5" stop-color="#5BD2D8"/>
<stop offset="1" stop-color="#EAECFA"/>
</linearGradient>
<linearGradient id="paint35_linear_284_1356" x1="222.5" y1="-4" x2="222.5" y2="46" gradientUnits="userSpaceOnUse">
<stop stop-color="#8C93E3"/>
<stop offset="1" stop-color="#FAFAFE"/>
</linearGradient>
<linearGradient id="paint36_linear_284_1356" x1="203.5" y1="8" x2="203.5" y2="58" gradientUnits="userSpaceOnUse">
<stop stop-color="#8C93E3"/>
<stop offset="1" stop-color="#FAFAFE"/>
</linearGradient>
<clipPath id="clip0_284_1356">
<rect x="188.5" width="8" height="8" rx="2" fill="white"/>
</clipPath>
<clipPath id="clip1_284_1356">
<rect x="198.5" width="28" height="8" rx="2" fill="white"/>
</clipPath>
<clipPath id="clip2_284_1356">
<rect x="196.5" y="10.2222" width="27.5556" height="8" rx="2" transform="rotate(90 196.5 10.2222)" fill="white"/>
</clipPath>
<clipPath id="clip3_284_1356">
<rect x="198.5" y="10" width="8" height="8" rx="2" fill="white"/>
</clipPath>
<clipPath id="clip4_284_1356">
<rect x="208.5" y="10" width="8" height="8" rx="2" fill="white"/>
</clipPath>
<clipPath id="clip5_284_1356">
<rect x="218.5" y="10" width="8" height="8" rx="2" fill="white"/>
</clipPath>
<clipPath id="clip6_284_1356">
<rect x="198.5" y="20" width="8" height="8" rx="2" fill="white"/>
</clipPath>
<clipPath id="clip7_284_1356">
<rect x="208.5" y="20" width="8" height="8" rx="2" fill="white"/>
</clipPath>
<clipPath id="clip8_284_1356">
<rect x="218.5" y="20" width="8" height="8" rx="2" fill="white"/>
</clipPath>
<clipPath id="clip9_284_1356">
<rect x="198.5" y="30" width="8" height="8" rx="2" fill="white"/>
</clipPath>
<clipPath id="clip10_284_1356">
<rect x="208.5" y="30" width="8" height="8" rx="2" fill="white"/>
</clipPath>
<clipPath id="clip11_284_1356">
<rect x="218.5" y="30" width="8" height="8" rx="2" fill="white"/>
</clipPath>
</defs>
</svg>
