<svg width="84" height="84" viewBox="0 0 84 84" fill="none" xmlns="http://www.w3.org/2000/svg">
<g clip-path="url(#clip0_258_3350)">
<rect width="18" height="18" rx="4" fill="url(#paint0_linear_258_3350)"/>
<circle opacity="0.3" cx="4" cy="-9" r="25" fill="url(#paint1_linear_258_3350)"/>
<circle opacity="0.3" cx="-15" cy="3" r="25" fill="url(#paint2_linear_258_3350)"/>
<circle opacity="0.3" cx="27" cy="39" r="25" fill="url(#paint3_linear_258_3350)"/>
<circle opacity="0.3" cx="34" cy="32" r="25" fill="url(#paint4_linear_258_3350)"/>
</g>
<g clip-path="url(#clip1_258_3350)">
<rect x="22" width="62" height="18" rx="4" fill="url(#paint5_linear_258_3350)"/>
<circle opacity="0.3" cx="81" cy="-23" r="50" fill="url(#paint6_linear_258_3350)"/>
<circle opacity="0.3" cx="60" cy="-32" r="50" fill="url(#paint7_linear_258_3350)"/>
</g>
<g clip-path="url(#clip2_258_3350)">
<rect x="18" y="22" width="62" height="18" rx="4" transform="rotate(90 18 22)" fill="url(#paint8_linear_258_3350)"/>
<circle opacity="0.3" cx="41" cy="81" r="50" transform="rotate(90 41 81)" fill="url(#paint9_linear_258_3350)"/>
<circle opacity="0.3" cx="50" cy="60" r="50" transform="rotate(90 50 60)" fill="url(#paint10_linear_258_3350)"/>
</g>
<g clip-path="url(#clip3_258_3350)">
<rect x="22" y="22" width="18" height="18" rx="4" fill="url(#paint11_linear_258_3350)"/>
<circle opacity="0.3" cx="26" cy="13" r="25" fill="url(#paint12_linear_258_3350)"/>
<circle opacity="0.3" cx="7" cy="25" r="25" fill="url(#paint13_linear_258_3350)"/>
<circle opacity="0.3" cx="49" cy="61" r="25" fill="url(#paint14_linear_258_3350)"/>
<circle opacity="0.3" cx="56" cy="54" r="25" fill="url(#paint15_linear_258_3350)"/>
</g>
<g clip-path="url(#clip4_258_3350)">
<rect x="44" y="22" width="18" height="18" rx="4" fill="url(#paint16_linear_258_3350)"/>
<circle opacity="0.3" cx="48" cy="13" r="25" fill="url(#paint17_linear_258_3350)"/>
<circle opacity="0.3" cx="29" cy="25" r="25" fill="url(#paint18_linear_258_3350)"/>
<circle opacity="0.3" cx="71" cy="61" r="25" fill="url(#paint19_linear_258_3350)"/>
<circle opacity="0.3" cx="78" cy="54" r="25" fill="url(#paint20_linear_258_3350)"/>
</g>
<g clip-path="url(#clip5_258_3350)">
<rect x="66" y="22" width="18" height="18" rx="4" fill="url(#paint21_linear_258_3350)" fill-opacity="0.4"/>
<circle opacity="0.3" cx="70" cy="13" r="25" fill="url(#paint22_linear_258_3350)" fill-opacity="0.4"/>
<circle opacity="0.3" cx="51" cy="25" r="25" fill="url(#paint23_linear_258_3350)" fill-opacity="0.4"/>
<circle opacity="0.3" cx="93" cy="61" r="25" fill="url(#paint24_linear_258_3350)" fill-opacity="0.4"/>
<circle opacity="0.3" cx="100" cy="54" r="25" fill="url(#paint25_linear_258_3350)" fill-opacity="0.4"/>
</g>
<g clip-path="url(#clip6_258_3350)">
<rect x="22" y="44" width="18" height="18" rx="4" fill="url(#paint26_linear_258_3350)"/>
<circle opacity="0.3" cx="26" cy="35" r="25" fill="url(#paint27_linear_258_3350)"/>
<circle opacity="0.3" cx="7" cy="47" r="25" fill="url(#paint28_linear_258_3350)"/>
<circle opacity="0.3" cx="49" cy="83" r="25" fill="url(#paint29_linear_258_3350)"/>
<circle opacity="0.3" cx="56" cy="76" r="25" fill="url(#paint30_linear_258_3350)"/>
</g>
<g clip-path="url(#clip7_258_3350)">
<rect x="44" y="44" width="18" height="18" rx="4" fill="url(#paint31_linear_258_3350)" fill-opacity="0.4"/>
<circle opacity="0.3" cx="48" cy="35" r="25" fill="url(#paint32_linear_258_3350)" fill-opacity="0.4"/>
<circle opacity="0.3" cx="29" cy="47" r="25" fill="url(#paint33_linear_258_3350)" fill-opacity="0.4"/>
<circle opacity="0.3" cx="71" cy="83" r="25" fill="url(#paint34_linear_258_3350)" fill-opacity="0.4"/>
<circle opacity="0.3" cx="78" cy="76" r="25" fill="url(#paint35_linear_258_3350)" fill-opacity="0.4"/>
</g>
<g clip-path="url(#clip8_258_3350)">
<rect x="66" y="44" width="18" height="18" rx="4" fill="url(#paint36_linear_258_3350)"/>
<circle opacity="0.3" cx="70" cy="35" r="25" fill="url(#paint37_linear_258_3350)"/>
<circle opacity="0.3" cx="51" cy="47" r="25" fill="url(#paint38_linear_258_3350)"/>
<circle opacity="0.3" cx="93" cy="83" r="25" fill="url(#paint39_linear_258_3350)"/>
<circle opacity="0.3" cx="100" cy="76" r="25" fill="url(#paint40_linear_258_3350)"/>
</g>
<g clip-path="url(#clip9_258_3350)">
<rect x="22" y="66" width="18" height="18" rx="4" fill="url(#paint41_linear_258_3350)" fill-opacity="0.4"/>
<circle opacity="0.3" cx="26" cy="57" r="25" fill="url(#paint42_linear_258_3350)" fill-opacity="0.4"/>
<circle opacity="0.3" cx="7" cy="69" r="25" fill="url(#paint43_linear_258_3350)" fill-opacity="0.4"/>
<circle opacity="0.3" cx="49" cy="105" r="25" fill="url(#paint44_linear_258_3350)" fill-opacity="0.4"/>
<circle opacity="0.3" cx="56" cy="98" r="25" fill="url(#paint45_linear_258_3350)" fill-opacity="0.4"/>
</g>
<g clip-path="url(#clip10_258_3350)">
<rect x="44" y="66" width="18" height="18" rx="4" fill="url(#paint46_linear_258_3350)"/>
<circle opacity="0.3" cx="48" cy="57" r="25" fill="url(#paint47_linear_258_3350)"/>
<circle opacity="0.3" cx="29" cy="69" r="25" fill="url(#paint48_linear_258_3350)"/>
<circle opacity="0.3" cx="71" cy="105" r="25" fill="url(#paint49_linear_258_3350)"/>
<circle opacity="0.3" cx="78" cy="98" r="25" fill="url(#paint50_linear_258_3350)"/>
</g>
<g clip-path="url(#clip11_258_3350)">
<rect x="66" y="66" width="18" height="18" rx="4" fill="url(#paint51_linear_258_3350)" fill-opacity="0.4"/>
<circle opacity="0.3" cx="70" cy="57" r="25" fill="url(#paint52_linear_258_3350)" fill-opacity="0.4"/>
<circle opacity="0.3" cx="51" cy="69" r="25" fill="url(#paint53_linear_258_3350)" fill-opacity="0.4"/>
<circle opacity="0.3" cx="93" cy="105" r="25" fill="url(#paint54_linear_258_3350)" fill-opacity="0.4"/>
<circle opacity="0.3" cx="100" cy="98" r="25" fill="url(#paint55_linear_258_3350)" fill-opacity="0.4"/>
</g>
<defs>
<linearGradient id="paint0_linear_258_3350" x1="9" y1="0" x2="9" y2="18" gradientUnits="userSpaceOnUse">
<stop stop-color="#12174A"/>
<stop offset="0.55" stop-color="#1F6E8B"/>
<stop offset="1" stop-color="#2BC4CC"/>
</linearGradient>
<linearGradient id="paint1_linear_258_3350" x1="4" y1="-34" x2="4" y2="16" gradientUnits="userSpaceOnUse">
<stop stop-color="#313EC8"/>
<stop offset="1" stop-color="#CBCEF2"/>
</linearGradient>
<linearGradient id="paint2_linear_258_3350" x1="-15" y1="-22" x2="-15" y2="28" gradientUnits="userSpaceOnUse">
<stop stop-color="#313EC8"/>
<stop offset="1" stop-color="#CBCEF2"/>
</linearGradient>
<linearGradient id="paint3_linear_258_3350" x1="27" y1="14" x2="27" y2="64" gradientUnits="userSpaceOnUse">
<stop stop-color="#313EC8"/>
<stop offset="1" stop-color="#CBCEF2"/>
</linearGradient>
<linearGradient id="paint4_linear_258_3350" x1="34" y1="7" x2="34" y2="57" gradientUnits="userSpaceOnUse">
<stop stop-color="#313EC8"/>
<stop offset="1" stop-color="#CBCEF2"/>
</linearGradient>
<linearGradient id="paint5_linear_258_3350" x1="22" y1="9" x2="84" y2="9" gradientUnits="userSpaceOnUse">
<stop stop-color="#12174A"/>
<stop offset="0.546" stop-color="#1F6E8B"/>
<stop offset="1" stop-color="#2BC4CC"/>
</linearGradient>
<linearGradient id="paint6_linear_258_3350" x1="81" y1="-73" x2="81" y2="27" gradientUnits="userSpaceOnUse">
<stop stop-color="#313EC8"/>
<stop offset="1" stop-color="#CBCEF2"/>
</linearGradient>
<linearGradient id="paint7_linear_258_3350" x1="60" y1="-82" x2="60" y2="18" gradientUnits="userSpaceOnUse">
<stop stop-color="#313EC8"/>
<stop offset="1" stop-color="#CBCEF2"/>
</linearGradient>
<linearGradient id="paint8_linear_258_3350" x1="18" y1="31" x2="80" y2="31" gradientUnits="userSpaceOnUse">
<stop stop-color="#12174A"/>
<stop offset="0.546" stop-color="#1F6E8B"/>
<stop offset="1" stop-color="#2BC4CC"/>
</linearGradient>
<linearGradient id="paint9_linear_258_3350" x1="41" y1="31" x2="41" y2="131" gradientUnits="userSpaceOnUse">
<stop stop-color="#313EC8"/>
<stop offset="1" stop-color="#CBCEF2"/>
</linearGradient>
<linearGradient id="paint10_linear_258_3350" x1="50" y1="10" x2="50" y2="110" gradientUnits="userSpaceOnUse">
<stop stop-color="#313EC8"/>
<stop offset="1" stop-color="#CBCEF2"/>
</linearGradient>
<linearGradient id="paint11_linear_258_3350" x1="31" y1="22" x2="31" y2="40" gradientUnits="userSpaceOnUse">
<stop stop-color="#253099"/>
<stop offset="0.5" stop-color="#2BC4CC"/>
<stop offset="1" stop-color="#DBDDF6"/>
</linearGradient>
<linearGradient id="paint12_linear_258_3350" x1="26" y1="-12" x2="26" y2="38" gradientUnits="userSpaceOnUse">
<stop stop-color="#6C76DB"/>
<stop offset="1" stop-color="#FAFAFE"/>
</linearGradient>
<linearGradient id="paint13_linear_258_3350" x1="7" y1="0" x2="7" y2="50" gradientUnits="userSpaceOnUse">
<stop stop-color="#6C76DB"/>
<stop offset="1" stop-color="#FAFAFE"/>
</linearGradient>
<linearGradient id="paint14_linear_258_3350" x1="49" y1="36" x2="49" y2="86" gradientUnits="userSpaceOnUse">
<stop stop-color="#6C76DB"/>
<stop offset="1" stop-color="#FAFAFE"/>
</linearGradient>
<linearGradient id="paint15_linear_258_3350" x1="56" y1="29" x2="56" y2="79" gradientUnits="userSpaceOnUse">
<stop stop-color="#6C76DB"/>
<stop offset="1" stop-color="#FAFAFE"/>
</linearGradient>
<linearGradient id="paint16_linear_258_3350" x1="53" y1="22" x2="53" y2="40" gradientUnits="userSpaceOnUse">
<stop stop-color="#253099"/>
<stop offset="0.5" stop-color="#2BC4CC"/>
<stop offset="1" stop-color="#DBDDF6"/>
</linearGradient>
<linearGradient id="paint17_linear_258_3350" x1="48" y1="-12" x2="48" y2="38" gradientUnits="userSpaceOnUse">
<stop stop-color="#6C76DB"/>
<stop offset="1" stop-color="#FAFAFE"/>
</linearGradient>
<linearGradient id="paint18_linear_258_3350" x1="29" y1="0" x2="29" y2="50" gradientUnits="userSpaceOnUse">
<stop stop-color="#6C76DB"/>
<stop offset="1" stop-color="#FAFAFE"/>
</linearGradient>
<linearGradient id="paint19_linear_258_3350" x1="71" y1="36" x2="71" y2="86" gradientUnits="userSpaceOnUse">
<stop stop-color="#6C76DB"/>
<stop offset="1" stop-color="#FAFAFE"/>
</linearGradient>
<linearGradient id="paint20_linear_258_3350" x1="78" y1="29" x2="78" y2="79" gradientUnits="userSpaceOnUse">
<stop stop-color="#6C76DB"/>
<stop offset="1" stop-color="#FAFAFE"/>
</linearGradient>
<linearGradient id="paint21_linear_258_3350" x1="75" y1="22" x2="75" y2="40" gradientUnits="userSpaceOnUse">
<stop stop-color="#2D39B8"/>
<stop offset="0.5" stop-color="#5BD2D8"/>
<stop offset="1" stop-color="#EAECFA"/>
</linearGradient>
<linearGradient id="paint22_linear_258_3350" x1="70" y1="-12" x2="70" y2="38" gradientUnits="userSpaceOnUse">
<stop stop-color="#8C93E3"/>
<stop offset="1" stop-color="#FAFAFE"/>
</linearGradient>
<linearGradient id="paint23_linear_258_3350" x1="51" y1="0" x2="51" y2="50" gradientUnits="userSpaceOnUse">
<stop stop-color="#8C93E3"/>
<stop offset="1" stop-color="#FAFAFE"/>
</linearGradient>
<linearGradient id="paint24_linear_258_3350" x1="93" y1="36" x2="93" y2="86" gradientUnits="userSpaceOnUse">
<stop stop-color="#8C93E3"/>
<stop offset="1" stop-color="#FAFAFE"/>
</linearGradient>
<linearGradient id="paint25_linear_258_3350" x1="100" y1="29" x2="100" y2="79" gradientUnits="userSpaceOnUse">
<stop stop-color="#8C93E3"/>
<stop offset="1" stop-color="#FAFAFE"/>
</linearGradient>
<linearGradient id="paint26_linear_258_3350" x1="31" y1="44" x2="31" y2="62" gradientUnits="userSpaceOnUse">
<stop stop-color="#253099"/>
<stop offset="0.5" stop-color="#2BC4CC"/>
<stop offset="1" stop-color="#DBDDF6"/>
</linearGradient>
<linearGradient id="paint27_linear_258_3350" x1="26" y1="10" x2="26" y2="60" gradientUnits="userSpaceOnUse">
<stop stop-color="#6C76DB"/>
<stop offset="1" stop-color="#FAFAFE"/>
</linearGradient>
<linearGradient id="paint28_linear_258_3350" x1="7" y1="22" x2="7" y2="72" gradientUnits="userSpaceOnUse">
<stop stop-color="#6C76DB"/>
<stop offset="1" stop-color="#FAFAFE"/>
</linearGradient>
<linearGradient id="paint29_linear_258_3350" x1="49" y1="58" x2="49" y2="108" gradientUnits="userSpaceOnUse">
<stop stop-color="#6C76DB"/>
<stop offset="1" stop-color="#FAFAFE"/>
</linearGradient>
<linearGradient id="paint30_linear_258_3350" x1="56" y1="51" x2="56" y2="101" gradientUnits="userSpaceOnUse">
<stop stop-color="#6C76DB"/>
<stop offset="1" stop-color="#FAFAFE"/>
</linearGradient>
<linearGradient id="paint31_linear_258_3350" x1="53" y1="44" x2="53" y2="62" gradientUnits="userSpaceOnUse">
<stop stop-color="#2D39B8"/>
<stop offset="0.5" stop-color="#5BD2D8"/>
<stop offset="1" stop-color="#EAECFA"/>
</linearGradient>
<linearGradient id="paint32_linear_258_3350" x1="48" y1="10" x2="48" y2="60" gradientUnits="userSpaceOnUse">
<stop stop-color="#8C93E3"/>
<stop offset="1" stop-color="#FAFAFE"/>
</linearGradient>
<linearGradient id="paint33_linear_258_3350" x1="29" y1="22" x2="29" y2="72" gradientUnits="userSpaceOnUse">
<stop stop-color="#8C93E3"/>
<stop offset="1" stop-color="#FAFAFE"/>
</linearGradient>
<linearGradient id="paint34_linear_258_3350" x1="71" y1="58" x2="71" y2="108" gradientUnits="userSpaceOnUse">
<stop stop-color="#8C93E3"/>
<stop offset="1" stop-color="#FAFAFE"/>
</linearGradient>
<linearGradient id="paint35_linear_258_3350" x1="78" y1="51" x2="78" y2="101" gradientUnits="userSpaceOnUse">
<stop stop-color="#8C93E3"/>
<stop offset="1" stop-color="#FAFAFE"/>
</linearGradient>
<linearGradient id="paint36_linear_258_3350" x1="75" y1="44" x2="75" y2="62" gradientUnits="userSpaceOnUse">
<stop stop-color="#253099"/>
<stop offset="0.5" stop-color="#2BC4CC"/>
<stop offset="1" stop-color="#DBDDF6"/>
</linearGradient>
<linearGradient id="paint37_linear_258_3350" x1="70" y1="10" x2="70" y2="60" gradientUnits="userSpaceOnUse">
<stop stop-color="#6C76DB"/>
<stop offset="1" stop-color="#FAFAFE"/>
</linearGradient>
<linearGradient id="paint38_linear_258_3350" x1="51" y1="22" x2="51" y2="72" gradientUnits="userSpaceOnUse">
<stop stop-color="#6C76DB"/>
<stop offset="1" stop-color="#FAFAFE"/>
</linearGradient>
<linearGradient id="paint39_linear_258_3350" x1="93" y1="58" x2="93" y2="108" gradientUnits="userSpaceOnUse">
<stop stop-color="#6C76DB"/>
<stop offset="1" stop-color="#FAFAFE"/>
</linearGradient>
<linearGradient id="paint40_linear_258_3350" x1="100" y1="51" x2="100" y2="101" gradientUnits="userSpaceOnUse">
<stop stop-color="#6C76DB"/>
<stop offset="1" stop-color="#FAFAFE"/>
</linearGradient>
<linearGradient id="paint41_linear_258_3350" x1="31" y1="66" x2="31" y2="84" gradientUnits="userSpaceOnUse">
<stop stop-color="#2D39B8"/>
<stop offset="0.5" stop-color="#5BD2D8"/>
<stop offset="1" stop-color="#EAECFA"/>
</linearGradient>
<linearGradient id="paint42_linear_258_3350" x1="26" y1="32" x2="26" y2="82" gradientUnits="userSpaceOnUse">
<stop stop-color="#8C93E3"/>
<stop offset="1" stop-color="#FAFAFE"/>
</linearGradient>
<linearGradient id="paint43_linear_258_3350" x1="7" y1="44" x2="7" y2="94" gradientUnits="userSpaceOnUse">
<stop stop-color="#8C93E3"/>
<stop offset="1" stop-color="#FAFAFE"/>
</linearGradient>
<linearGradient id="paint44_linear_258_3350" x1="49" y1="80" x2="49" y2="130" gradientUnits="userSpaceOnUse">
<stop stop-color="#8C93E3"/>
<stop offset="1" stop-color="#FAFAFE"/>
</linearGradient>
<linearGradient id="paint45_linear_258_3350" x1="56" y1="73" x2="56" y2="123" gradientUnits="userSpaceOnUse">
<stop stop-color="#8C93E3"/>
<stop offset="1" stop-color="#FAFAFE"/>
</linearGradient>
<linearGradient id="paint46_linear_258_3350" x1="53" y1="66" x2="53" y2="84" gradientUnits="userSpaceOnUse">
<stop stop-color="#253099"/>
<stop offset="0.5" stop-color="#2BC4CC"/>
<stop offset="1" stop-color="#DBDDF6"/>
</linearGradient>
<linearGradient id="paint47_linear_258_3350" x1="48" y1="32" x2="48" y2="82" gradientUnits="userSpaceOnUse">
<stop stop-color="#6C76DB"/>
<stop offset="1" stop-color="#FAFAFE"/>
</linearGradient>
<linearGradient id="paint48_linear_258_3350" x1="29" y1="44" x2="29" y2="94" gradientUnits="userSpaceOnUse">
<stop stop-color="#6C76DB"/>
<stop offset="1" stop-color="#FAFAFE"/>
</linearGradient>
<linearGradient id="paint49_linear_258_3350" x1="71" y1="80" x2="71" y2="130" gradientUnits="userSpaceOnUse">
<stop stop-color="#6C76DB"/>
<stop offset="1" stop-color="#FAFAFE"/>
</linearGradient>
<linearGradient id="paint50_linear_258_3350" x1="78" y1="73" x2="78" y2="123" gradientUnits="userSpaceOnUse">
<stop stop-color="#6C76DB"/>
<stop offset="1" stop-color="#FAFAFE"/>
</linearGradient>
<linearGradient id="paint51_linear_258_3350" x1="75" y1="66" x2="75" y2="84" gradientUnits="userSpaceOnUse">
<stop stop-color="#2D39B8"/>
<stop offset="0.5" stop-color="#5BD2D8"/>
<stop offset="1" stop-color="#EAECFA"/>
</linearGradient>
<linearGradient id="paint52_linear_258_3350" x1="70" y1="32" x2="70" y2="82" gradientUnits="userSpaceOnUse">
<stop stop-color="#8C93E3"/>
<stop offset="1" stop-color="#FAFAFE"/>
</linearGradient>
<linearGradient id="paint53_linear_258_3350" x1="51" y1="44" x2="51" y2="94" gradientUnits="userSpaceOnUse">
<stop stop-color="#8C93E3"/>
<stop offset="1" stop-color="#FAFAFE"/>
</linearGradient>
<linearGradient id="paint54_linear_258_3350" x1="93" y1="80" x2="93" y2="130" gradientUnits="userSpaceOnUse">
<stop stop-color="#8C93E3"/>
<stop offset="1" stop-color="#FAFAFE"/>
</linearGradient>
<linearGradient id="paint55_linear_258_3350" x1="100" y1="73" x2="100" y2="123" gradientUnits="userSpaceOnUse">
<stop stop-color="#8C93E3"/>
<stop offset="1" stop-color="#FAFAFE"/>
</linearGradient>
<clipPath id="clip0_258_3350">
<rect width="18" height="18" rx="4" fill="white"/>
</clipPath>
<clipPath id="clip1_258_3350">
<rect x="22" width="62" height="18" rx="4" fill="white"/>
</clipPath>
<clipPath id="clip2_258_3350">
<rect x="18" y="22" width="62" height="18" rx="4" transform="rotate(90 18 22)" fill="white"/>
</clipPath>
<clipPath id="clip3_258_3350">
<rect x="22" y="22" width="18" height="18" rx="4" fill="white"/>
</clipPath>
<clipPath id="clip4_258_3350">
<rect x="44" y="22" width="18" height="18" rx="4" fill="white"/>
</clipPath>
<clipPath id="clip5_258_3350">
<rect x="66" y="22" width="18" height="18" rx="4" fill="white"/>
</clipPath>
<clipPath id="clip6_258_3350">
<rect x="22" y="44" width="18" height="18" rx="4" fill="white"/>
</clipPath>
<clipPath id="clip7_258_3350">
<rect x="44" y="44" width="18" height="18" rx="4" fill="white"/>
</clipPath>
<clipPath id="clip8_258_3350">
<rect x="66" y="44" width="18" height="18" rx="4" fill="white"/>
</clipPath>
<clipPath id="clip9_258_3350">
<rect x="22" y="66" width="18" height="18" rx="4" fill="white"/>
</clipPath>
<clipPath id="clip10_258_3350">
<rect x="44" y="66" width="18" height="18" rx="4" fill="white"/>
</clipPath>
<clipPath id="clip11_258_3350">
<rect x="66" y="66" width="18" height="18" rx="4" fill="white"/>
</clipPath>
</defs>
</svg>
