<svg width="250" height="780" viewBox="0 0 250 780" fill="none" xmlns="http://www.w3.org/2000/svg">
<g filter="url(#filter0_d_294_2114)">
<path d="M194.933 33.9058L195.538 32.8833L194.098 32.0305L193.492 33.053L194.933 33.9058ZM190.461 32.8833L191.066 33.9058L192.506 33.053L191.903 32.0305L190.461 32.8833ZM193.492 33.053C193.44 33.1365 193.367 33.2053 193.281 33.2531C193.195 33.3008 193.098 33.3258 193 33.3258C192.901 33.3258 192.805 33.3008 192.718 33.2531C192.632 33.2053 192.56 33.1365 192.508 33.053L191.066 33.9058C191.929 35.3647 194.069 35.3647 194.933 33.9058L193.492 33.053ZM191.325 12.6744H194.674V11H191.325V12.6744ZM203.325 21.3255V22.4417H205V21.3255H203.325ZM182.674 22.4417V21.3255H181V22.4417H182.674ZM181 22.4417C181 23.731 181 24.739 181.056 25.5528C181.112 26.3732 181.227 27.0564 181.489 27.6882L183.036 27.0474C182.872 26.6545 182.776 26.1745 182.726 25.4389C182.674 24.6955 182.674 23.7533 182.674 22.4417H181ZM188.315 29.9676C186.913 29.943 186.178 29.8537 185.602 29.6149L184.963 31.162C185.861 31.5348 186.884 31.6185 188.286 31.6431L188.315 29.9676ZM181.489 27.6882C181.811 28.4669 182.284 29.1746 182.88 29.7706C183.476 30.3666 184.184 30.8394 184.963 31.162L185.602 29.6149C184.44 29.1334 183.518 28.2098 183.036 27.0474L181.489 27.6882ZM203.325 22.4417C203.325 23.7533 203.325 24.6955 203.274 25.4389C203.224 26.1745 203.128 26.6545 202.965 27.0474L204.511 27.6882C204.773 27.0564 204.888 26.3732 204.945 25.5528C205.001 24.739 205 23.731 205 22.4417H203.325ZM197.714 31.6409C199.116 31.6174 200.138 31.5348 201.037 31.162L200.396 29.6149C199.821 29.8537 199.087 29.943 197.686 29.9676L197.714 31.6409ZM202.965 27.0474C202.483 28.2098 201.56 29.1334 200.397 29.6149L201.037 31.162C201.816 30.8394 202.523 30.3666 203.119 29.7706C203.715 29.1746 204.188 28.4669 204.511 27.6882L202.965 27.0474ZM194.674 12.6744C196.517 12.6744 197.841 12.6744 198.874 12.7737C199.894 12.8709 200.542 13.0562 201.06 13.3732L201.934 11.9455C201.11 11.4409 200.174 11.2154 199.032 11.106C197.903 10.9989 196.485 11 194.674 11V12.6744ZM205 21.3255C205 19.5149 205 18.0983 204.893 16.9676C204.784 15.8256 204.559 14.8891 204.054 14.0653L202.625 14.9393C202.944 15.4573 203.129 16.1058 203.226 17.1272C203.324 18.1586 203.325 19.4825 203.325 21.3255H205ZM201.059 13.3732C201.698 13.7642 202.235 14.3009 202.627 14.9393L204.054 14.0653C203.525 13.2013 202.798 12.4748 201.934 11.9455L201.059 13.3732ZM191.325 11C189.515 11 188.098 11 186.968 11.106C185.826 11.2154 184.889 11.4409 184.065 11.9455L184.939 13.3743C185.457 13.0562 186.106 12.8709 187.127 12.7737C188.159 12.6755 189.483 12.6744 191.325 12.6744V11ZM182.674 21.3255C182.674 19.4825 182.674 18.1586 182.774 17.1261C182.871 16.1058 183.056 15.4573 183.373 14.9393L181.945 14.0664C181.441 14.8902 181.215 15.8256 181.106 16.9676C181 18.0995 181 19.5149 181 21.3255H182.674ZM184.065 11.9455C183.201 12.4748 182.475 13.2024 181.945 14.0664L183.374 14.9393C183.765 14.3011 184.301 13.7645 184.939 13.3732L184.065 11.9455ZM191.901 32.0305C191.676 31.6476 191.477 31.3093 191.283 31.0437C191.084 30.7517 190.824 30.5061 190.522 30.3237L189.68 31.7715C189.733 31.8027 189.805 31.8585 189.93 32.0305C190.065 32.2158 190.218 32.4725 190.461 32.8833L191.901 32.0305ZM188.286 31.6409C188.777 31.6498 189.086 31.6565 189.323 31.6822C189.544 31.7067 189.63 31.7425 189.68 31.7715L190.522 30.3237C190.21 30.1491 189.864 30.0447 189.507 30.0178C189.174 29.981 188.775 29.9754 188.315 29.9676L188.286 31.6409ZM195.538 32.8833C195.782 32.4736 195.935 32.2158 196.07 32.0305C196.195 31.8585 196.267 31.8027 196.32 31.7715L195.478 30.3237C195.154 30.5134 194.92 30.7646 194.717 31.0437C194.524 31.3093 194.324 31.6465 194.097 32.0305L195.538 32.8833ZM197.686 29.9676C197.226 29.9754 196.825 29.981 196.493 30.0178C196.145 30.0569 195.805 30.1339 195.478 30.3237L196.32 31.7715C196.37 31.7425 196.456 31.7067 196.677 31.6822C196.913 31.6565 197.224 31.6487 197.715 31.6409L197.686 29.9676Z" fill="#3D84D6"/>
<path d="M188.535 21.8835H188.545M192.99 21.8835H193M197.455 21.8835H197.465" stroke="#3D84D6" stroke-width="2" stroke-linecap="round" stroke-linejoin="round"/>
<ellipse cx="193" cy="22.5" rx="21" ry="21.5" stroke="#5C67D7" stroke-linecap="round" stroke-dasharray="2 5"/>
</g>
<ellipse cx="227.387" cy="126.806" rx="21.2133" ry="21.2203" stroke="#86A7E7" stroke-linecap="round" stroke-dasharray="2 5"/>
<path d="M215.333 115.333H231.667C233.867 115.333 234.966 115.333 235.65 116.017C236.333 116.701 236.333 117.8 236.333 120V127C236.333 129.2 236.333 130.299 235.65 130.983C234.966 131.667 233.867 131.667 231.667 131.667H223.5M224.667 120.583H231.667M215.333 132.833V128.167C215.333 127.066 215.333 126.517 215.675 126.175C216.017 125.833 216.567 125.833 217.667 125.833H220M215.333 132.833H220M215.333 132.833V138.667M220 125.833V132.833M220 125.833H227M220 132.833V138.667" stroke="#3D84D6" stroke-width="1.5" stroke-linecap="round" stroke-linejoin="round"/>
<path d="M220 120.583C220 121.202 219.754 121.796 219.317 122.233C218.879 122.671 218.286 122.917 217.667 122.917C217.048 122.917 216.454 122.671 216.017 122.233C215.579 121.796 215.333 121.202 215.333 120.583C215.333 119.964 215.579 119.371 216.017 118.933C216.454 118.496 217.048 118.25 217.667 118.25C218.286 118.25 218.879 118.496 219.317 118.933C219.754 119.371 220 119.964 220 120.583Z" stroke="#3D84D6" stroke-width="1.5" stroke-linecap="round" stroke-linejoin="round"/>
<ellipse cx="22.1333" cy="222.01" rx="21.2133" ry="21.2203" stroke="#86A7E7" stroke-linecap="round" stroke-dasharray="2 5"/>
<path fill-rule="evenodd" clip-rule="evenodd" d="M13.1046 211.486C12.7659 211.334 12.3807 211.322 12.0336 211.454C11.6866 211.586 11.406 211.85 11.2538 212.189L8.22558 218.913C8.0732 219.251 8.06133 219.636 8.19258 219.983C8.32383 220.33 8.58747 220.611 8.92558 220.764L11.0116 221.703C11.1792 221.779 11.36 221.821 11.5438 221.827C11.7276 221.832 11.9107 221.802 12.0827 221.737C12.2547 221.672 12.4122 221.574 12.5462 221.448C12.6802 221.322 12.7881 221.171 12.8638 221.003L15.892 214.278C16.0444 213.939 16.0562 213.554 15.925 213.207C15.7937 212.86 15.5301 212.58 15.192 212.427L13.1046 211.486ZM10.6224 219.785C10.7366 219.837 10.8597 219.865 10.9849 219.869C11.1101 219.873 11.2348 219.852 11.352 219.808C11.4691 219.764 11.5763 219.697 11.6676 219.611C11.7588 219.525 11.8323 219.422 11.8838 219.308C11.9353 219.194 11.9637 219.071 11.9676 218.945C11.9715 218.82 11.9507 218.695 11.9063 218.578C11.862 218.461 11.795 218.354 11.7092 218.263C11.6235 218.171 11.5206 218.098 11.4064 218.047C11.1758 217.943 10.9134 217.934 10.6768 218.024C10.4402 218.113 10.2489 218.293 10.145 218.524C10.041 218.754 10.0329 219.017 10.1224 219.253C10.212 219.49 10.3918 219.681 10.6224 219.785ZM34.6212 220.947C34.7931 220.882 34.9505 220.784 35.0843 220.658C35.2182 220.531 35.3259 220.38 35.4013 220.213C35.4767 220.045 35.5183 219.864 35.5238 219.68C35.5293 219.496 35.4985 219.313 35.4332 219.141L32.8222 212.248C32.7571 212.076 32.6587 211.918 32.5327 211.784C32.4067 211.65 32.2555 211.542 32.0877 211.467C31.92 211.391 31.7391 211.349 31.5552 211.344C31.3713 211.338 31.1882 211.369 31.0162 211.434L28.8784 212.245C28.7065 212.31 28.5491 212.409 28.4152 212.535C28.2814 212.661 28.1737 212.812 28.0983 212.98C28.0229 213.147 27.9812 213.328 27.9758 213.512C27.9703 213.696 28.0011 213.879 28.0664 214.051L30.6788 220.946C30.8103 221.293 31.0743 221.574 31.4127 221.726C31.7511 221.879 32.1362 221.891 32.4834 221.759L34.6212 220.947ZM30.5094 213.324C30.3923 213.369 30.285 213.436 30.1938 213.522C30.1026 213.607 30.0292 213.71 29.9778 213.825C29.9264 213.939 29.898 214.062 29.8942 214.187C29.8904 214.312 29.9113 214.437 29.9557 214.554C30.0001 214.671 30.0671 214.779 30.1529 214.87C30.2388 214.961 30.3417 215.034 30.456 215.086C30.5702 215.137 30.6934 215.166 30.8186 215.169C30.9438 215.173 31.0685 215.152 31.1856 215.108C31.4221 215.018 31.6133 214.838 31.7171 214.608C31.821 214.377 31.8289 214.115 31.7393 213.878C31.6496 213.641 31.4697 213.45 31.239 213.346C31.0084 213.243 30.7459 213.235 30.5094 213.324Z" fill="#3D84D6"/>
<path fill-rule="evenodd" clip-rule="evenodd" d="M28.8391 213.75H28.8503C28.9419 213.742 29.0311 213.716 29.1127 213.674C29.1943 213.631 29.2668 213.573 29.3259 213.503C29.3851 213.432 29.4298 213.351 29.4575 213.263C29.4851 213.175 29.4953 213.083 29.4873 212.991C29.4793 212.9 29.4533 212.81 29.4109 212.729C29.3684 212.647 29.3103 212.575 29.2398 212.516C29.1693 212.456 29.0879 212.412 29.0002 212.384C28.9125 212.356 28.8201 212.346 28.7285 212.354H28.7173L28.6809 212.358L28.5451 212.372L28.0509 212.42C27.6351 212.462 27.0597 212.528 26.4241 212.612C25.1711 212.777 23.6185 213.029 22.6021 213.368C22.1093 213.532 21.5885 213.849 21.0901 214.213C20.5847 214.583 20.0611 215.032 19.5599 215.499C18.6703 216.338 17.8205 217.218 17.0133 218.136C16.4267 218.8 16.2909 219.858 16.9797 220.609C17.4277 221.093 18.1277 221.706 19.0349 221.981C19.9827 222.265 21.0747 222.154 22.1905 221.325L23.5891 220.422L23.6143 220.407C23.8145 220.529 24.0931 220.739 24.4263 221.017C24.7903 221.323 25.1851 221.682 25.5533 222.028C25.9712 222.422 26.3819 222.823 26.7853 223.232L26.8623 223.312L26.8819 223.332L26.8889 223.339L26.9715 223.423L27.0765 223.477C27.6407 223.757 28.2609 223.656 28.7425 223.494C29.2437 223.326 29.7421 223.04 30.1663 222.759C30.6974 222.402 31.2005 222.004 31.6713 221.57L31.6965 221.548L31.7035 221.541L31.7049 221.54C31.7049 221.54 31.5817 221.106 31.1001 220.599L30.7207 221.075L30.4001 222L26.8889 223.339L27.6001 222.7L27.2249 221.696C26.9902 221.465 26.7531 221.237 26.5137 221.01C26.1357 220.655 25.7185 220.275 25.3237 219.946C24.9415 219.624 24.5439 219.319 24.2121 219.137C23.6605 218.835 23.1201 219.059 22.8289 219.248L21.3897 220.177L21.3701 220.191C20.5931 220.774 19.9547 220.796 19.4381 220.641C18.8781 220.473 18.3811 220.064 18.0101 219.661C17.8939 219.535 17.8603 219.293 18.0619 219.064C18.839 218.18 19.657 217.332 20.5133 216.523C20.9907 216.08 21.4695 215.669 21.9161 215.343C22.3725 215.01 22.7561 214.793 23.0459 214.696C23.9195 214.405 25.3489 214.166 26.6075 213.999C27.2957 213.909 27.9856 213.831 28.6767 213.765L28.8069 213.753L28.8391 213.75Z" fill="#3D84D6"/>
<path d="M27.7782 222.248C27.5953 222.062 27.411 221.879 27.2252 221.696L27.6004 222.7L26.8892 223.34L30.4004 222L30.721 221.076L31.1004 220.6L30.7434 220.524L30.7392 220.527L30.7196 220.545L30.644 220.615C30.25 220.971 29.8313 221.298 29.391 221.594C29.013 221.846 28.6308 222.056 28.2948 222.168C28.0344 222.256 27.872 222.263 27.7782 222.248Z" fill="#3D84D6"/>
<path fill-rule="evenodd" clip-rule="evenodd" d="M15.0659 215.095L14.7901 214.451L14.5143 213.807L14.5703 213.785L14.7285 213.718C15.5047 213.388 16.284 213.066 17.0665 212.752C17.702 212.495 18.3424 212.251 18.9873 212.02C19.2715 211.919 19.5361 211.832 19.7573 211.769C19.9477 211.713 20.1913 211.651 20.3901 211.651C20.5721 211.651 20.7639 211.693 20.9221 211.735C21.0929 211.782 21.2805 211.843 21.4709 211.913C21.8545 212.053 22.2871 212.235 22.6875 212.412C23.1545 212.62 23.6175 212.838 24.0763 213.064L24.1687 213.109L24.1939 213.121L24.2023 213.126C24.3684 213.209 24.4948 213.354 24.5536 213.53C24.6124 213.706 24.5989 213.899 24.5159 214.065C24.4329 214.231 24.2873 214.358 24.1111 214.416C23.935 214.475 23.7426 214.462 23.5765 214.379L23.5695 214.374L23.5471 214.363L23.4603 214.321C23.0166 214.103 22.569 213.893 22.1177 213.691C21.7482 213.525 21.3732 213.371 20.9935 213.229C20.8512 213.177 20.7069 213.13 20.5609 213.089C20.5061 213.074 20.4505 213.062 20.3943 213.053L20.3817 213.056C20.3537 213.06 20.2795 213.075 20.1409 213.114C19.9092 213.183 19.6795 213.258 19.4521 213.34C18.9089 213.532 18.2411 213.791 17.5873 214.052C16.8136 214.362 16.0431 214.68 15.2759 215.006L15.1205 215.072L15.0659 215.095ZM14.1461 214.727C14.0732 214.557 14.0711 214.364 14.1401 214.192C14.2091 214.02 14.3437 213.882 14.5143 213.809L14.7901 214.453L15.0659 215.095C14.9813 215.132 14.8904 215.151 14.7984 215.152C14.7064 215.153 14.6151 215.136 14.5296 215.102C14.4442 215.068 14.3663 215.017 14.3005 214.953C14.2347 214.888 14.1822 214.812 14.1461 214.727ZM11.4819 220.271C11.545 220.204 11.6207 220.151 11.7046 220.113C11.7885 220.075 11.8791 220.055 11.971 220.052C12.0629 220.05 12.1544 220.065 12.2403 220.098C12.3262 220.131 12.4049 220.18 12.4717 220.243L11.9901 220.751L11.5099 221.261C11.443 221.198 11.3893 221.122 11.3517 221.038C11.3141 220.954 11.2934 220.864 11.2908 220.772C11.2882 220.68 11.3037 220.588 11.3365 220.503C11.3693 220.417 11.4187 220.338 11.4819 220.271ZM17.8799 225.013L21.7481 226.463C22.1256 226.605 22.5358 226.635 22.9298 226.549C23.3238 226.464 23.6848 226.267 23.9699 225.982L26.8959 223.056C27.0273 222.925 27.2055 222.851 27.3913 222.851C27.577 222.851 27.7551 222.925 27.8864 223.056C28.0176 223.188 28.0913 223.366 28.0912 223.552C28.091 223.738 28.0171 223.916 27.8857 224.047L24.9597 226.973C24.4844 227.448 23.8825 227.776 23.2259 227.918C22.5693 228.06 21.8857 228.01 21.2567 227.774L17.3087 226.294L17.2765 226.279C17.0624 226.16 16.8591 226.023 16.6689 225.87C16.4421 225.695 16.1761 225.478 15.8891 225.233C15.2465 224.683 14.6127 224.124 13.9879 223.554C13.2244 222.861 12.467 222.161 11.7157 221.454L11.5631 221.311L11.5099 221.261L11.9901 220.751L12.4717 220.243L12.5235 220.292L12.6733 220.434C13.4188 221.134 14.1702 221.829 14.9273 222.517C15.5713 223.101 16.2363 223.693 16.7935 224.166C17.0735 224.403 17.3213 224.604 17.5215 224.76C17.7063 224.901 17.8225 224.979 17.8799 225.012M13.1381 228.003C13.2571 227.861 13.4275 227.772 13.612 227.756C13.7964 227.739 13.9799 227.797 14.1223 227.915L15.4649 229.035C15.7658 229.286 16.1309 229.448 16.5191 229.503L18.2495 229.746C18.3426 229.757 18.4327 229.785 18.5144 229.831C18.5962 229.877 18.668 229.938 18.7255 230.012C18.783 230.086 18.8251 230.171 18.8494 230.261C18.8736 230.352 18.8794 230.446 18.8665 230.539C18.8535 230.632 18.8221 230.721 18.7741 230.801C18.7261 230.882 18.6624 230.952 18.5868 231.007C18.5113 231.062 18.4254 231.102 18.3343 231.123C18.2431 231.145 18.1486 231.148 18.0563 231.132L16.3245 230.89C15.6775 230.799 15.0689 230.529 14.5675 230.11L13.2249 228.99C13.1542 228.931 13.0958 228.859 13.0531 228.778C13.0105 228.696 12.9843 228.607 12.9761 228.515C12.9679 228.423 12.9778 228.331 13.0054 228.243C13.033 228.155 13.0776 228.074 13.1367 228.003" fill="#3D84D6"/>
<ellipse cx="23.2797" cy="598.24" rx="21.2133" ry="21.2203" stroke="#86A7E7" stroke-linecap="round" stroke-dasharray="2 5"/>
<path fill-rule="evenodd" clip-rule="evenodd" d="M22.5474 587.852C22.8309 587.771 23.1307 587.771 23.4142 587.852C24.0186 588.024 24.6276 588.183 25.2389 588.342C28.1101 589.09 31.0256 589.851 33.6202 591.964L34.8149 592.937C35.2991 593.331 35.5417 593.917 35.5417 594.5V602.667C35.5417 602.899 35.4495 603.121 35.2855 603.285C35.1214 603.45 34.8988 603.542 34.6667 603.542C34.4347 603.542 34.2121 603.45 34.048 603.285C33.8839 603.121 33.7917 602.899 33.7917 602.667V596.9L33.6016 597.055C32.742 597.752 31.8029 598.344 30.8039 598.82C30.8506 598.927 30.8743 599.042 30.8751 599.167V604.176C30.875 604.822 30.68 605.453 30.3155 605.987C29.951 606.52 29.4341 606.931 28.8322 607.165L24.1656 608.985C23.416 609.278 22.5841 609.278 21.8346 608.985L17.1679 607.165C16.5661 606.931 16.0491 606.52 15.6846 605.987C15.3201 605.453 15.1251 604.822 15.1251 604.176V599.167C15.1258 599.04 15.1507 598.922 15.1997 598.812C14.2314 598.347 13.2864 597.774 12.3799 597.036L11.1852 596.063C10.2169 595.274 10.2169 593.727 11.1852 592.937L12.3986 591.945C14.9734 589.845 17.8691 589.088 20.7192 588.344C21.3304 588.187 21.9398 588.023 22.5474 587.852ZM33.7917 594.501C33.7917 594.396 33.7497 594.326 33.7101 594.294L32.5154 593.321C30.0001 591.583 27.7577 590.817 24.9134 590.069C24.2678 589.902 23.6238 589.728 22.9814 589.549C22.3164 589.737 21.6701 589.907 21.0424 590.073C18.2191 590.815 15.7586 591.462 13.5057 593.302L12.2912 594.292C12.2504 594.325 12.2084 594.394 12.2084 594.499C12.2084 594.604 12.2504 594.674 12.2901 594.707L13.4859 595.68C15.7586 597.531 18.2412 598.183 21.0867 598.931C21.7128 599.093 22.3568 599.266 23.0187 599.451C23.6837 599.264 24.3301 599.093 24.9577 598.928C27.7811 598.186 30.2416 597.538 32.4944 595.699L33.7089 594.708C33.7497 594.675 33.7917 594.606 33.7917 594.501ZM25.2821 600.657C26.5654 600.322 27.8569 599.983 29.1251 599.523V604.176C29.1251 604.777 28.7564 605.316 28.1964 605.536L23.5297 607.354C23.1891 607.487 22.811 607.487 22.4704 607.354L17.8037 605.534C17.5303 605.428 17.2953 605.241 17.1296 604.999C16.9639 604.757 16.8752 604.47 16.8751 604.176V599.512C18.1572 599.979 19.4639 600.319 20.7601 600.658C21.3726 600.818 21.9816 600.976 22.5859 601.148C22.8694 601.229 23.1692 601.229 23.4527 601.148C24.0582 600.975 24.6684 600.816 25.2821 600.657Z" fill="#3D84D6"/>
<ellipse cx="86.3471" cy="757.679" rx="21.2133" ry="21.2203" stroke="#86A7E7" stroke-linecap="round" stroke-dasharray="2 5"/>
<path d="M76.6665 753.333C76.6665 750.034 76.6665 748.383 77.692 747.359C78.7163 746.333 80.3672 746.333 83.6665 746.333H88.3332C91.6325 746.333 93.2833 746.333 94.3077 747.359C95.3332 748.383 95.3332 750.034 95.3332 753.333V762.667C95.3332 765.966 95.3332 767.617 94.3077 768.641C93.2833 769.667 91.6325 769.667 88.3332 769.667H83.6665C80.3672 769.667 78.7163 769.667 77.692 768.641C76.6665 767.617 76.6665 765.966 76.6665 762.667V753.333Z" stroke="#3D84D6" stroke-width="1.5"/>
<path d="M95.2142 762.667H81.2142C80.1292 762.667 79.5867 762.667 79.141 762.786C78.5475 762.945 78.0064 763.257 77.572 763.692C77.1377 764.127 76.8254 764.668 76.6665 765.261" stroke="#3D84D6" stroke-width="1.5"/>
<path d="M81.333 752.167H90.6663M81.333 756.25H87.1663" stroke="#3D84D6" stroke-width="1.5" stroke-linecap="round"/>
<ellipse cx="220.507" cy="640.681" rx="21.2133" ry="21.2203" stroke="#86A7E7" stroke-linecap="round" stroke-dasharray="2 5"/>
<path fill-rule="evenodd" clip-rule="evenodd" d="M226.13 630.037C226.077 629.64 225.739 629.333 225.331 629.333C224.886 629.333 224.524 629.698 224.524 630.147V631.047H217.449V630.147L217.442 630.037C217.389 629.64 217.051 629.333 216.643 629.333C216.197 629.333 215.836 629.698 215.836 630.147V631.067C212.531 631.295 210.496 633.44 210.496 636.9V646.721C210.496 650.435 212.777 652.667 216.434 652.667H225.53C229.191 652.667 231.468 650.473 231.468 646.804V636.9C231.479 633.439 229.45 631.295 226.138 631.067V630.147L226.13 630.037ZM224.524 632.675V633.719L224.532 633.829C224.585 634.226 224.923 634.533 225.331 634.533C225.777 634.533 226.138 634.168 226.138 633.719V632.699C228.548 632.9 229.863 634.353 229.855 636.898V637.369H212.109V636.9C212.109 634.357 213.431 632.901 215.836 632.699V633.719L215.843 633.829C215.897 634.226 216.234 634.533 216.643 634.533C217.088 634.533 217.449 634.168 217.449 633.719V632.675H224.524ZM212.109 638.997V646.721C212.109 649.524 213.657 651.039 216.434 651.039H225.53C228.316 651.039 229.855 649.556 229.855 646.804L229.855 638.997H212.109ZM226.576 642.421C226.576 641.972 226.215 641.607 225.769 641.607L225.65 641.615C225.256 641.669 224.953 642.009 224.953 642.421C224.953 642.871 225.314 643.235 225.769 643.235L225.879 643.228C226.273 643.174 226.576 642.833 226.576 642.421ZM220.997 641.607C221.442 641.607 221.803 641.972 221.803 642.421C221.803 642.833 221.5 643.174 221.106 643.228L220.997 643.235C220.541 643.235 220.18 642.871 220.18 642.421C220.18 642.009 220.484 641.669 220.877 641.615L220.997 641.607ZM217.021 642.421C217.021 641.972 216.66 641.607 216.214 641.607L216.095 641.615C215.701 641.669 215.398 642.009 215.398 642.421C215.398 642.871 215.759 643.235 216.204 643.235L216.324 643.228C216.717 643.174 217.021 642.833 217.021 642.421ZM225.769 645.825C226.215 645.825 226.576 646.19 226.576 646.639C226.576 647.051 226.273 647.392 225.879 647.446L225.769 647.453C225.314 647.453 224.953 647.089 224.953 646.639C224.953 646.227 225.256 645.887 225.65 645.833L225.769 645.825ZM221.803 646.639C221.803 646.19 221.442 645.825 220.997 645.825L220.877 645.833C220.484 645.887 220.18 646.227 220.18 646.639C220.18 647.089 220.541 647.453 220.997 647.453L221.106 647.446C221.5 647.392 221.803 647.051 221.803 646.639ZM216.214 645.825C216.66 645.825 217.021 646.19 217.021 646.639C217.021 647.051 216.717 647.392 216.324 647.446L216.204 647.453C215.759 647.453 215.398 647.089 215.398 646.639C215.398 646.227 215.701 645.887 216.095 645.833L216.214 645.825Z" fill="#3D84D6"/>
<defs>
<filter id="filter0_d_294_2114" x="167.5" y="0.5" width="51" height="52" filterUnits="userSpaceOnUse" color-interpolation-filters="sRGB">
<feFlood flood-opacity="0" result="BackgroundImageFix"/>
<feColorMatrix in="SourceAlpha" type="matrix" values="0 0 0 0 0 0 0 0 0 0 0 0 0 0 0 0 0 0 127 0" result="hardAlpha"/>
<feOffset dy="4"/>
<feGaussianBlur stdDeviation="2"/>
<feComposite in2="hardAlpha" operator="out"/>
<feColorMatrix type="matrix" values="0 0 0 0 0 0 0 0 0 0 0 0 0 0 0 0 0 0 0.25 0"/>
<feBlend mode="normal" in2="BackgroundImageFix" result="effect1_dropShadow_294_2114"/>
<feBlend mode="normal" in="SourceGraphic" in2="effect1_dropShadow_294_2114" result="shape"/>
</filter>
</defs>
</svg>
