<svg width="44" height="44" viewBox="0 0 44 44" fill="none" xmlns="http://www.w3.org/2000/svg">
<ellipse cx="22.1333" cy="22.0103" rx="21.2133" ry="21.2203" stroke="#86A7E7" stroke-linecap="round" stroke-dasharray="2 5"/>
<path fill-rule="evenodd" clip-rule="evenodd" d="M13.1046 11.4861C12.7659 11.3339 12.3807 11.3224 12.0336 11.4542C11.6866 11.586 11.406 11.8503 11.2538 12.1889L8.22558 18.9131C8.0732 19.2514 8.06133 19.6363 8.19258 19.9834C8.32383 20.3304 8.58747 20.6111 8.92558 20.7639L11.0116 21.7033C11.1792 21.779 11.36 21.8209 11.5438 21.8267C11.7276 21.8324 11.9107 21.802 12.0827 21.737C12.2547 21.672 12.4122 21.5737 12.5462 21.4478C12.6802 21.3219 12.7881 21.1709 12.8638 21.0033L15.892 14.2777C16.0444 13.9394 16.0562 13.5545 15.925 13.2075C15.7937 12.8604 15.5301 12.5797 15.192 12.4269L13.1046 11.4861ZM10.6224 19.7853C10.7366 19.8368 10.8597 19.8653 10.9849 19.8691C11.1101 19.873 11.2348 19.8522 11.352 19.8079C11.4691 19.7635 11.5763 19.6966 11.6676 19.6108C11.7588 19.525 11.8323 19.4221 11.8838 19.3079C11.9353 19.1937 11.9637 19.0705 11.9676 18.9454C11.9715 18.8202 11.9507 18.6955 11.9063 18.5783C11.862 18.4612 11.795 18.354 11.7092 18.2627C11.6235 18.1715 11.5206 18.098 11.4064 18.0465C11.1758 17.9425 10.9134 17.9344 10.6768 18.024C10.4402 18.1135 10.2489 18.2933 10.145 18.5239C10.041 18.7545 10.0329 19.0169 10.1224 19.2535C10.212 19.49 10.3918 19.6813 10.6224 19.7853ZM34.6212 20.9473C34.7931 20.8821 34.9505 20.7836 35.0843 20.6575C35.2182 20.5314 35.3259 20.3802 35.4013 20.2125C35.4767 20.0448 35.5183 19.8639 35.5238 19.6801C35.5293 19.4963 35.4985 19.3132 35.4332 19.1413L32.8222 12.2477C32.7571 12.0757 32.6587 11.9182 32.5327 11.7841C32.4067 11.6501 32.2555 11.5423 32.0877 11.4668C31.92 11.3912 31.7391 11.3495 31.5552 11.3439C31.3713 11.3383 31.1882 11.3691 31.0162 11.4343L28.8784 12.2449C28.7065 12.3102 28.5491 12.4086 28.4152 12.5347C28.2814 12.6608 28.1737 12.812 28.0983 12.9797C28.0229 13.1474 27.9812 13.3283 27.9758 13.5121C27.9703 13.6959 28.0011 13.879 28.0664 14.0509L30.6788 20.9459C30.8103 21.293 31.0743 21.5737 31.4127 21.7262C31.7511 21.8788 32.1362 21.8907 32.4834 21.7593L34.6212 20.9473ZM30.5094 13.3243C30.3923 13.3687 30.285 13.4357 30.1938 13.5216C30.1026 13.6074 30.0292 13.7104 29.9778 13.8246C29.9264 13.9388 29.898 14.062 29.8942 14.1872C29.8904 14.3124 29.9113 14.4371 29.9557 14.5542C30.0001 14.6713 30.0671 14.7785 30.1529 14.8698C30.2388 14.961 30.3417 15.0344 30.456 15.0858C30.5702 15.1372 30.6934 15.1656 30.8186 15.1694C30.9438 15.1732 31.0685 15.1523 31.1856 15.1079C31.4221 15.0182 31.6133 14.8383 31.7171 14.6076C31.821 14.377 31.8289 14.1145 31.7393 13.878C31.6496 13.6415 31.4697 13.4503 31.239 13.3464C31.0084 13.2426 30.7459 13.2346 30.5094 13.3243Z" fill="#3D84D6"/>
<path fill-rule="evenodd" clip-rule="evenodd" d="M28.8391 13.75H28.8503C28.9419 13.742 29.0311 13.716 29.1127 13.6736C29.1943 13.6311 29.2668 13.573 29.3259 13.5025C29.3851 13.4321 29.4298 13.3507 29.4575 13.2629C29.4851 13.1752 29.4953 13.0829 29.4873 12.9912C29.4793 12.8996 29.4533 12.8104 29.4109 12.7288C29.3684 12.6472 29.3103 12.5747 29.2398 12.5156C29.1693 12.4564 29.0879 12.4117 29.0002 12.384C28.9125 12.3563 28.8201 12.3462 28.7285 12.3542H28.7173L28.6809 12.3584L28.5451 12.3724L28.0509 12.42C27.6351 12.462 27.0597 12.5278 26.4241 12.6118C25.1711 12.777 23.6185 13.029 22.6021 13.3678C22.1093 13.5316 21.5885 13.8494 21.0901 14.2134C20.5847 14.583 20.0611 15.0324 19.5599 15.4986C18.6703 16.3376 17.8205 17.2178 17.0133 18.1362C16.4267 18.7998 16.2909 19.8582 16.9797 20.6086C17.4277 21.093 18.1277 21.7062 19.0349 21.9806C19.9827 22.2648 21.0747 22.1542 22.1905 21.3254L23.5891 20.4224L23.6143 20.407C23.8145 20.5288 24.0931 20.7388 24.4263 21.0174C24.7903 21.3226 25.1851 21.6824 25.5533 22.0282C25.9712 22.4221 26.3819 22.8235 26.7853 23.2322L26.8623 23.312L26.8819 23.3316L26.8889 23.3386L26.9715 23.4226L27.0765 23.4772C27.6407 23.7572 28.2609 23.6564 28.7425 23.494C29.2437 23.326 29.7421 23.0404 30.1663 22.759C30.6974 22.4016 31.2005 22.0043 31.6713 21.5704L31.6965 21.548L31.7035 21.541L31.7049 21.5396C31.7049 21.5396 31.5817 21.1056 31.1001 20.5988L30.7207 21.0748L30.4001 22.0002L26.8889 23.3386L27.6001 22.7002L27.2249 21.6964C26.9902 21.4653 26.7531 21.2366 26.5137 21.0104C26.1357 20.6548 25.7185 20.2754 25.3237 19.9464C24.9415 19.6244 24.5439 19.3192 24.2121 19.1372C23.6605 18.8348 23.1201 19.0588 22.8289 19.2478L21.3897 20.1774L21.3701 20.1914C20.5931 20.7738 19.9547 20.7962 19.4381 20.6408C18.8781 20.4728 18.3811 20.064 18.0101 19.6608C17.8939 19.5348 17.8603 19.2926 18.0619 19.0644C18.839 18.1797 19.657 17.3318 20.5133 16.5234C20.9907 16.0796 21.4695 15.6694 21.9161 15.3432C22.3725 15.01 22.7561 14.793 23.0459 14.6964C23.9195 14.4052 25.3489 14.1658 26.6075 13.9992C27.2957 13.9088 27.9856 13.8308 28.6767 13.7654L28.8069 13.7528L28.8391 13.75Z" fill="#3D84D6"/>
<path d="M27.7782 22.2478C27.5953 22.0625 27.411 21.8786 27.2252 21.6962L27.6004 22.7L26.8892 23.3398L30.4004 22L30.721 21.076L31.1004 20.6L30.7434 20.5244L30.7392 20.5272L30.7196 20.5454L30.644 20.6154C30.25 20.9709 29.8313 21.2979 29.391 21.594C29.013 21.846 28.6308 22.056 28.2948 22.168C28.0344 22.2562 27.872 22.2632 27.7782 22.2478Z" fill="#3D84D6"/>
<path fill-rule="evenodd" clip-rule="evenodd" d="M15.0659 15.0954L14.7901 14.4514L14.5143 13.8074L14.5703 13.785L14.7285 13.7178C15.5047 13.3882 16.284 13.0662 17.0665 12.7518C17.702 12.4954 18.3424 12.2512 18.9873 12.0196C19.2715 11.9188 19.5361 11.832 19.7573 11.769C19.9477 11.713 20.1913 11.6514 20.3901 11.6514C20.5721 11.6514 20.7639 11.6934 20.9221 11.7354C21.0929 11.7816 21.2805 11.8432 21.4709 11.9132C21.8545 12.0532 22.2871 12.2352 22.6875 12.4116C23.1545 12.6203 23.6175 12.8378 24.0763 13.064L24.1687 13.1088L24.1939 13.1214L24.2023 13.1256C24.3684 13.2086 24.4948 13.3541 24.5536 13.5303C24.6124 13.7065 24.5989 13.8988 24.5159 14.065C24.4329 14.2311 24.2873 14.3575 24.1111 14.4163C23.935 14.4751 23.7426 14.4616 23.5765 14.3786L23.5695 14.3744L23.5471 14.3632L23.4603 14.3212C23.0166 14.103 22.569 13.893 22.1177 13.6912C21.7482 13.5247 21.3732 13.3706 20.9935 13.2292C20.8512 13.1767 20.7069 13.13 20.5609 13.0892C20.5061 13.0737 20.4505 13.0615 20.3943 13.0528L20.3817 13.0556C20.3537 13.0598 20.2795 13.0752 20.1409 13.1144C19.9092 13.1829 19.6795 13.258 19.4521 13.3398C18.9089 13.5316 18.2411 13.7906 17.5873 14.0524C16.8136 14.3623 16.0431 14.6801 15.2759 15.0058L15.1205 15.0716L15.0659 15.0954ZM14.1461 14.7272C14.0732 14.5565 14.0711 14.364 14.1401 14.1918C14.2091 14.0196 14.3437 13.8818 14.5143 13.8088L14.7901 14.4528L15.0659 15.0954C14.9813 15.1317 14.8904 15.1509 14.7984 15.1521C14.7064 15.1532 14.6151 15.1362 14.5296 15.102C14.4442 15.0678 14.3663 15.0171 14.3005 14.9528C14.2347 14.8884 14.1822 14.8118 14.1461 14.7272ZM11.4819 20.2712C11.545 20.2043 11.6207 20.1506 11.7046 20.113C11.7885 20.0754 11.8791 20.0547 11.971 20.0521C12.0629 20.0495 12.1544 20.065 12.2403 20.0978C12.3262 20.1306 12.4049 20.18 12.4717 20.2432L11.9901 20.7514L11.5099 21.261C11.443 21.1978 11.3893 21.1221 11.3517 21.0382C11.3141 20.9543 11.2934 20.8638 11.2908 20.7719C11.2882 20.68 11.3037 20.5884 11.3365 20.5025C11.3693 20.4166 11.4187 20.338 11.4819 20.2712ZM17.8799 25.013L21.7481 26.4634C22.1256 26.6048 22.5358 26.6346 22.9298 26.5492C23.3238 26.4638 23.6848 26.2668 23.9699 25.9818L26.8959 23.0558C27.0273 22.9245 27.2055 22.8508 27.3913 22.851C27.577 22.8511 27.7551 22.925 27.8864 23.0565C28.0176 23.1879 28.0913 23.3661 28.0912 23.5519C28.091 23.7376 28.0171 23.9157 27.8857 24.047L24.9597 26.973C24.4844 27.4478 23.8825 27.7757 23.2259 27.9177C22.5693 28.0597 21.8857 28.0097 21.2567 27.7738L17.3087 26.294L17.2765 26.2786C17.0624 26.1603 16.8591 26.0235 16.6689 25.8698C16.4421 25.6948 16.1761 25.4778 15.8891 25.2328C15.2465 24.6833 14.6127 24.1237 13.9879 23.5542C13.2244 22.8607 12.467 22.1607 11.7157 21.4542L11.5631 21.3114L11.5099 21.261L11.9901 20.7514L12.4717 20.2432L12.5235 20.2922L12.6733 20.4336C13.4188 21.1342 14.1702 21.8286 14.9273 22.5168C15.5713 23.1006 16.2363 23.6928 16.7935 24.166C17.0735 24.4026 17.3213 24.6042 17.5215 24.7596C17.7063 24.901 17.8225 24.9794 17.8799 25.0116M13.1381 28.0034C13.2571 27.8615 13.4275 27.7725 13.612 27.756C13.7964 27.7394 13.9799 27.7967 14.1223 27.9152L15.4649 29.0352C15.7658 29.2864 16.1309 29.4483 16.5191 29.5028L18.2495 29.7464C18.3426 29.7566 18.4327 29.7854 18.5144 29.831C18.5962 29.8767 18.668 29.9383 18.7255 30.0122C18.783 30.0861 18.8251 30.1707 18.8494 30.2612C18.8736 30.3517 18.8794 30.4461 18.8665 30.5388C18.8535 30.6316 18.8221 30.7208 18.7741 30.8012C18.7261 30.8816 18.6624 30.9515 18.5868 31.0069C18.5113 31.0622 18.4254 31.1018 18.3343 31.1234C18.2431 31.145 18.1486 31.148 18.0563 31.1324L16.3245 30.8902C15.6775 30.7993 15.0689 30.5292 14.5675 30.1104L13.2249 28.9904C13.1542 28.9314 13.0958 28.8591 13.0531 28.7775C13.0105 28.696 12.9843 28.6068 12.9761 28.5152C12.9679 28.4235 12.9778 28.3311 13.0054 28.2433C13.033 28.1555 13.0776 28.0739 13.1367 28.0034" fill="#3D84D6"/>
</svg>
