<svg width="44" height="44" viewBox="0 0 44 44" fill="none" xmlns="http://www.w3.org/2000/svg">
<ellipse cx="22.2797" cy="22.2403" rx="21.2133" ry="21.2203" stroke="#86A7E7" stroke-linecap="round" stroke-dasharray="2 5"/>
<path fill-rule="evenodd" clip-rule="evenodd" d="M21.5474 11.8524C21.8309 11.7707 22.1307 11.7707 22.4142 11.8524C23.0186 12.0239 23.6276 12.1826 24.2389 12.3424C27.1101 13.0902 30.0256 13.8509 32.6202 15.9637L33.8149 16.9367C34.2991 17.3311 34.5417 17.9167 34.5417 18.5001V26.6667C34.5417 26.8988 34.4495 27.1213 34.2855 27.2854C34.1214 27.4495 33.8988 27.5417 33.6667 27.5417C33.4347 27.5417 33.2121 27.4495 33.048 27.2854C32.8839 27.1213 32.7917 26.8988 32.7917 26.6667V20.8999L32.6016 21.0551C31.742 21.7519 30.8029 22.3445 29.8039 22.8202C29.8506 22.9268 29.8743 23.0423 29.8751 23.1667V28.1764C29.875 28.8223 29.68 29.4533 29.3155 29.9866C28.951 30.5199 28.4341 30.9307 27.8322 31.1654L23.1656 32.9854C22.416 33.2776 21.5841 33.2776 20.8346 32.9854L16.1679 31.1654C15.5661 30.9307 15.0491 30.5199 14.6846 29.9866C14.3201 29.4533 14.1251 28.8223 14.1251 28.1764V23.1667C14.1258 23.0399 14.1507 22.9217 14.1997 22.8121C13.2314 22.3466 12.2864 21.7737 11.3799 21.0364L10.1852 20.0634C9.2169 19.2736 9.2169 17.7266 10.1852 16.9367L11.3986 15.9451C13.9734 13.8451 16.8691 13.0879 19.7192 12.3436C20.3304 12.1865 20.9398 12.0228 21.5474 11.8524ZM32.7917 18.5012C32.7917 18.3962 32.7497 18.3262 32.7101 18.2936L31.5154 17.3206C29.0001 15.5834 26.7577 14.8169 23.9134 14.0691C23.2678 13.9017 22.6238 13.7282 21.9814 13.5487C21.3164 13.7366 20.6701 13.9069 20.0424 14.0726C17.2191 14.8146 14.7586 15.4621 12.5057 17.3019L11.2912 18.2924C11.2504 18.3251 11.2084 18.3939 11.2084 18.4989C11.2084 18.6039 11.2504 18.6739 11.2901 18.7066L12.4859 19.6796C14.7586 21.5311 17.2412 22.1832 20.0867 22.9311C20.7128 23.0928 21.3568 23.2663 22.0187 23.4514C22.6837 23.2636 23.3301 23.0932 23.9577 22.9276C26.7811 22.1856 29.2416 21.5381 31.4944 19.6994L32.7089 18.7077C32.7497 18.6751 32.7917 18.6062 32.7917 18.5012ZM24.2821 24.6566C25.5654 24.3217 26.8569 23.9834 28.1251 23.5226V28.1764C28.1251 28.7772 27.7564 29.3162 27.1964 29.5356L22.5297 31.3544C22.1891 31.4872 21.811 31.4872 21.4704 31.3544L16.8037 29.5344C16.5303 29.4278 16.2953 29.2411 16.1296 28.9988C15.9639 28.7566 15.8752 28.4699 15.8751 28.1764V23.5121C17.1572 23.9787 18.4639 24.3194 19.7601 24.6577C20.3726 24.8176 20.9816 24.9762 21.5859 25.1477C21.8694 25.2294 22.1692 25.2294 22.4527 25.1477C23.0582 24.9751 23.6684 24.8164 24.2821 24.6566Z" fill="#3D84D6"/>
</svg>
