<svg width="52" height="53" viewBox="0 0 52 53" fill="none" xmlns="http://www.w3.org/2000/svg">
<g filter="url(#filter0_d_258_3296)">
<path d="M27.9332 33.9058L28.5382 32.8833L27.0983 32.0305L26.4921 33.053L27.9332 33.9058ZM23.4615 32.8833L24.0665 33.9058L25.5065 33.053L24.9026 32.0305L23.4615 32.8833ZM26.4921 33.053C26.44 33.1365 26.3674 33.2053 26.2813 33.2531C26.1952 33.3008 26.0983 33.3258 25.9999 33.3258C25.9014 33.3258 25.8046 33.3008 25.7184 33.2531C25.6323 33.2053 25.5598 33.1365 25.5076 33.053L24.0665 33.9058C24.9294 35.3647 27.0692 35.3647 27.9332 33.9058L26.4921 33.053ZM24.3255 12.6744H27.6743V11H24.3255V12.6744ZM36.3253 21.3255V22.4417H37.9997V21.3255H36.3253ZM15.6744 22.4417V21.3255H14V22.4417H15.6744ZM14 22.4417C14 23.731 14 24.739 14.0558 25.5528C14.1116 26.3732 14.2266 27.0564 14.4889 27.6882L16.0361 27.0474C15.872 26.6545 15.776 26.1745 15.7257 25.4389C15.6744 24.6955 15.6744 23.7533 15.6744 22.4417H14ZM21.3149 29.9676C19.9129 29.943 19.1784 29.8537 18.6024 29.6149L17.9627 31.162C18.8613 31.5348 19.8838 31.6185 21.2859 31.6431L21.3149 29.9676ZM14.4889 27.6882C14.8115 28.4669 15.2843 29.1746 15.8803 29.7706C16.4764 30.3666 17.184 30.8394 17.9627 31.162L18.6024 29.6149C17.44 29.1334 16.5176 28.2098 16.0361 27.0474L14.4889 27.6882ZM36.3253 22.4417C36.3253 23.7533 36.3253 24.6955 36.274 25.4389C36.2237 26.1745 36.1277 26.6545 35.9648 27.0474L37.5108 27.6882C37.7731 27.0564 37.8881 26.3732 37.945 25.5528C38.0008 24.739 37.9997 23.731 37.9997 22.4417H36.3253ZM30.7139 31.6409C32.1159 31.6174 33.1384 31.5348 34.037 31.162L33.3962 29.6149C32.8214 29.8537 32.0869 29.943 30.6859 29.9676L30.7139 31.6409ZM35.9648 27.0474C35.4833 28.2098 34.5597 29.1334 33.3974 29.6149L34.037 31.162C34.8157 30.8394 35.5234 30.3666 36.1194 29.7706C36.7154 29.1746 37.1882 28.4669 37.5108 27.6882L35.9648 27.0474ZM27.6743 12.6744C29.5172 12.6744 30.8411 12.6744 31.8736 12.7737C32.8939 12.8709 33.5425 13.0562 34.0604 13.3732L34.9345 11.9455C34.1095 11.4409 33.1741 11.2154 32.0322 11.106C30.9025 10.9989 29.4848 11 27.6743 11V12.6744ZM37.9997 21.3255C37.9997 19.5149 37.9997 18.0983 37.8926 16.9676C37.7843 15.8256 37.5588 14.8891 37.0542 14.0653L35.6254 14.9393C35.9436 15.4573 36.1289 16.1058 36.226 17.1272C36.3242 18.1586 36.3253 19.4825 36.3253 21.3255H37.9997ZM34.0593 13.3732C34.698 13.7642 35.2351 14.3009 35.6265 14.9393L37.0542 14.0653C36.5249 13.2013 35.7985 12.4748 34.9345 11.9455L34.0593 13.3732ZM24.3255 11C22.5149 11 21.0983 11 19.9676 11.106C18.8256 11.2154 17.8891 11.4409 17.0653 11.9455L17.9393 13.3743C18.4573 13.0562 19.1058 12.8709 20.1272 12.7737C21.1586 12.6755 22.4825 12.6744 24.3255 12.6744V11ZM15.6744 21.3255C15.6744 19.4825 15.6744 18.1586 15.7737 17.1261C15.8709 16.1058 16.0562 15.4573 16.3732 14.9393L14.9455 14.0664C14.4409 14.8902 14.2154 15.8256 14.106 16.9676C14 18.0995 14 19.5149 14 21.3255H15.6744ZM17.0653 11.9455C16.2013 12.4748 15.4748 13.2024 14.9455 14.0664L16.3743 14.9393C16.7651 14.3011 17.3014 13.7645 17.9393 13.3732L17.0653 11.9455ZM24.9015 32.0305C24.676 31.6476 24.4773 31.3093 24.283 31.0437C24.084 30.7517 23.8244 30.5061 23.5217 30.3237L22.6801 31.7715C22.7325 31.8027 22.8051 31.8585 22.9301 32.0305C23.0652 32.2158 23.2181 32.4725 23.4615 32.8833L24.9015 32.0305ZM21.2859 31.6409C21.777 31.6498 22.0862 31.6565 22.3229 31.6822C22.5439 31.7067 22.6299 31.7425 22.6801 31.7715L23.5217 30.3237C23.2098 30.1491 22.8635 30.0447 22.5071 30.0178C22.1744 29.981 21.7748 29.9754 21.3149 29.9676L21.2859 31.6409ZM28.5382 32.8833C28.7816 32.4736 28.9345 32.2158 29.0696 32.0305C29.1946 31.8585 29.2672 31.8027 29.3196 31.7715L28.478 30.3237C28.1543 30.5134 27.9198 30.7646 27.7167 31.0437C27.5236 31.3093 27.3238 31.6465 27.0971 32.0305L28.5382 32.8833ZM30.6859 29.9676C30.226 29.9754 29.8253 29.981 29.4927 30.0178C29.1455 30.0569 28.805 30.1339 28.478 30.3237L29.3196 31.7715C29.3699 31.7425 29.4558 31.7067 29.6768 31.6822C29.9135 31.6565 30.2238 31.6487 30.715 31.6409L30.6859 29.9676Z" fill="#3D84D6"/>
<path d="M21.5352 21.8835H21.5452M25.9902 21.8835H26.0002M30.4552 21.8835H30.4653" stroke="#3D84D6" stroke-width="2" stroke-linecap="round" stroke-linejoin="round"/>
<ellipse cx="26" cy="22.5" rx="21" ry="21.5" stroke="#5C67D7" stroke-linecap="round" stroke-dasharray="2 5"/>
</g>
<defs>
<filter id="filter0_d_258_3296" x="0.5" y="0.5" width="51" height="52" filterUnits="userSpaceOnUse" color-interpolation-filters="sRGB">
<feFlood flood-opacity="0" result="BackgroundImageFix"/>
<feColorMatrix in="SourceAlpha" type="matrix" values="0 0 0 0 0 0 0 0 0 0 0 0 0 0 0 0 0 0 127 0" result="hardAlpha"/>
<feOffset dy="4"/>
<feGaussianBlur stdDeviation="2"/>
<feComposite in2="hardAlpha" operator="out"/>
<feColorMatrix type="matrix" values="0 0 0 0 0 0 0 0 0 0 0 0 0 0 0 0 0 0 0.25 0"/>
<feBlend mode="normal" in2="BackgroundImageFix" result="effect1_dropShadow_258_3296"/>
<feBlend mode="normal" in="SourceGraphic" in2="effect1_dropShadow_258_3296" result="shape"/>
</filter>
</defs>
</svg>
