<svg width="45" height="44" viewBox="0 0 45 44" fill="none" xmlns="http://www.w3.org/2000/svg">
<ellipse cx="22.3867" cy="21.8057" rx="21.2133" ry="21.2203" stroke="#86A7E7" stroke-linecap="round" stroke-dasharray="2 5"/>
<path d="M10.3335 10.3333H26.6668C28.8672 10.3333 29.9662 10.3333 30.6498 11.0169C31.3335 11.7006 31.3335 12.7996 31.3335 14.9999V21.9999C31.3335 24.2003 31.3335 25.2993 30.6498 25.9829C29.9662 26.6666 28.8672 26.6666 26.6668 26.6666H18.5002M19.6668 15.5833H26.6668M10.3335 27.8333V23.1666C10.3335 22.0664 10.3335 21.5169 10.6753 21.1751C11.0172 20.8333 11.5667 20.8333 12.6668 20.8333H15.0002M10.3335 27.8333H15.0002M10.3335 27.8333V33.6666M15.0002 20.8333V27.8333M15.0002 20.8333H22.0002M15.0002 27.8333V33.6666" stroke="#3D84D6" stroke-width="1.5" stroke-linecap="round" stroke-linejoin="round"/>
<path d="M15.0002 15.5833C15.0002 16.2022 14.7543 16.7957 14.3167 17.2332C13.8792 17.6708 13.2857 17.9167 12.6668 17.9167C12.048 17.9167 11.4545 17.6708 11.0169 17.2332C10.5793 16.7957 10.3335 16.2022 10.3335 15.5833C10.3335 14.9645 10.5793 14.371 11.0169 13.9334C11.4545 13.4958 12.048 13.25 12.6668 13.25C13.2857 13.25 13.8792 13.4958 14.3167 13.9334C14.7543 14.371 15.0002 14.9645 15.0002 15.5833Z" stroke="#3D84D6" stroke-width="1.5" stroke-linecap="round" stroke-linejoin="round"/>
</svg>
