<svg width="300" height="116" viewBox="0 0 300 116" fill="none" xmlns="http://www.w3.org/2000/svg">
<path d="M113.004 40.968C114.612 40.248 116.088 39.456 117.432 38.592C118.8 37.752 119.88 36.96 120.672 36.216C121.488 35.472 121.896 34.884 121.896 34.452C121.896 33.492 121.152 30.636 119.664 25.884L124.524 23.94C125.124 25.596 125.592 27.36 125.928 29.232C126.264 31.08 126.432 32.82 126.432 34.452C126.432 36.948 125.496 39.228 123.624 41.292C121.752 43.356 119.16 45.132 115.848 46.62L113.004 40.968ZM129.782 35.784C130.07 33.984 130.214 31.44 130.214 28.152C130.214 24.864 130.082 21.384 129.818 17.712C129.578 14.04 129.302 11.316 128.99 9.54L134.57 8.28C134.81 9.936 135.026 12.456 135.218 15.84C135.41 19.2 135.506 22.524 135.506 25.812C135.506 30.348 135.314 33.852 134.93 36.324L129.782 35.784ZM149.761 15.516L154.693 27.18C155.029 27.996 155.401 28.548 155.809 28.836C156.241 29.1 156.901 29.232 157.789 29.232H158.257L158.617 32.616L158.257 36H157.789C156.085 36 154.681 35.508 153.577 34.524C152.473 33.516 151.453 31.944 150.517 29.808L145.297 17.928L149.761 15.516ZM139.969 28.44C140.713 28.8 141.529 29.124 142.417 29.412C143.329 29.676 144.433 29.808 145.729 29.808C146.857 29.808 147.817 29.688 148.609 29.448C149.401 29.184 150.013 28.896 150.445 28.584C150.877 28.272 151.153 27.996 151.273 27.756L154.297 31.644C153.817 32.604 152.953 33.612 151.705 34.668C150.481 35.7 148.717 36.216 146.413 36.216C143.437 36.216 140.521 35.196 137.665 33.156L139.969 28.44ZM157.823 29.232H159.767C161.999 29.232 163.583 29.052 164.519 28.692C165.479 28.332 165.959 27.828 165.959 27.18C165.959 26.58 165.299 24.696 163.979 21.528L168.551 19.008C169.031 20.016 169.511 21.372 169.991 23.076C170.495 24.756 170.747 26.268 170.747 27.612C170.747 30.3 169.907 32.376 168.227 33.84C166.547 35.28 164.087 36 160.847 36H157.823V29.232ZM158.255 38.844L161.639 42.228L159.371 44.496L158.255 45.612L157.139 44.496L154.871 42.228L158.255 38.844ZM164.483 38.844L167.867 42.228L165.599 44.496L164.483 45.612L163.367 44.496L161.099 42.228L164.483 38.844ZM175.266 28.44C176.082 28.8 176.946 29.124 177.858 29.412C178.77 29.676 179.826 29.808 181.026 29.808C182.298 29.784 183.342 29.664 184.158 29.448C184.998 29.232 185.574 28.992 185.886 28.728C185.238 26.376 182.718 23.76 178.326 20.88L181.53 14.94C184.386 16.86 186.666 19.056 188.37 21.528C190.074 23.976 190.926 26.34 190.926 28.62C190.926 29.628 190.722 30.636 190.314 31.644C189.69 33.132 188.574 34.272 186.966 35.064C185.358 35.832 183.606 36.216 181.71 36.216C178.374 36.216 175.458 35.196 172.962 33.156L175.266 28.44Z" fill="url(#paint0_linear_258_3207)"/>
<line y1="57.5" x2="192" y2="57.5" stroke="url(#paint1_linear_258_3207)"/>
<path d="M8.84773 82.898C10.3411 82.5713 11.4471 82.128 12.1657 81.568C12.8844 81.0173 13.2437 80.322 13.2437 79.482C13.2344 78.9313 13.1597 78.3853 13.0197 77.844C12.8797 77.3027 12.6744 76.85 12.4037 76.486C12.1331 76.1127 11.8111 75.912 11.4377 75.884C11.2324 75.8747 11.0317 75.9587 10.8357 76.136C10.6397 76.3133 10.4811 76.542 10.3597 76.822C10.2384 77.102 10.1777 77.368 10.1777 77.62C10.1777 77.8253 10.2197 77.998 10.3037 78.138C10.4531 78.362 10.7051 78.53 11.0597 78.642C11.4237 78.754 11.8391 78.81 12.3057 78.81C12.7537 78.81 13.1644 78.768 13.5377 78.684V79.874C13.1364 79.986 12.6697 80.042 12.1377 80.042C11.5217 80.042 10.9664 79.9487 10.4717 79.762C9.97707 79.566 9.6224 79.258 9.40773 78.838C9.2584 78.5393 9.18373 78.1893 9.18373 77.788C9.18373 77.3027 9.2864 76.8173 9.49173 76.332C9.7064 75.8467 9.9864 75.4453 10.3317 75.128C10.6864 74.8107 11.0644 74.652 11.4657 74.652C12.0164 74.652 12.5017 74.8947 12.9217 75.38C13.3417 75.8653 13.6637 76.4767 13.8877 77.214C14.1117 77.942 14.2237 78.6607 14.2237 79.37C14.2237 80.5273 13.7804 81.512 12.8937 82.324C12.0164 83.136 10.7891 83.7007 9.21173 84.018L8.84773 82.898ZM24.1317 72.986L26.0497 77.522C26.2364 77.9793 26.4464 78.2967 26.6797 78.474C26.9224 78.6513 27.249 78.74 27.6597 78.74H27.8137L27.8837 79.37L27.8137 80H27.6597C27.0717 80 26.5677 79.8507 26.1477 79.552C25.7277 79.244 25.373 78.7587 25.0837 78.096L23.1237 73.518L24.1317 72.986ZM20.6457 78.124C21.0097 78.3387 21.3597 78.516 21.6957 78.656C22.0317 78.7867 22.433 78.852 22.8997 78.852C23.4784 78.852 23.9637 78.7633 24.3557 78.586C24.7477 78.3993 25.1304 78.1707 25.5037 77.9L26.0637 78.698C25.8024 78.9407 25.555 79.1507 25.3217 79.328C25.0884 79.5053 24.771 79.6733 24.3697 79.832C23.9684 79.9813 23.511 80.056 22.9977 80.056C22.363 80.056 21.817 79.958 21.3597 79.762C20.9024 79.566 20.4824 79.328 20.0997 79.048L20.6457 78.124ZM27.6761 78.74H27.8021C28.5208 78.74 29.0808 78.712 29.4821 78.656C29.8834 78.5907 30.1774 78.4927 30.3641 78.362C30.5508 78.2313 30.6861 78.054 30.7701 77.83C30.8261 77.662 30.8541 77.4613 30.8541 77.228C30.8541 76.9293 30.7981 76.416 30.6861 75.688L31.7221 75.492C31.8341 76.08 31.8948 76.8267 31.9041 77.732C32.0348 78.404 32.4594 78.74 33.1781 78.74H33.2761L33.3461 79.37L33.2761 80H33.1781C32.7114 80 32.3008 79.8647 31.9461 79.594C31.6008 79.314 31.3581 78.9593 31.2181 78.53L31.4981 78.586C31.3768 78.9407 31.1761 79.2207 30.8961 79.426C30.6161 79.6313 30.2288 79.7807 29.7341 79.874C29.2488 79.958 28.6048 80 27.8021 80H27.6761V78.74ZM27.2981 81.946L27.9281 81.316L28.8661 82.254L27.9281 83.206L26.9901 82.254L27.2981 81.946ZM29.7901 81.946L30.4201 81.316L31.3581 82.254L30.4201 83.206L29.4821 82.254L29.7901 81.946ZM33.1312 78.74H33.6912C34.6898 78.74 35.3945 78.6467 35.8052 78.46C36.2158 78.264 36.4212 77.9467 36.4212 77.508C36.4118 77.2187 36.3138 76.78 36.1272 76.192C35.9498 75.5947 35.7958 75.1653 35.6652 74.904L36.6732 74.372C36.8598 74.736 37.0418 75.2307 37.2192 75.856C37.4058 76.472 37.4992 77.0087 37.4992 77.466C37.4992 78.2967 37.1958 78.9267 36.5892 79.356C35.9825 79.7853 35.0678 80 33.8452 80H33.1312V78.74ZM33.8312 72.244L34.4612 71.614L35.3992 72.552L34.4612 73.504L33.5232 72.552L33.8312 72.244ZM36.3232 72.244L36.9532 71.614L37.8912 72.552L36.9532 73.504L36.0152 72.552L36.3232 72.244ZM40.1684 70.256C40.243 70.732 40.299 71.5673 40.3364 72.762C40.383 73.9473 40.4064 75.0253 40.4064 75.996V76.584L40.3924 77.074C40.3924 77.5127 40.4297 77.8487 40.5044 78.082C40.579 78.306 40.719 78.474 40.9244 78.586C41.139 78.6887 41.4564 78.74 41.8764 78.74H41.9464L42.0164 79.37L41.9464 80H41.8764C41.2137 80 40.6957 79.8927 40.3224 79.678C39.949 79.454 39.683 79.1227 39.5244 78.684C39.375 78.2453 39.3004 77.6667 39.3004 76.948C39.3004 75.884 39.277 74.68 39.2304 73.336C39.193 71.9827 39.1324 71.0353 39.0484 70.494L40.1684 70.256ZM49.6528 78.74C50.3528 78.74 50.7028 78.3527 50.7028 77.578C50.7028 77.2607 50.6095 76.8173 50.4228 76.248C50.2455 75.6693 50.0868 75.2307 49.9468 74.932L50.9408 74.386C51.1275 74.778 51.3141 75.2913 51.5008 75.926C51.6875 76.5513 51.7808 77.102 51.7808 77.578C51.7808 78.0353 51.6875 78.4507 51.5008 78.824C51.3235 79.188 51.0715 79.4773 50.7448 79.692C50.4275 79.8973 50.0635 80 49.6528 80H49.6248V78.74H49.6528ZM45.8448 80V78.74H45.8868C46.4095 78.74 46.8575 78.4133 47.2308 77.76C47.3521 77.536 47.4455 77.27 47.5108 76.962C47.5855 76.654 47.6555 76.3133 47.7208 75.94L48.7568 75.996C48.7475 76.0333 48.7148 76.206 48.6588 76.514C48.6028 76.822 48.5748 77.1207 48.5748 77.41C48.5748 77.858 48.6588 78.194 48.8268 78.418C49.0041 78.6327 49.2795 78.74 49.6528 78.74H49.6808L49.7508 79.37L49.6808 80H49.6528C49.1115 80 48.6775 79.8413 48.3508 79.524C48.0335 79.1973 47.8421 78.7447 47.7768 78.166L48.0008 78.152C47.8048 78.684 47.5155 79.1273 47.1328 79.482C46.7595 79.8273 46.3395 80 45.8728 80H45.8448ZM41.8408 80L41.7708 79.37L41.8408 78.74H41.9108C42.2561 78.74 42.5828 78.6607 42.8908 78.502C43.1988 78.3433 43.4368 78.1333 43.6048 77.872C43.7821 77.62 43.9175 77.354 44.0108 77.074C44.1135 76.794 44.2161 76.4627 44.3188 76.08L45.3688 76.192C45.3501 76.248 45.3128 76.388 45.2568 76.612C45.2008 76.836 45.1541 77.046 45.1168 77.242C45.0888 77.438 45.0748 77.6153 45.0748 77.774C45.0748 78.418 45.3361 78.74 45.8588 78.74H45.8868L45.9568 79.37L45.8868 80H45.8448C45.4155 80 45.0561 79.874 44.7668 79.622C44.4868 79.3607 44.3188 79.0107 44.2628 78.572C43.9735 79.0387 43.6281 79.3933 43.2268 79.636C42.8255 79.8787 42.3821 80 41.8968 80H41.8408ZM53.3938 79.916C53.4591 79.356 53.4918 78.4087 53.4918 77.074C53.4918 75.8047 53.4638 74.4933 53.4078 73.14C53.3611 71.7773 53.3051 70.8953 53.2398 70.494L54.3598 70.256C54.4158 70.6853 54.4718 71.6233 54.5278 73.07C54.5931 74.5073 54.6258 75.8747 54.6258 77.172C54.6258 78.4787 54.5931 79.44 54.5278 80.056L53.3938 79.916ZM59.3828 82.926C59.9801 82.7207 60.5215 82.45 61.0068 82.114C61.4921 81.778 61.8701 81.4187 62.1408 81.036C62.4208 80.6533 62.5608 80.294 62.5608 79.958C62.5608 79.482 62.3228 78.3153 61.8468 76.458L62.9248 76.052C63.1301 76.7147 63.2981 77.4147 63.4288 78.152C63.5688 78.8893 63.6388 79.4913 63.6388 79.958C63.6388 80.5087 63.4755 81.0453 63.1488 81.568C62.8221 82.1 62.3695 82.576 61.7908 82.996C61.2215 83.4253 60.5775 83.766 59.8588 84.018L59.3828 82.926ZM64.6153 82.898C66.1086 82.5713 67.2146 82.128 67.9333 81.568C68.652 81.0173 69.0113 80.322 69.0113 79.482C69.0113 78.9407 68.9413 78.3993 68.8013 77.858C68.6613 77.3073 68.4513 76.85 68.1713 76.486C67.9006 76.1127 67.5786 75.912 67.2053 75.884C67 75.8747 66.7993 75.9587 66.6033 76.136C66.4073 76.3133 66.2486 76.542 66.1273 76.822C66.006 77.102 65.9453 77.368 65.9453 77.62C65.9453 77.8253 65.9873 77.998 66.0713 78.138C66.2206 78.3807 66.5706 78.544 67.1213 78.628C67.672 78.7027 68.3813 78.74 69.2493 78.74H70.4813L70.5513 79.37L70.4813 80L68.7873 80.014C67.8353 80.014 67.056 79.9347 66.4493 79.776C65.8426 79.6173 65.418 79.3047 65.1753 78.838C65.026 78.5393 64.9513 78.1893 64.9513 77.788C64.9513 77.3027 65.054 76.8173 65.2593 76.332C65.474 75.8467 65.754 75.4453 66.0993 75.128C66.454 74.8107 66.832 74.652 67.2333 74.652C67.784 74.652 68.2693 74.8947 68.6893 75.38C69.1093 75.8653 69.4313 76.4767 69.6553 77.214C69.8793 77.942 69.9913 78.6607 69.9913 79.37C69.9913 80.5273 69.548 81.512 68.6613 82.324C67.784 83.136 66.5566 83.7007 64.9793 84.018L64.6153 82.898ZM82.597 78.74L82.667 79.37L82.597 80H82.513C81.3837 80 80.5717 79.9767 80.077 79.93C79.5823 79.8833 79.1997 79.7713 78.929 79.594L79.251 79.258C79.6617 79.1367 80.1843 79.02 80.819 78.908C81.463 78.796 82.0323 78.74 82.527 78.74H82.597ZM70.291 78.74H70.501C70.977 78.74 71.3643 78.6373 71.663 78.432C71.9617 78.2267 72.1997 77.9047 72.377 77.466C72.5543 77.018 72.6943 76.4207 72.797 75.674L73.819 75.884C73.7723 76.2573 73.749 76.5653 73.749 76.808C73.749 77.6107 73.959 78.1847 74.379 78.53C74.8083 78.866 75.4757 79.034 76.381 79.034C77.249 79.034 78.0237 78.9313 78.705 78.726C79.3863 78.5207 79.9137 78.25 80.287 77.914C80.6697 77.578 80.861 77.2187 80.861 76.836C80.861 76.4907 80.7303 76.2107 80.469 75.996C80.2077 75.772 79.8437 75.66 79.377 75.66C78.6117 75.66 77.8417 75.996 77.067 76.668C76.3017 77.34 75.583 78.2873 74.911 79.51L74.043 78.978C74.771 77.5687 75.597 76.4627 76.521 75.66C77.4543 74.8573 78.3783 74.456 79.293 74.456C79.7783 74.456 80.217 74.5587 80.609 74.764C81.0103 74.9693 81.323 75.254 81.547 75.618C81.7803 75.9727 81.897 76.374 81.897 76.822C81.897 77.5127 81.6637 78.1193 81.197 78.642C80.7397 79.1647 80.105 79.5707 79.293 79.86C78.481 80.1493 77.5617 80.294 76.535 80.294C75.471 80.294 74.6637 80.1353 74.113 79.818C73.5717 79.4913 73.2263 79.048 73.077 78.488C72.8343 78.9733 72.517 79.3467 72.125 79.608C71.733 79.8693 71.187 80 70.487 80H70.291V78.74ZM77.809 72.468L78.145 72.132C78.5837 71.6933 78.803 71.474 78.803 71.474C78.803 71.474 79.0223 71.6933 79.461 72.132L79.797 72.468L78.803 73.462L77.809 72.468ZM82.4453 78.74H83.7333C84.9 78.74 85.9873 78.6 86.9953 78.32C88.0126 78.0307 89.03 77.6153 90.0473 77.074C90.6166 76.766 91.1766 76.5327 91.7273 76.374L91.7693 76.878C91.2373 76.878 90.7286 76.8173 90.2433 76.696C89.7673 76.5747 89.2726 76.3833 88.7593 76.122C88.3113 75.8887 87.91 75.7113 87.5553 75.59C87.2006 75.4687 86.8506 75.408 86.5053 75.408C86.1133 75.408 85.7586 75.5247 85.4413 75.758C85.124 75.9913 84.886 76.2667 84.7273 76.584L83.9713 76.066C84.27 75.4593 84.6386 75.002 85.0773 74.694C85.516 74.3767 86.006 74.218 86.5473 74.218C86.9393 74.218 87.3033 74.2833 87.6393 74.414C87.9846 74.5447 88.4933 74.778 89.1653 75.114C89.7906 75.4313 90.2806 75.6693 90.6353 75.828C90.9993 75.9773 91.41 76.0987 91.8673 76.192L91.9093 77.298C91.7226 77.354 91.5266 77.4287 91.3213 77.522C91.1253 77.6153 90.8406 77.7647 90.4673 77.97C89.2073 78.6327 88.064 79.1367 87.0373 79.482C86.02 79.8273 84.9186 80 83.7333 80H82.4453V78.74ZM101.679 72.986L103.597 77.522C103.783 77.9793 103.993 78.2967 104.227 78.474C104.469 78.6513 104.796 78.74 105.207 78.74H105.361L105.431 79.37L105.361 80H105.207C104.619 80 104.115 79.8507 103.695 79.552C103.275 79.244 102.92 78.7587 102.631 78.096L100.671 73.518L101.679 72.986ZM98.1926 78.124C98.5566 78.3387 98.9066 78.516 99.2426 78.656C99.5786 78.7867 99.9799 78.852 100.447 78.852C101.025 78.852 101.511 78.7633 101.903 78.586C102.295 78.3993 102.677 78.1707 103.051 77.9L103.611 78.698C103.349 78.9407 103.102 79.1507 102.869 79.328C102.635 79.5053 102.318 79.6733 101.917 79.832C101.515 79.9813 101.058 80.056 100.545 80.056C99.9099 80.056 99.3639 79.958 98.9066 79.762C98.4492 79.566 98.0292 79.328 97.6466 79.048L98.1926 78.124ZM105.223 78.74H105.335C106.007 78.74 106.52 78.67 106.875 78.53C107.23 78.3807 107.468 78.1473 107.589 77.83C107.636 77.6993 107.659 77.5173 107.659 77.284C107.659 77.0507 107.622 76.654 107.547 76.094L107.491 75.688L108.513 75.492C108.634 76.08 108.695 76.8267 108.695 77.732C108.76 78.0587 108.905 78.3107 109.129 78.488C109.353 78.656 109.633 78.74 109.969 78.74H110.081L110.151 79.37L110.081 80H109.969C109.502 80 109.092 79.8647 108.737 79.594C108.392 79.314 108.149 78.9593 108.009 78.53L108.303 78.586C108.126 79.0993 107.794 79.4633 107.309 79.678C106.833 79.8927 106.175 80 105.335 80H105.223V78.74ZM106.021 73.336L106.357 73C106.796 72.5613 107.015 72.342 107.015 72.342C107.015 72.342 107.234 72.5613 107.673 73L108.009 73.336L107.015 74.33L106.021 73.336ZM109.94 78.74H110.22C111.004 78.74 111.624 78.306 112.082 77.438C112.539 76.598 112.964 75.954 113.356 75.506C113.748 75.0487 114.191 74.806 114.686 74.778C115.759 74.722 116.487 75.4593 116.87 76.99C117.019 77.6153 117.178 78.0633 117.346 78.334C117.514 78.6047 117.747 78.74 118.046 78.74H118.172L118.242 79.37L118.172 80H118.046C117.355 80 116.907 79.6173 116.702 78.852C116.674 79.076 116.576 79.286 116.408 79.482C116.249 79.678 116.072 79.8273 115.876 79.93C115.717 80.0233 115.521 80.07 115.288 80.07C114.616 80.07 113.668 79.6733 112.446 78.88C112.166 79.244 111.83 79.524 111.438 79.72C111.055 79.9067 110.64 80 110.192 80H109.94V78.74ZM113.006 77.872C113.528 78.236 114.009 78.5113 114.448 78.698C114.896 78.8753 115.25 78.964 115.512 78.964C115.605 78.964 115.68 78.95 115.736 78.922C115.941 78.726 116.044 78.4087 116.044 77.97C116.044 77.662 115.988 77.3493 115.876 77.032C115.773 76.7147 115.624 76.4533 115.428 76.248C115.241 76.0333 115.026 75.926 114.784 75.926C114.504 75.926 114.214 76.0987 113.916 76.444C113.626 76.7893 113.323 77.2653 113.006 77.872ZM125.874 78.74C126.574 78.74 126.924 78.3527 126.924 77.578C126.924 77.2607 126.83 76.8173 126.644 76.248C126.466 75.6693 126.308 75.2307 126.168 74.932L127.162 74.386C127.348 74.778 127.535 75.2913 127.722 75.926C127.908 76.5513 128.002 77.102 128.002 77.578C128.002 78.0353 127.908 78.4507 127.722 78.824C127.544 79.188 127.292 79.4773 126.966 79.692C126.648 79.8973 126.284 80 125.874 80H125.846V78.74H125.874ZM122.066 80V78.74H122.108C122.63 78.74 123.078 78.4133 123.452 77.76C123.573 77.536 123.666 77.27 123.732 76.962C123.806 76.654 123.876 76.3133 123.942 75.94L124.978 75.996C124.968 76.0333 124.936 76.206 124.88 76.514C124.824 76.822 124.796 77.1207 124.796 77.41C124.796 77.858 124.88 78.194 125.048 78.418C125.225 78.6327 125.5 78.74 125.874 78.74H125.902L125.972 79.37L125.902 80H125.874C125.332 80 124.898 79.8413 124.572 79.524C124.254 79.1973 124.063 78.7447 123.998 78.166L124.222 78.152C124.026 78.684 123.736 79.1273 123.354 79.482C122.98 79.8273 122.56 80 122.094 80H122.066ZM118.062 80L117.992 79.37L118.062 78.74H118.132C118.477 78.74 118.804 78.6607 119.112 78.502C119.42 78.3433 119.658 78.1333 119.826 77.872C120.003 77.62 120.138 77.354 120.232 77.074C120.334 76.794 120.437 76.4627 120.54 76.08L121.59 76.192C121.571 76.248 121.534 76.388 121.478 76.612C121.422 76.836 121.375 77.046 121.338 77.242C121.31 77.438 121.296 77.6153 121.296 77.774C121.296 78.418 121.557 78.74 122.08 78.74H122.108L122.178 79.37L122.108 80H122.066C121.636 80 121.277 79.874 120.988 79.622C120.708 79.3607 120.54 79.0107 120.484 78.572C120.194 79.0387 119.849 79.3933 119.448 79.636C119.046 79.8787 118.603 80 118.118 80H118.062ZM124.488 70.592L125.328 71.446L124.488 72.286L123.648 71.446L124.488 70.592ZM125.776 72.02L126.728 72.972L125.776 73.91C125.468 73.5927 125.155 73.28 124.838 72.972L125.776 72.02ZM123.2 72.02L124.152 72.972L123.2 73.91C122.892 73.5927 122.579 73.28 122.262 72.972L123.2 72.02ZM128.9 82.898C130.394 82.5713 131.5 82.128 132.218 81.568C132.937 81.0173 133.296 80.322 133.296 79.482C133.296 78.9407 133.226 78.3993 133.086 77.858C132.946 77.3073 132.736 76.85 132.456 76.486C132.186 76.1127 131.864 75.912 131.49 75.884C131.285 75.8747 131.084 75.9587 130.888 76.136C130.692 76.3133 130.534 76.542 130.412 76.822C130.291 77.102 130.23 77.368 130.23 77.62C130.23 77.8253 130.272 77.998 130.356 78.138C130.506 78.3807 130.856 78.544 131.406 78.628C131.957 78.7027 132.666 78.74 133.534 78.74H134.766L134.836 79.37L134.766 80L133.072 80.014C132.12 80.014 131.341 79.9347 130.734 79.776C130.128 79.6173 129.703 79.3047 129.46 78.838C129.311 78.5393 129.236 78.1893 129.236 77.788C129.236 77.3027 129.339 76.8173 129.544 76.332C129.759 75.8467 130.039 75.4453 130.384 75.128C130.739 74.8107 131.117 74.652 131.518 74.652C132.069 74.652 132.554 74.8947 132.974 75.38C133.394 75.8653 133.716 76.4767 133.94 77.214C134.164 77.942 134.276 78.6607 134.276 79.37C134.276 80.5273 133.833 81.512 132.946 82.324C132.069 83.136 130.842 83.7007 129.264 84.018L128.9 82.898ZM134.618 78.74H134.814C136.307 78.74 137.409 78.6 138.118 78.32C138.827 78.04 139.229 77.5967 139.322 76.99C139.331 76.934 139.336 76.8547 139.336 76.752C139.336 76.3413 139.224 75.982 139 75.674C138.785 75.366 138.496 75.212 138.132 75.212C137.908 75.212 137.684 75.2913 137.46 75.45C137.245 75.6087 137.068 75.814 136.928 76.066C136.788 76.3087 136.718 76.5467 136.718 76.78C136.718 77.1533 136.919 77.508 137.32 77.844C137.721 78.1707 138.216 78.432 138.804 78.628C139.401 78.824 139.966 78.922 140.498 78.922C140.89 78.922 141.217 78.8613 141.478 78.74C141.749 78.6187 141.926 78.4367 142.01 78.194C142.038 78.1193 142.052 78.04 142.052 77.956C142.052 77.6293 141.861 77.2793 141.478 76.906C141.105 76.5327 140.489 76.1453 139.63 75.744C138.771 75.3427 137.661 74.9553 136.298 74.582L136.732 73.406C138.403 73.9753 139.7 74.5073 140.624 75.002C141.557 75.4967 142.197 75.9633 142.542 76.402C142.897 76.8407 143.074 77.2887 143.074 77.746C143.074 77.9793 143.023 78.2827 142.92 78.656C142.78 79.1133 142.481 79.4587 142.024 79.692C141.567 79.916 141.016 80.028 140.372 80.028C139.635 80.028 138.893 79.888 138.146 79.608C137.399 79.328 136.788 78.9453 136.312 78.46C135.845 77.9747 135.635 77.438 135.682 76.85C135.719 76.3927 135.864 75.9493 136.116 75.52C136.368 75.0907 136.676 74.7453 137.04 74.484C137.413 74.2133 137.791 74.078 138.174 74.078C138.557 74.078 138.916 74.204 139.252 74.456C139.588 74.708 139.854 75.0393 140.05 75.45C140.246 75.8607 140.344 76.29 140.344 76.738C140.344 76.8313 140.335 76.962 140.316 77.13C140.167 78.1567 139.653 78.894 138.776 79.342C137.899 79.7807 136.578 80 134.814 80H134.618V78.74ZM154.292 80.14C154.282 80 154.278 79.79 154.278 79.51C154.278 79.23 154.282 79.02 154.292 78.88C155.43 78.88 156.359 78.7867 157.078 78.6C157.796 78.404 158.361 78.1053 158.772 77.704C159.192 77.2933 159.514 76.752 159.738 76.08L160.774 76.192C160.615 76.7147 160.536 77.1533 160.536 77.508C160.536 78.3293 160.937 78.74 161.74 78.74L161.81 79.37L161.74 80C161.114 80 160.601 79.804 160.2 79.412C159.808 79.02 159.612 78.4927 159.612 77.83H159.892C159.378 78.642 158.66 79.23 157.736 79.594C156.821 79.958 155.673 80.14 154.292 80.14ZM150.54 75.282C150.278 76.01 150.148 76.584 150.148 77.004C150.148 77.1347 150.152 77.2327 150.162 77.298C150.236 77.802 150.624 78.194 151.324 78.474C152.024 78.7447 153.036 78.88 154.362 78.88C154.38 79.0387 154.39 79.272 154.39 79.58C154.39 79.832 154.385 80.0187 154.376 80.14C152.752 80.1493 151.482 79.9253 150.568 79.468C149.662 79.0013 149.168 78.3387 149.084 77.48C149.074 77.4053 149.07 77.298 149.07 77.158C149.07 76.766 149.116 76.36 149.21 75.94C149.312 75.5107 149.438 75.1327 149.588 74.806L150.54 75.282ZM152.752 74.764L153.382 74.134L154.32 75.072L153.382 76.024L152.444 75.072L152.752 74.764ZM155.244 74.764L155.874 74.134L156.812 75.072L155.874 76.024L154.936 75.072L155.244 74.764ZM161.606 78.74H162.166C163.164 78.74 163.869 78.6467 164.28 78.46C164.69 78.264 164.896 77.9467 164.896 77.508C164.886 77.2187 164.788 76.78 164.602 76.192C164.424 75.5947 164.27 75.1653 164.14 74.904L165.148 74.372C165.334 74.736 165.516 75.2307 165.694 75.856C165.88 76.472 165.974 77.0087 165.974 77.466C165.974 78.2967 165.67 78.9267 165.064 79.356C164.457 79.7853 163.542 80 162.32 80H161.606V78.74ZM161.13 81.974L161.76 81.344L162.698 82.282L161.76 83.234L160.822 82.282L161.13 81.974ZM163.622 81.974L164.252 81.344L165.19 82.282L164.252 83.234L163.314 82.282L163.622 81.974ZM171.176 80C170.598 80 170.15 79.7993 169.832 79.398C169.515 78.9967 169.249 78.418 169.034 77.662L169.818 77.186C169.958 77.7553 170.126 78.1567 170.322 78.39C170.528 78.6233 170.812 78.74 171.176 78.74H171.274L171.344 79.37L171.274 80H171.176ZM165.982 82.926C166.58 82.7207 167.121 82.45 167.606 82.114C168.092 81.778 168.47 81.4187 168.74 81.036C169.02 80.6533 169.16 80.294 169.16 79.958C169.16 79.482 168.922 78.3153 168.446 76.458L169.524 76.052C169.73 76.7147 169.898 77.4147 170.028 78.152C170.168 78.8893 170.238 79.4913 170.238 79.958C170.238 80.5087 170.075 81.0453 169.748 81.568C169.422 82.1 168.969 82.576 168.39 82.996C167.821 83.4253 167.177 83.766 166.458 84.018L165.982 82.926ZM171.415 78.74H171.975C172.974 78.74 173.678 78.6467 174.089 78.46C174.5 78.264 174.705 77.9467 174.705 77.508C174.696 77.2187 174.598 76.78 174.411 76.192C174.234 75.5947 174.08 75.1653 173.949 74.904L174.957 74.372C175.144 74.736 175.326 75.2307 175.503 75.856C175.69 76.472 175.783 77.0087 175.783 77.466C175.783 78.2967 175.48 78.9267 174.873 79.356C174.266 79.7853 173.352 80 172.129 80H171.415V78.74ZM171.597 81.946L172.227 81.316L173.165 82.254L172.227 83.206L171.289 82.254L171.597 81.946ZM174.089 81.946L174.719 81.316L175.657 82.254L174.719 83.206L173.781 82.254L174.089 81.946ZM171.177 80L171.107 79.37L171.177 78.74H171.541V80H171.177ZM180.811 72.986L182.729 77.522C182.916 77.9793 183.126 78.2967 183.359 78.474C183.602 78.6513 183.929 78.74 184.339 78.74H184.493L184.563 79.37L184.493 80H184.339C183.751 80 183.247 79.8507 182.827 79.552C182.407 79.244 182.053 78.7587 181.763 78.096L179.803 73.518L180.811 72.986ZM177.325 78.124C177.689 78.3387 178.039 78.516 178.375 78.656C178.711 78.7867 179.113 78.852 179.579 78.852C180.158 78.852 180.643 78.7633 181.035 78.586C181.427 78.3993 181.81 78.1707 182.183 77.9L182.743 78.698C182.482 78.9407 182.235 79.1507 182.001 79.328C181.768 79.5053 181.451 79.6733 181.049 79.832C180.648 79.9813 180.191 80.056 179.677 80.056C179.043 80.056 178.497 79.958 178.039 79.762C177.582 79.566 177.162 79.328 176.779 79.048L177.325 78.124ZM187.044 77.634C187.632 78.0353 188.159 78.3433 188.626 78.558C189.092 78.7727 189.452 78.88 189.704 78.88C189.788 78.88 189.867 78.8613 189.942 78.824C190.11 78.74 190.236 78.6 190.32 78.404C190.404 78.208 190.446 77.984 190.446 77.732C190.446 77.2747 190.329 76.8593 190.096 76.486C189.872 76.1127 189.573 75.926 189.2 75.926C188.91 75.926 188.602 76.1313 188.276 76.542C187.949 76.9433 187.59 77.536 187.198 78.32C186.918 78.8707 186.554 79.2907 186.106 79.58C185.667 79.86 185.168 80 184.608 80H184.356L184.37 78.74H184.636C185.018 78.74 185.368 78.6327 185.686 78.418C186.012 78.194 186.283 77.8673 186.498 77.438C186.89 76.6447 187.296 76.01 187.716 75.534C188.136 75.058 188.598 74.806 189.102 74.778C189.568 74.75 189.979 74.876 190.334 75.156C190.698 75.4267 190.973 75.7907 191.16 76.248C191.356 76.696 191.454 77.1673 191.454 77.662C191.454 78.1567 191.356 78.6093 191.16 79.02C190.964 79.4213 190.674 79.7247 190.292 79.93C190.133 80.0233 189.932 80.07 189.69 80.07C188.98 80.07 187.93 79.608 186.54 78.684L187.044 77.634ZM51.798 97.584C51.2753 98.6853 51.014 99.6467 51.014 100.468C51.014 101.355 51.2753 102.031 51.798 102.498C52.3207 102.965 53.072 103.198 54.052 103.198C54.808 103.198 55.438 103.058 55.942 102.778C56.4553 102.507 56.8333 102.157 57.076 101.728C57.3187 101.308 57.44 100.865 57.44 100.398C57.44 99.6233 57.1833 98.4567 56.67 96.898L57.706 96.422C57.9767 97.2807 58.1773 98.0227 58.308 98.648C58.4387 99.264 58.504 99.8473 58.504 100.398C58.504 101.07 58.3267 101.719 57.972 102.344C57.6267 102.969 57.118 103.478 56.446 103.87C55.774 104.262 54.976 104.458 54.052 104.458C53.1653 104.458 52.4093 104.281 51.784 103.926C51.168 103.571 50.7013 103.1 50.384 102.512C50.076 101.924 49.922 101.28 49.922 100.58C49.922 100.02 50.0153 99.432 50.202 98.816C50.3887 98.2 50.6033 97.64 50.846 97.136L51.798 97.584ZM53.352 96.632L53.688 96.296C54.1267 95.8573 54.346 95.638 54.346 95.638C54.346 95.638 54.5653 95.8573 55.004 96.296L55.34 96.632L54.346 97.626L53.352 96.632ZM60.9906 91.256C61.0653 91.732 61.1213 92.5673 61.1586 93.762C61.2053 94.9473 61.2286 96.0253 61.2286 96.996V97.584L61.2146 98.074C61.2146 98.5127 61.252 98.8487 61.3266 99.082C61.4013 99.306 61.5413 99.474 61.7466 99.586C61.9613 99.6887 62.2786 99.74 62.6986 99.74H62.7686L62.8386 100.37L62.7686 101H62.6986C62.036 101 61.518 100.893 61.1446 100.678C60.7713 100.454 60.5053 100.123 60.3466 99.684C60.1973 99.2453 60.1226 98.6667 60.1226 97.948C60.1226 96.884 60.0993 95.68 60.0526 94.336C60.0153 92.9827 59.9546 92.0353 59.8706 91.494L60.9906 91.256ZM62.6351 99.74H63.1951C64.1937 99.74 64.8984 99.6467 65.3091 99.46C65.7197 99.264 65.9251 98.9467 65.9251 98.508C65.9157 98.2187 65.8177 97.78 65.6311 97.192C65.4537 96.5947 65.2997 96.1653 65.1691 95.904L66.1771 95.372C66.3637 95.736 66.5457 96.2307 66.7231 96.856C66.9097 97.472 67.0031 98.0087 67.0031 98.466C67.0031 99.2967 66.6997 99.9267 66.0931 100.356C65.4864 100.785 64.5717 101 63.3491 101H62.6351V99.74ZM62.1591 102.974L62.7891 102.344L63.7271 103.282L62.7891 104.234L61.8511 103.282L62.1591 102.974ZM64.6511 102.974L65.2811 102.344L66.2191 103.282L65.2811 104.234L64.3431 103.282L64.6511 102.974ZM67.9923 103.898C69.4856 103.571 70.5916 103.128 71.3103 102.568C72.0289 102.017 72.3883 101.322 72.3883 100.482C72.3883 99.9407 72.3183 99.3993 72.1783 98.858C72.0383 98.3073 71.8283 97.85 71.5483 97.486C71.2776 97.1127 70.9556 96.912 70.5823 96.884C70.3769 96.8747 70.1763 96.9587 69.9803 97.136C69.7843 97.3133 69.6256 97.542 69.5043 97.822C69.3829 98.102 69.3223 98.368 69.3223 98.62C69.3223 98.8253 69.3643 98.998 69.4483 99.138C69.5976 99.3807 69.9476 99.544 70.4983 99.628C71.0489 99.7027 71.7583 99.74 72.6263 99.74H73.8583L73.9283 100.37L73.8583 101L72.1643 101.014C71.2123 101.014 70.4329 100.935 69.8263 100.776C69.2196 100.617 68.7949 100.305 68.5523 99.838C68.4029 99.5393 68.3283 99.1893 68.3283 98.788C68.3283 98.3027 68.4309 97.8173 68.6363 97.332C68.8509 96.8467 69.1309 96.4453 69.4763 96.128C69.8309 95.8107 70.2089 95.652 70.6103 95.652C71.1609 95.652 71.6463 95.8947 72.0663 96.38C72.4863 96.8653 72.8083 97.4767 73.0323 98.214C73.2563 98.942 73.3683 99.6607 73.3683 100.37C73.3683 101.527 72.9249 102.512 72.0383 103.324C71.1609 104.136 69.9336 104.701 68.3563 105.018L67.9923 103.898ZM84.42 99.74L84.49 100.37L84.42 101H84.28C83.356 100.991 82.6186 100.799 82.068 100.426C81.5266 100.053 81.1626 99.4833 80.976 98.718L81.704 98.186C81.8066 98.6433 82.082 99.0167 82.53 99.306C82.9873 99.586 83.5706 99.7307 84.28 99.74H84.42ZM73.668 99.74H74.956C76.1226 99.74 77.21 99.6 78.218 99.32C79.2353 99.0307 80.2526 98.6153 81.27 98.074C81.8393 97.766 82.3993 97.5327 82.95 97.374L82.992 97.878C82.46 97.878 81.9513 97.8173 81.466 97.696C80.99 97.5747 80.4953 97.3833 79.982 97.122C79.534 96.8887 79.1326 96.7113 78.778 96.59C78.4233 96.4687 78.0733 96.408 77.728 96.408C77.336 96.408 76.9813 96.5247 76.664 96.758C76.3466 96.9913 76.1086 97.2667 75.95 97.584L75.194 97.066C75.4926 96.4593 75.8613 96.002 76.3 95.694C76.7386 95.3767 77.2286 95.218 77.77 95.218C78.162 95.218 78.526 95.2833 78.862 95.414C79.2073 95.5447 79.716 95.778 80.388 96.114C81.0133 96.4313 81.5033 96.6693 81.858 96.828C82.222 96.9773 82.6326 97.0987 83.09 97.192L83.132 98.298C82.9453 98.354 82.7493 98.4287 82.544 98.522C82.348 98.6153 82.0633 98.7647 81.69 98.97C80.43 99.6327 79.2866 100.137 78.26 100.482C77.2426 100.827 76.1413 101 74.956 101H73.668V99.74ZM77.308 103.114L77.644 102.778C78.0826 102.339 78.302 102.12 78.302 102.12C78.302 102.12 78.5213 102.339 78.96 102.778L79.296 103.114L78.302 104.108L77.308 103.114ZM92.0897 99.74H92.1177C92.463 99.74 92.7757 99.642 93.0557 99.446C93.345 99.25 93.5037 99.026 93.5317 98.774L94.3017 98.914C94.2643 99.306 94.1383 99.6607 93.9237 99.978C93.7183 100.295 93.457 100.547 93.1397 100.734C92.8223 100.911 92.4817 101 92.1177 101H92.0897V99.74ZM95.6877 99.74L95.7577 100.37L95.6877 101H95.6177C95.1043 101 94.6517 100.855 94.2597 100.566C93.8677 100.277 93.583 99.8613 93.4057 99.32C93.3123 99.0493 93.1397 98.256 92.8877 96.94L93.9097 96.674C94.115 97.8313 94.2737 98.5687 94.3857 98.886C94.479 99.1753 94.6237 99.39 94.8197 99.53C95.025 99.67 95.291 99.74 95.6177 99.74H95.6877ZM88.3097 101V99.74H88.3517C88.8743 99.74 89.3223 99.4133 89.6957 98.76C89.817 98.536 89.9103 98.27 89.9757 97.962C90.0503 97.654 90.1203 97.3133 90.1857 96.94L91.2217 96.996C91.2123 97.0333 91.1797 97.206 91.1237 97.514C91.0677 97.822 91.0397 98.1207 91.0397 98.41C91.0397 98.858 91.1237 99.194 91.2917 99.418C91.469 99.6327 91.7443 99.74 92.1177 99.74H92.1457L92.2157 100.37L92.1457 101H92.1177C91.5763 101 91.1423 100.841 90.8157 100.524C90.4983 100.197 90.307 99.7447 90.2417 99.166L90.4657 99.152C90.2697 99.684 89.9803 100.127 89.5977 100.482C89.2243 100.827 88.8043 101 88.3377 101H88.3097ZM84.3057 101L84.2357 100.37L84.3057 99.74H84.3757C84.721 99.74 85.0477 99.6607 85.3557 99.502C85.6637 99.3433 85.9017 99.1333 86.0697 98.872C86.247 98.62 86.3823 98.354 86.4757 98.074C86.5783 97.794 86.681 97.4627 86.7837 97.08L87.8337 97.192C87.815 97.248 87.7777 97.388 87.7217 97.612C87.6657 97.836 87.619 98.046 87.5817 98.242C87.5537 98.438 87.5397 98.6153 87.5397 98.774C87.5397 99.418 87.801 99.74 88.3237 99.74H88.3517L88.4217 100.37L88.3517 101H88.3097C87.8803 101 87.521 100.874 87.2317 100.622C86.9517 100.361 86.7837 100.011 86.7277 99.572C86.4383 100.039 86.093 100.393 85.6917 100.636C85.2903 100.879 84.847 101 84.3617 101H84.3057ZM90.8717 92.11L91.7117 92.964L90.8717 93.804L90.0317 92.964L90.8717 92.11ZM92.1597 93.538L93.1117 94.49L92.1597 95.428C91.8517 95.1107 91.539 94.798 91.2217 94.49L92.1597 93.538ZM89.5837 93.538L90.5357 94.49L89.5837 95.428C89.2757 95.1107 88.963 94.798 88.6457 94.49L89.5837 93.538ZM95.5296 99.74H96.2576C97.0043 99.74 97.5409 99.642 97.8676 99.446C98.2036 99.25 98.3716 98.9467 98.3716 98.536C98.3716 98.2467 98.2783 97.8033 98.0916 97.206C97.9049 96.6087 97.7509 96.1747 97.6296 95.904L98.6376 95.372C98.8149 95.764 98.9969 96.282 99.1836 96.926C99.3703 97.5607 99.4636 98.102 99.4636 98.55C99.4543 99.3527 99.1743 99.964 98.6236 100.384C98.0729 100.795 97.2843 101 96.2576 101H95.5296V99.74ZM96.7336 93.496L97.0696 93.16C97.5083 92.7213 97.7276 92.502 97.7276 92.502C97.7276 92.502 97.9469 92.7213 98.3856 93.16L98.7216 93.496L97.7276 94.49L96.7336 93.496ZM101.177 100.916C101.242 100.356 101.275 99.4087 101.275 98.074C101.275 96.8047 101.247 95.4933 101.191 94.14C101.144 92.7773 101.088 91.8953 101.023 91.494L102.143 91.256C102.199 91.6853 102.255 92.6233 102.311 94.07C102.376 95.5073 102.409 96.8747 102.409 98.172C102.409 99.4787 102.376 100.44 102.311 101.056L101.177 100.916ZM104.359 99.124C104.396 99.1427 104.531 99.222 104.765 99.362C105.007 99.4927 105.311 99.6047 105.675 99.698C106.048 99.7913 106.44 99.838 106.851 99.838C107.355 99.838 107.765 99.768 108.083 99.628C108.409 99.4787 108.619 99.3153 108.713 99.138C108.759 99.026 108.783 98.9093 108.783 98.788C108.783 98.3493 108.54 97.808 108.055 97.164C107.579 96.5107 106.851 95.8247 105.871 95.106L106.501 94.014C107.537 94.798 108.344 95.61 108.923 96.45C109.511 97.2807 109.805 98.06 109.805 98.788C109.805 99.124 109.744 99.4273 109.623 99.698C109.436 100.127 109.1 100.459 108.615 100.692C108.129 100.925 107.574 101.042 106.949 101.042C106.211 101.042 105.581 100.944 105.059 100.748C104.536 100.543 104.121 100.309 103.813 100.048L104.359 99.124ZM117.373 91.256C117.448 91.732 117.504 92.5673 117.541 93.762C117.588 94.9473 117.611 96.0253 117.611 96.996V97.584L117.597 98.074C117.597 98.5127 117.635 98.8487 117.709 99.082C117.784 99.306 117.924 99.474 118.129 99.586C118.344 99.6887 118.661 99.74 119.081 99.74H119.151L119.221 100.37L119.151 101H119.081C118.419 101 117.901 100.893 117.527 100.678C117.154 100.454 116.888 100.123 116.729 99.684C116.58 99.2453 116.505 98.6667 116.505 97.948C116.505 96.884 116.482 95.68 116.435 94.336C116.398 92.9827 116.337 92.0353 116.253 91.494L117.373 91.256ZM119.018 99.74H119.746C120.493 99.74 121.029 99.642 121.356 99.446C121.692 99.25 121.86 98.9467 121.86 98.536C121.86 98.2467 121.767 97.8033 121.58 97.206C121.393 96.6087 121.239 96.1747 121.118 95.904L122.126 95.372C122.303 95.764 122.485 96.282 122.672 96.926C122.859 97.5607 122.952 98.102 122.952 98.55C122.943 99.3527 122.663 99.964 122.112 100.384C121.561 100.795 120.773 101 119.746 101H119.018V99.74ZM119.06 103.296L119.396 102.96C119.835 102.521 120.054 102.302 120.054 102.302C120.054 102.302 120.273 102.521 120.712 102.96L121.048 103.296L120.054 104.29L119.06 103.296ZM130.89 97.584C130.367 98.6853 130.106 99.6467 130.106 100.468C130.106 101.355 130.367 102.031 130.89 102.498C131.412 102.965 132.164 103.198 133.144 103.198C133.9 103.198 134.53 103.058 135.034 102.778C135.547 102.507 135.925 102.157 136.168 101.728C136.41 101.308 136.532 100.865 136.532 100.398C136.532 99.6233 136.275 98.4567 135.762 96.898L136.798 96.422C137.068 97.2807 137.269 98.0227 137.4 98.648C137.53 99.264 137.596 99.8473 137.596 100.398C137.596 101.07 137.418 101.719 137.064 102.344C136.718 102.969 136.21 103.478 135.538 103.87C134.866 104.262 134.068 104.458 133.144 104.458C132.257 104.458 131.501 104.281 130.876 103.926C130.26 103.571 129.793 103.1 129.476 102.512C129.168 101.924 129.014 101.28 129.014 100.58C129.014 100.02 129.107 99.432 129.294 98.816C129.48 98.2 129.695 97.64 129.938 97.136L130.89 97.584ZM132.444 96.632L132.78 96.296C133.218 95.8573 133.438 95.638 133.438 95.638C133.438 95.638 133.657 95.8573 134.096 96.296L134.432 96.632L133.438 97.626L132.444 96.632ZM140.082 91.256C140.157 91.732 140.213 92.5673 140.25 93.762C140.297 94.9473 140.32 96.0253 140.32 96.996V97.584L140.306 98.074C140.306 98.5127 140.344 98.8487 140.418 99.082C140.493 99.306 140.633 99.474 140.838 99.586C141.053 99.6887 141.37 99.74 141.79 99.74H141.86L141.93 100.37L141.86 101H141.79C141.128 101 140.61 100.893 140.236 100.678C139.863 100.454 139.597 100.123 139.438 99.684C139.289 99.2453 139.214 98.6667 139.214 97.948C139.214 96.884 139.191 95.68 139.144 94.336C139.107 92.9827 139.046 92.0353 138.962 91.494L140.082 91.256ZM149.567 99.74C150.267 99.74 150.617 99.3527 150.617 98.578C150.617 98.2607 150.524 97.8173 150.337 97.248C150.16 96.6693 150.001 96.2307 149.861 95.932L150.855 95.386C151.042 95.778 151.228 96.2913 151.415 96.926C151.602 97.5513 151.695 98.102 151.695 98.578C151.695 99.0353 151.602 99.4507 151.415 99.824C151.238 100.188 150.986 100.477 150.659 100.692C150.342 100.897 149.978 101 149.567 101H149.539V99.74H149.567ZM145.759 101V99.74H145.801C146.324 99.74 146.772 99.4133 147.145 98.76C147.266 98.536 147.36 98.27 147.425 97.962C147.5 97.654 147.57 97.3133 147.635 96.94L148.671 96.996C148.662 97.0333 148.629 97.206 148.573 97.514C148.517 97.822 148.489 98.1207 148.489 98.41C148.489 98.858 148.573 99.194 148.741 99.418C148.918 99.6327 149.194 99.74 149.567 99.74H149.595L149.665 100.37L149.595 101H149.567C149.026 101 148.592 100.841 148.265 100.524C147.948 100.197 147.756 99.7447 147.691 99.166L147.915 99.152C147.719 99.684 147.43 100.127 147.047 100.482C146.674 100.827 146.254 101 145.787 101H145.759ZM141.755 101L141.685 100.37L141.755 99.74H141.825C142.17 99.74 142.497 99.6607 142.805 99.502C143.113 99.3433 143.351 99.1333 143.519 98.872C143.696 98.62 143.832 98.354 143.925 98.074C144.028 97.794 144.13 97.4627 144.233 97.08L145.283 97.192C145.264 97.248 145.227 97.388 145.171 97.612C145.115 97.836 145.068 98.046 145.031 98.242C145.003 98.438 144.989 98.6153 144.989 98.774C144.989 99.418 145.25 99.74 145.773 99.74H145.801L145.871 100.37L145.801 101H145.759C145.33 101 144.97 100.874 144.681 100.622C144.401 100.361 144.233 100.011 144.177 99.572C143.888 100.039 143.542 100.393 143.141 100.636C142.74 100.879 142.296 101 141.811 101H141.755ZM153.294 100.916C153.35 100.337 153.378 99.5253 153.378 98.48C153.378 97.388 153.35 96.2633 153.294 95.106C153.247 93.9393 153.191 93.1507 153.126 92.74L154.246 92.502C154.311 92.922 154.372 93.7247 154.428 94.91C154.493 96.0953 154.526 97.2433 154.526 98.354C154.526 99.5487 154.488 100.449 154.414 101.056L153.294 100.916ZM151.404 91.718C151.562 91.3167 151.768 91.0133 152.02 90.808C152.272 90.5933 152.547 90.486 152.846 90.486C152.995 90.486 153.135 90.5047 153.266 90.542C153.396 90.5793 153.541 90.6353 153.7 90.71C153.821 90.7567 153.942 90.8033 154.064 90.85C154.185 90.8873 154.306 90.906 154.428 90.906C154.605 90.906 154.782 90.8547 154.96 90.752C155.137 90.6493 155.286 90.5093 155.408 90.332L155.87 90.738C155.683 91.0087 155.459 91.2233 155.198 91.382C154.946 91.5407 154.689 91.62 154.428 91.62C154.269 91.62 154.124 91.6013 153.994 91.564C153.872 91.5267 153.728 91.4707 153.56 91.396C153.41 91.3307 153.284 91.284 153.182 91.256C153.079 91.2187 152.967 91.2 152.846 91.2C152.65 91.2 152.472 91.27 152.314 91.41C152.155 91.5407 152.024 91.7367 151.922 91.998L151.404 91.718ZM161.431 99.082C161.926 99.3153 162.523 99.5067 163.223 99.656C163.923 99.796 164.67 99.866 165.463 99.866C166.322 99.866 167.083 99.7633 167.745 99.558C168.408 99.3433 168.921 99.068 169.285 98.732C169.649 98.3867 169.831 98.0273 169.831 97.654C169.831 97.318 169.696 97.0427 169.425 96.828C169.164 96.604 168.805 96.492 168.347 96.492C167.591 96.492 166.821 96.842 166.037 97.542C165.253 98.2327 164.511 99.2127 163.811 100.482L162.929 99.936C163.695 98.4893 164.549 97.3553 165.491 96.534C166.443 95.7033 167.372 95.2833 168.277 95.274C168.763 95.274 169.201 95.3767 169.593 95.582C169.995 95.7873 170.307 96.0673 170.531 96.422C170.755 96.7767 170.867 97.178 170.867 97.626C170.867 98.3167 170.634 98.928 170.167 99.46C169.701 99.992 169.057 100.403 168.235 100.692C167.423 100.981 166.504 101.126 165.477 101.126C164.647 101.126 163.844 101.047 163.069 100.888C162.304 100.72 161.632 100.501 161.053 100.23L161.431 99.082ZM163.979 98.368C164.017 98.032 164.035 97.5793 164.035 97.01C164.035 96.0673 163.989 95.022 163.895 93.874C163.811 92.7167 163.732 91.928 163.657 91.508L164.777 91.256C164.852 91.6667 164.922 92.334 164.987 93.258C165.062 94.1727 165.099 95.0733 165.099 95.96C165.099 96.828 165.062 97.556 164.987 98.144L163.979 98.368ZM173.524 91.256C173.598 91.732 173.654 92.5673 173.692 93.762C173.738 94.9473 173.762 96.0253 173.762 96.996V97.584L173.748 98.074C173.748 98.5127 173.785 98.8487 173.86 99.082C173.934 99.306 174.074 99.474 174.28 99.586C174.494 99.6887 174.812 99.74 175.232 99.74H175.302L175.372 100.37L175.302 101H175.232C174.569 101 174.051 100.893 173.678 100.678C173.304 100.454 173.038 100.123 172.88 99.684C172.73 99.2453 172.656 98.6667 172.656 97.948C172.656 96.884 172.632 95.68 172.586 94.336C172.548 92.9827 172.488 92.0353 172.404 91.494L173.524 91.256ZM175.168 99.74H175.28C175.952 99.74 176.466 99.67 176.82 99.53C177.175 99.3807 177.413 99.1473 177.534 98.83C177.581 98.6993 177.604 98.5173 177.604 98.284C177.604 98.0507 177.567 97.654 177.492 97.094L177.436 96.688L178.458 96.492C178.58 97.08 178.64 97.8267 178.64 98.732C178.706 99.0587 178.85 99.3107 179.074 99.488C179.298 99.656 179.578 99.74 179.914 99.74H180.026L180.096 100.37L180.026 101H179.914C179.448 101 179.037 100.865 178.682 100.594C178.337 100.314 178.094 99.9593 177.954 99.53L178.248 99.586C178.071 100.099 177.74 100.463 177.254 100.678C176.778 100.893 176.12 101 175.28 101H175.168V99.74ZM175.056 103.296L175.392 102.96C175.831 102.521 176.05 102.302 176.05 102.302C176.05 102.302 176.27 102.521 176.708 102.96L177.044 103.296L176.05 104.29L175.056 103.296ZM179.885 99.74H180.445C181.444 99.74 182.148 99.6467 182.559 99.46C182.97 99.264 183.175 98.9467 183.175 98.508C183.166 98.2187 183.068 97.78 182.881 97.192C182.704 96.5947 182.55 96.1653 182.419 95.904L183.427 95.372C183.614 95.736 183.796 96.2307 183.973 96.856C184.16 97.472 184.253 98.0087 184.253 98.466C184.253 99.2967 183.95 99.9267 183.343 100.356C182.736 100.785 181.822 101 180.599 101H179.885V99.74ZM180.585 93.244L181.215 92.614L182.153 93.552L181.215 94.504L180.277 93.552L180.585 93.244ZM183.077 93.244L183.707 92.614L184.645 93.552L183.707 94.504L182.769 93.552L183.077 93.244ZM183.838 103.926C184.435 103.721 184.977 103.45 185.462 103.114C185.947 102.778 186.325 102.419 186.596 102.036C186.876 101.653 187.016 101.294 187.016 100.958C187.016 100.482 186.778 99.3153 186.302 97.458L187.38 97.052C187.585 97.7147 187.753 98.4147 187.884 99.152C188.024 99.8893 188.094 100.491 188.094 100.958C188.094 101.509 187.931 102.045 187.604 102.568C187.277 103.1 186.825 103.576 186.246 103.996C185.677 104.425 185.033 104.766 184.314 105.018L183.838 103.926ZM189.784 100.916C189.85 100.356 189.882 99.4087 189.882 98.074C189.882 96.8047 189.854 95.4933 189.798 94.14C189.752 92.7773 189.696 91.8953 189.63 91.494L190.75 91.256C190.806 91.6853 190.862 92.6233 190.918 94.07C190.984 95.5073 191.016 96.8747 191.016 98.172C191.016 99.4787 190.984 100.44 190.918 101.056L189.784 100.916Z" fill="#0A0D2A"/>
<line y1="115.5" x2="192" y2="115.5" stroke="url(#paint2_linear_258_3207)"/>
<g clip-path="url(#clip0_258_3207)">
<rect x="216" y="16" width="18" height="18" rx="4" fill="url(#paint3_linear_258_3207)"/>
<circle opacity="0.3" cx="220" cy="7" r="25" fill="url(#paint4_linear_258_3207)"/>
<circle opacity="0.3" cx="201" cy="19" r="25" fill="url(#paint5_linear_258_3207)"/>
<circle opacity="0.3" cx="243" cy="55" r="25" fill="url(#paint6_linear_258_3207)"/>
<circle opacity="0.3" cx="250" cy="48" r="25" fill="url(#paint7_linear_258_3207)"/>
</g>
<g clip-path="url(#clip1_258_3207)">
<rect x="238" y="16" width="62" height="18" rx="4" fill="url(#paint8_linear_258_3207)"/>
<circle opacity="0.3" cx="297" cy="-7" r="50" fill="url(#paint9_linear_258_3207)"/>
<circle opacity="0.3" cx="276" cy="-16" r="50" fill="url(#paint10_linear_258_3207)"/>
</g>
<g clip-path="url(#clip2_258_3207)">
<rect x="234" y="38" width="62" height="18" rx="4" transform="rotate(90 234 38)" fill="url(#paint11_linear_258_3207)"/>
<circle opacity="0.3" cx="257" cy="97" r="50" transform="rotate(90 257 97)" fill="url(#paint12_linear_258_3207)"/>
<circle opacity="0.3" cx="266" cy="76" r="50" transform="rotate(90 266 76)" fill="url(#paint13_linear_258_3207)"/>
</g>
<g clip-path="url(#clip3_258_3207)">
<rect x="238" y="38" width="18" height="18" rx="4" fill="url(#paint14_linear_258_3207)"/>
<circle opacity="0.3" cx="242" cy="29" r="25" fill="url(#paint15_linear_258_3207)"/>
<circle opacity="0.3" cx="223" cy="41" r="25" fill="url(#paint16_linear_258_3207)"/>
<circle opacity="0.3" cx="265" cy="77" r="25" fill="url(#paint17_linear_258_3207)"/>
<circle opacity="0.3" cx="272" cy="70" r="25" fill="url(#paint18_linear_258_3207)"/>
</g>
<g clip-path="url(#clip4_258_3207)">
<rect x="260" y="38" width="18" height="18" rx="4" fill="url(#paint19_linear_258_3207)"/>
<circle opacity="0.3" cx="264" cy="29" r="25" fill="url(#paint20_linear_258_3207)"/>
<circle opacity="0.3" cx="245" cy="41" r="25" fill="url(#paint21_linear_258_3207)"/>
<circle opacity="0.3" cx="287" cy="77" r="25" fill="url(#paint22_linear_258_3207)"/>
<circle opacity="0.3" cx="294" cy="70" r="25" fill="url(#paint23_linear_258_3207)"/>
</g>
<g clip-path="url(#clip5_258_3207)">
<rect x="282" y="38" width="18" height="18" rx="4" fill="url(#paint24_linear_258_3207)" fill-opacity="0.4"/>
<circle opacity="0.3" cx="286" cy="29" r="25" fill="url(#paint25_linear_258_3207)" fill-opacity="0.4"/>
<circle opacity="0.3" cx="267" cy="41" r="25" fill="url(#paint26_linear_258_3207)" fill-opacity="0.4"/>
<circle opacity="0.3" cx="309" cy="77" r="25" fill="url(#paint27_linear_258_3207)" fill-opacity="0.4"/>
<circle opacity="0.3" cx="316" cy="70" r="25" fill="url(#paint28_linear_258_3207)" fill-opacity="0.4"/>
</g>
<g clip-path="url(#clip6_258_3207)">
<rect x="238" y="60" width="18" height="18" rx="4" fill="url(#paint29_linear_258_3207)"/>
<circle opacity="0.3" cx="242" cy="51" r="25" fill="url(#paint30_linear_258_3207)"/>
<circle opacity="0.3" cx="223" cy="63" r="25" fill="url(#paint31_linear_258_3207)"/>
<circle opacity="0.3" cx="265" cy="99" r="25" fill="url(#paint32_linear_258_3207)"/>
<circle opacity="0.3" cx="272" cy="92" r="25" fill="url(#paint33_linear_258_3207)"/>
</g>
<g clip-path="url(#clip7_258_3207)">
<rect x="260" y="60" width="18" height="18" rx="4" fill="url(#paint34_linear_258_3207)" fill-opacity="0.4"/>
<circle opacity="0.3" cx="264" cy="51" r="25" fill="url(#paint35_linear_258_3207)" fill-opacity="0.4"/>
<circle opacity="0.3" cx="245" cy="63" r="25" fill="url(#paint36_linear_258_3207)" fill-opacity="0.4"/>
<circle opacity="0.3" cx="287" cy="99" r="25" fill="url(#paint37_linear_258_3207)" fill-opacity="0.4"/>
<circle opacity="0.3" cx="294" cy="92" r="25" fill="url(#paint38_linear_258_3207)" fill-opacity="0.4"/>
</g>
<g clip-path="url(#clip8_258_3207)">
<rect x="282" y="60" width="18" height="18" rx="4" fill="url(#paint39_linear_258_3207)"/>
<circle opacity="0.3" cx="286" cy="51" r="25" fill="url(#paint40_linear_258_3207)"/>
<circle opacity="0.3" cx="267" cy="63" r="25" fill="url(#paint41_linear_258_3207)"/>
<circle opacity="0.3" cx="309" cy="99" r="25" fill="url(#paint42_linear_258_3207)"/>
<circle opacity="0.3" cx="316" cy="92" r="25" fill="url(#paint43_linear_258_3207)"/>
</g>
<g clip-path="url(#clip9_258_3207)">
<rect x="238" y="82" width="18" height="18" rx="4" fill="url(#paint44_linear_258_3207)" fill-opacity="0.4"/>
<circle opacity="0.3" cx="242" cy="73" r="25" fill="url(#paint45_linear_258_3207)" fill-opacity="0.4"/>
<circle opacity="0.3" cx="223" cy="85" r="25" fill="url(#paint46_linear_258_3207)" fill-opacity="0.4"/>
<circle opacity="0.3" cx="265" cy="121" r="25" fill="url(#paint47_linear_258_3207)" fill-opacity="0.4"/>
<circle opacity="0.3" cx="272" cy="114" r="25" fill="url(#paint48_linear_258_3207)" fill-opacity="0.4"/>
</g>
<g clip-path="url(#clip10_258_3207)">
<rect x="260" y="82" width="18" height="18" rx="4" fill="url(#paint49_linear_258_3207)"/>
<circle opacity="0.3" cx="264" cy="73" r="25" fill="url(#paint50_linear_258_3207)"/>
<circle opacity="0.3" cx="245" cy="85" r="25" fill="url(#paint51_linear_258_3207)"/>
<circle opacity="0.3" cx="287" cy="121" r="25" fill="url(#paint52_linear_258_3207)"/>
<circle opacity="0.3" cx="294" cy="114" r="25" fill="url(#paint53_linear_258_3207)"/>
</g>
<g clip-path="url(#clip11_258_3207)">
<rect x="282" y="82" width="18" height="18" rx="4" fill="url(#paint54_linear_258_3207)" fill-opacity="0.4"/>
<circle opacity="0.3" cx="286" cy="73" r="25" fill="url(#paint55_linear_258_3207)" fill-opacity="0.4"/>
<circle opacity="0.3" cx="267" cy="85" r="25" fill="url(#paint56_linear_258_3207)" fill-opacity="0.4"/>
<circle opacity="0.3" cx="309" cy="121" r="25" fill="url(#paint57_linear_258_3207)" fill-opacity="0.4"/>
<circle opacity="0.3" cx="316" cy="114" r="25" fill="url(#paint58_linear_258_3207)" fill-opacity="0.4"/>
</g>
<defs>
<linearGradient id="paint0_linear_258_3207" x1="96" y1="54" x2="96" y2="0" gradientUnits="userSpaceOnUse">
<stop stop-color="#2D39B8"/>
<stop offset="0.606" stop-color="#2BC4CC"/>
<stop offset="1" stop-color="#FAFAFE"/>
</linearGradient>
<linearGradient id="paint1_linear_258_3207" x1="0" y1="58" x2="192" y2="58" gradientUnits="userSpaceOnUse">
<stop stop-color="#EAECFA"/>
<stop offset="1" stop-color="#12174A"/>
</linearGradient>
<linearGradient id="paint2_linear_258_3207" x1="0" y1="116" x2="192" y2="116" gradientUnits="userSpaceOnUse">
<stop stop-color="#EAECFA"/>
<stop offset="1" stop-color="#12174A"/>
</linearGradient>
<linearGradient id="paint3_linear_258_3207" x1="225" y1="16" x2="225" y2="34" gradientUnits="userSpaceOnUse">
<stop stop-color="#12174A"/>
<stop offset="0.55" stop-color="#1F6E8B"/>
<stop offset="1" stop-color="#2BC4CC"/>
</linearGradient>
<linearGradient id="paint4_linear_258_3207" x1="220" y1="-18" x2="220" y2="32" gradientUnits="userSpaceOnUse">
<stop stop-color="#313EC8"/>
<stop offset="1" stop-color="#CBCEF2"/>
</linearGradient>
<linearGradient id="paint5_linear_258_3207" x1="201" y1="-6" x2="201" y2="44" gradientUnits="userSpaceOnUse">
<stop stop-color="#313EC8"/>
<stop offset="1" stop-color="#CBCEF2"/>
</linearGradient>
<linearGradient id="paint6_linear_258_3207" x1="243" y1="30" x2="243" y2="80" gradientUnits="userSpaceOnUse">
<stop stop-color="#313EC8"/>
<stop offset="1" stop-color="#CBCEF2"/>
</linearGradient>
<linearGradient id="paint7_linear_258_3207" x1="250" y1="23" x2="250" y2="73" gradientUnits="userSpaceOnUse">
<stop stop-color="#313EC8"/>
<stop offset="1" stop-color="#CBCEF2"/>
</linearGradient>
<linearGradient id="paint8_linear_258_3207" x1="238" y1="25" x2="300" y2="25" gradientUnits="userSpaceOnUse">
<stop stop-color="#12174A"/>
<stop offset="0.546" stop-color="#1F6E8B"/>
<stop offset="1" stop-color="#2BC4CC"/>
</linearGradient>
<linearGradient id="paint9_linear_258_3207" x1="297" y1="-57" x2="297" y2="43" gradientUnits="userSpaceOnUse">
<stop stop-color="#313EC8"/>
<stop offset="1" stop-color="#CBCEF2"/>
</linearGradient>
<linearGradient id="paint10_linear_258_3207" x1="276" y1="-66" x2="276" y2="34" gradientUnits="userSpaceOnUse">
<stop stop-color="#313EC8"/>
<stop offset="1" stop-color="#CBCEF2"/>
</linearGradient>
<linearGradient id="paint11_linear_258_3207" x1="234" y1="47" x2="296" y2="47" gradientUnits="userSpaceOnUse">
<stop stop-color="#12174A"/>
<stop offset="0.546" stop-color="#1F6E8B"/>
<stop offset="1" stop-color="#2BC4CC"/>
</linearGradient>
<linearGradient id="paint12_linear_258_3207" x1="257" y1="47" x2="257" y2="147" gradientUnits="userSpaceOnUse">
<stop stop-color="#313EC8"/>
<stop offset="1" stop-color="#CBCEF2"/>
</linearGradient>
<linearGradient id="paint13_linear_258_3207" x1="266" y1="26" x2="266" y2="126" gradientUnits="userSpaceOnUse">
<stop stop-color="#313EC8"/>
<stop offset="1" stop-color="#CBCEF2"/>
</linearGradient>
<linearGradient id="paint14_linear_258_3207" x1="247" y1="38" x2="247" y2="56" gradientUnits="userSpaceOnUse">
<stop stop-color="#253099"/>
<stop offset="0.5" stop-color="#2BC4CC"/>
<stop offset="1" stop-color="#DBDDF6"/>
</linearGradient>
<linearGradient id="paint15_linear_258_3207" x1="242" y1="4" x2="242" y2="54" gradientUnits="userSpaceOnUse">
<stop stop-color="#6C76DB"/>
<stop offset="1" stop-color="#FAFAFE"/>
</linearGradient>
<linearGradient id="paint16_linear_258_3207" x1="223" y1="16" x2="223" y2="66" gradientUnits="userSpaceOnUse">
<stop stop-color="#6C76DB"/>
<stop offset="1" stop-color="#FAFAFE"/>
</linearGradient>
<linearGradient id="paint17_linear_258_3207" x1="265" y1="52" x2="265" y2="102" gradientUnits="userSpaceOnUse">
<stop stop-color="#6C76DB"/>
<stop offset="1" stop-color="#FAFAFE"/>
</linearGradient>
<linearGradient id="paint18_linear_258_3207" x1="272" y1="45" x2="272" y2="95" gradientUnits="userSpaceOnUse">
<stop stop-color="#6C76DB"/>
<stop offset="1" stop-color="#FAFAFE"/>
</linearGradient>
<linearGradient id="paint19_linear_258_3207" x1="269" y1="38" x2="269" y2="56" gradientUnits="userSpaceOnUse">
<stop stop-color="#253099"/>
<stop offset="0.5" stop-color="#2BC4CC"/>
<stop offset="1" stop-color="#DBDDF6"/>
</linearGradient>
<linearGradient id="paint20_linear_258_3207" x1="264" y1="4" x2="264" y2="54" gradientUnits="userSpaceOnUse">
<stop stop-color="#6C76DB"/>
<stop offset="1" stop-color="#FAFAFE"/>
</linearGradient>
<linearGradient id="paint21_linear_258_3207" x1="245" y1="16" x2="245" y2="66" gradientUnits="userSpaceOnUse">
<stop stop-color="#6C76DB"/>
<stop offset="1" stop-color="#FAFAFE"/>
</linearGradient>
<linearGradient id="paint22_linear_258_3207" x1="287" y1="52" x2="287" y2="102" gradientUnits="userSpaceOnUse">
<stop stop-color="#6C76DB"/>
<stop offset="1" stop-color="#FAFAFE"/>
</linearGradient>
<linearGradient id="paint23_linear_258_3207" x1="294" y1="45" x2="294" y2="95" gradientUnits="userSpaceOnUse">
<stop stop-color="#6C76DB"/>
<stop offset="1" stop-color="#FAFAFE"/>
</linearGradient>
<linearGradient id="paint24_linear_258_3207" x1="291" y1="38" x2="291" y2="56" gradientUnits="userSpaceOnUse">
<stop stop-color="#2D39B8"/>
<stop offset="0.5" stop-color="#5BD2D8"/>
<stop offset="1" stop-color="#EAECFA"/>
</linearGradient>
<linearGradient id="paint25_linear_258_3207" x1="286" y1="4" x2="286" y2="54" gradientUnits="userSpaceOnUse">
<stop stop-color="#8C93E3"/>
<stop offset="1" stop-color="#FAFAFE"/>
</linearGradient>
<linearGradient id="paint26_linear_258_3207" x1="267" y1="16" x2="267" y2="66" gradientUnits="userSpaceOnUse">
<stop stop-color="#8C93E3"/>
<stop offset="1" stop-color="#FAFAFE"/>
</linearGradient>
<linearGradient id="paint27_linear_258_3207" x1="309" y1="52" x2="309" y2="102" gradientUnits="userSpaceOnUse">
<stop stop-color="#8C93E3"/>
<stop offset="1" stop-color="#FAFAFE"/>
</linearGradient>
<linearGradient id="paint28_linear_258_3207" x1="316" y1="45" x2="316" y2="95" gradientUnits="userSpaceOnUse">
<stop stop-color="#8C93E3"/>
<stop offset="1" stop-color="#FAFAFE"/>
</linearGradient>
<linearGradient id="paint29_linear_258_3207" x1="247" y1="60" x2="247" y2="78" gradientUnits="userSpaceOnUse">
<stop stop-color="#253099"/>
<stop offset="0.5" stop-color="#2BC4CC"/>
<stop offset="1" stop-color="#DBDDF6"/>
</linearGradient>
<linearGradient id="paint30_linear_258_3207" x1="242" y1="26" x2="242" y2="76" gradientUnits="userSpaceOnUse">
<stop stop-color="#6C76DB"/>
<stop offset="1" stop-color="#FAFAFE"/>
</linearGradient>
<linearGradient id="paint31_linear_258_3207" x1="223" y1="38" x2="223" y2="88" gradientUnits="userSpaceOnUse">
<stop stop-color="#6C76DB"/>
<stop offset="1" stop-color="#FAFAFE"/>
</linearGradient>
<linearGradient id="paint32_linear_258_3207" x1="265" y1="74" x2="265" y2="124" gradientUnits="userSpaceOnUse">
<stop stop-color="#6C76DB"/>
<stop offset="1" stop-color="#FAFAFE"/>
</linearGradient>
<linearGradient id="paint33_linear_258_3207" x1="272" y1="67" x2="272" y2="117" gradientUnits="userSpaceOnUse">
<stop stop-color="#6C76DB"/>
<stop offset="1" stop-color="#FAFAFE"/>
</linearGradient>
<linearGradient id="paint34_linear_258_3207" x1="269" y1="60" x2="269" y2="78" gradientUnits="userSpaceOnUse">
<stop stop-color="#2D39B8"/>
<stop offset="0.5" stop-color="#5BD2D8"/>
<stop offset="1" stop-color="#EAECFA"/>
</linearGradient>
<linearGradient id="paint35_linear_258_3207" x1="264" y1="26" x2="264" y2="76" gradientUnits="userSpaceOnUse">
<stop stop-color="#8C93E3"/>
<stop offset="1" stop-color="#FAFAFE"/>
</linearGradient>
<linearGradient id="paint36_linear_258_3207" x1="245" y1="38" x2="245" y2="88" gradientUnits="userSpaceOnUse">
<stop stop-color="#8C93E3"/>
<stop offset="1" stop-color="#FAFAFE"/>
</linearGradient>
<linearGradient id="paint37_linear_258_3207" x1="287" y1="74" x2="287" y2="124" gradientUnits="userSpaceOnUse">
<stop stop-color="#8C93E3"/>
<stop offset="1" stop-color="#FAFAFE"/>
</linearGradient>
<linearGradient id="paint38_linear_258_3207" x1="294" y1="67" x2="294" y2="117" gradientUnits="userSpaceOnUse">
<stop stop-color="#8C93E3"/>
<stop offset="1" stop-color="#FAFAFE"/>
</linearGradient>
<linearGradient id="paint39_linear_258_3207" x1="291" y1="60" x2="291" y2="78" gradientUnits="userSpaceOnUse">
<stop stop-color="#253099"/>
<stop offset="0.5" stop-color="#2BC4CC"/>
<stop offset="1" stop-color="#DBDDF6"/>
</linearGradient>
<linearGradient id="paint40_linear_258_3207" x1="286" y1="26" x2="286" y2="76" gradientUnits="userSpaceOnUse">
<stop stop-color="#6C76DB"/>
<stop offset="1" stop-color="#FAFAFE"/>
</linearGradient>
<linearGradient id="paint41_linear_258_3207" x1="267" y1="38" x2="267" y2="88" gradientUnits="userSpaceOnUse">
<stop stop-color="#6C76DB"/>
<stop offset="1" stop-color="#FAFAFE"/>
</linearGradient>
<linearGradient id="paint42_linear_258_3207" x1="309" y1="74" x2="309" y2="124" gradientUnits="userSpaceOnUse">
<stop stop-color="#6C76DB"/>
<stop offset="1" stop-color="#FAFAFE"/>
</linearGradient>
<linearGradient id="paint43_linear_258_3207" x1="316" y1="67" x2="316" y2="117" gradientUnits="userSpaceOnUse">
<stop stop-color="#6C76DB"/>
<stop offset="1" stop-color="#FAFAFE"/>
</linearGradient>
<linearGradient id="paint44_linear_258_3207" x1="247" y1="82" x2="247" y2="100" gradientUnits="userSpaceOnUse">
<stop stop-color="#2D39B8"/>
<stop offset="0.5" stop-color="#5BD2D8"/>
<stop offset="1" stop-color="#EAECFA"/>
</linearGradient>
<linearGradient id="paint45_linear_258_3207" x1="242" y1="48" x2="242" y2="98" gradientUnits="userSpaceOnUse">
<stop stop-color="#8C93E3"/>
<stop offset="1" stop-color="#FAFAFE"/>
</linearGradient>
<linearGradient id="paint46_linear_258_3207" x1="223" y1="60" x2="223" y2="110" gradientUnits="userSpaceOnUse">
<stop stop-color="#8C93E3"/>
<stop offset="1" stop-color="#FAFAFE"/>
</linearGradient>
<linearGradient id="paint47_linear_258_3207" x1="265" y1="96" x2="265" y2="146" gradientUnits="userSpaceOnUse">
<stop stop-color="#8C93E3"/>
<stop offset="1" stop-color="#FAFAFE"/>
</linearGradient>
<linearGradient id="paint48_linear_258_3207" x1="272" y1="89" x2="272" y2="139" gradientUnits="userSpaceOnUse">
<stop stop-color="#8C93E3"/>
<stop offset="1" stop-color="#FAFAFE"/>
</linearGradient>
<linearGradient id="paint49_linear_258_3207" x1="269" y1="82" x2="269" y2="100" gradientUnits="userSpaceOnUse">
<stop stop-color="#253099"/>
<stop offset="0.5" stop-color="#2BC4CC"/>
<stop offset="1" stop-color="#DBDDF6"/>
</linearGradient>
<linearGradient id="paint50_linear_258_3207" x1="264" y1="48" x2="264" y2="98" gradientUnits="userSpaceOnUse">
<stop stop-color="#6C76DB"/>
<stop offset="1" stop-color="#FAFAFE"/>
</linearGradient>
<linearGradient id="paint51_linear_258_3207" x1="245" y1="60" x2="245" y2="110" gradientUnits="userSpaceOnUse">
<stop stop-color="#6C76DB"/>
<stop offset="1" stop-color="#FAFAFE"/>
</linearGradient>
<linearGradient id="paint52_linear_258_3207" x1="287" y1="96" x2="287" y2="146" gradientUnits="userSpaceOnUse">
<stop stop-color="#6C76DB"/>
<stop offset="1" stop-color="#FAFAFE"/>
</linearGradient>
<linearGradient id="paint53_linear_258_3207" x1="294" y1="89" x2="294" y2="139" gradientUnits="userSpaceOnUse">
<stop stop-color="#6C76DB"/>
<stop offset="1" stop-color="#FAFAFE"/>
</linearGradient>
<linearGradient id="paint54_linear_258_3207" x1="291" y1="82" x2="291" y2="100" gradientUnits="userSpaceOnUse">
<stop stop-color="#2D39B8"/>
<stop offset="0.5" stop-color="#5BD2D8"/>
<stop offset="1" stop-color="#EAECFA"/>
</linearGradient>
<linearGradient id="paint55_linear_258_3207" x1="286" y1="48" x2="286" y2="98" gradientUnits="userSpaceOnUse">
<stop stop-color="#8C93E3"/>
<stop offset="1" stop-color="#FAFAFE"/>
</linearGradient>
<linearGradient id="paint56_linear_258_3207" x1="267" y1="60" x2="267" y2="110" gradientUnits="userSpaceOnUse">
<stop stop-color="#8C93E3"/>
<stop offset="1" stop-color="#FAFAFE"/>
</linearGradient>
<linearGradient id="paint57_linear_258_3207" x1="309" y1="96" x2="309" y2="146" gradientUnits="userSpaceOnUse">
<stop stop-color="#8C93E3"/>
<stop offset="1" stop-color="#FAFAFE"/>
</linearGradient>
<linearGradient id="paint58_linear_258_3207" x1="316" y1="89" x2="316" y2="139" gradientUnits="userSpaceOnUse">
<stop stop-color="#8C93E3"/>
<stop offset="1" stop-color="#FAFAFE"/>
</linearGradient>
<clipPath id="clip0_258_3207">
<rect x="216" y="16" width="18" height="18" rx="4" fill="white"/>
</clipPath>
<clipPath id="clip1_258_3207">
<rect x="238" y="16" width="62" height="18" rx="4" fill="white"/>
</clipPath>
<clipPath id="clip2_258_3207">
<rect x="234" y="38" width="62" height="18" rx="4" transform="rotate(90 234 38)" fill="white"/>
</clipPath>
<clipPath id="clip3_258_3207">
<rect x="238" y="38" width="18" height="18" rx="4" fill="white"/>
</clipPath>
<clipPath id="clip4_258_3207">
<rect x="260" y="38" width="18" height="18" rx="4" fill="white"/>
</clipPath>
<clipPath id="clip5_258_3207">
<rect x="282" y="38" width="18" height="18" rx="4" fill="white"/>
</clipPath>
<clipPath id="clip6_258_3207">
<rect x="238" y="60" width="18" height="18" rx="4" fill="white"/>
</clipPath>
<clipPath id="clip7_258_3207">
<rect x="260" y="60" width="18" height="18" rx="4" fill="white"/>
</clipPath>
<clipPath id="clip8_258_3207">
<rect x="282" y="60" width="18" height="18" rx="4" fill="white"/>
</clipPath>
<clipPath id="clip9_258_3207">
<rect x="238" y="82" width="18" height="18" rx="4" fill="white"/>
</clipPath>
<clipPath id="clip10_258_3207">
<rect x="260" y="82" width="18" height="18" rx="4" fill="white"/>
</clipPath>
<clipPath id="clip11_258_3207">
<rect x="282" y="82" width="18" height="18" rx="4" fill="white"/>
</clipPath>
</defs>
</svg>
