<svg width="45" height="45" viewBox="0 0 45 45" fill="none" xmlns="http://www.w3.org/2000/svg">
<ellipse cx="22.5068" cy="22.6807" rx="21.2133" ry="21.2203" stroke="#86A7E7" stroke-linecap="round" stroke-dasharray="2 5"/>
<path fill-rule="evenodd" clip-rule="evenodd" d="M28.1303 12.0369C28.0769 11.6396 27.7394 11.3334 27.331 11.3334C26.8855 11.3334 26.5244 11.6978 26.5244 12.1473V13.0472H19.4494V12.1473L19.442 12.0369C19.3886 11.6396 19.0511 11.3334 18.6427 11.3334C18.1972 11.3334 17.8361 11.6978 17.8361 12.1473V13.0674C14.5306 13.2954 12.4956 15.44 12.4956 18.9001V28.7214C12.4956 32.4351 14.7774 34.6667 18.4335 34.6667H27.5303C31.1908 34.6667 33.4682 32.4725 33.4682 28.8035V18.9001C33.4787 15.4387 31.4503 13.2948 28.1376 13.0673V12.1473L28.1303 12.0369ZM26.5244 14.6751V15.7187L26.5317 15.8292C26.5851 16.2265 26.9226 16.5327 27.331 16.5327C27.7765 16.5327 28.1376 16.1683 28.1376 15.7187V14.6992C30.5478 14.9 31.8627 16.3532 31.8549 18.8976V19.369H14.1089V18.9001C14.1089 16.3573 15.4309 14.901 17.8361 14.6994V15.7187L17.8435 15.8292C17.8969 16.2265 18.2344 16.5327 18.6427 16.5327C19.0882 16.5327 19.4494 16.1683 19.4494 15.7187V14.6751H26.5244ZM14.1089 20.9969V28.7214C14.1089 31.5245 15.6573 33.0388 18.4335 33.0388H27.5303C30.3161 33.0388 31.8549 31.5562 31.8549 28.8035L31.8549 20.9969H14.1089ZM28.576 24.4214C28.576 23.9719 28.2149 23.6075 27.7694 23.6075L27.65 23.6149C27.2563 23.6688 26.9528 24.0093 26.9528 24.4214C26.9528 24.8709 27.314 25.2354 27.7694 25.2354L27.8789 25.2279C28.2726 25.174 28.576 24.8335 28.576 24.4214ZM22.9968 23.6075C23.4423 23.6075 23.8035 23.9719 23.8035 24.4214C23.8035 24.8335 23.5 25.174 23.1063 25.2279L22.9968 25.2354C22.5414 25.2354 22.1802 24.8709 22.1802 24.4214C22.1802 24.0093 22.4837 23.6688 22.8774 23.6149L22.9968 23.6075ZM19.0209 24.4214C19.0209 23.9719 18.6598 23.6075 18.2143 23.6075L18.0949 23.6149C17.7012 23.6688 17.3977 24.0093 17.3977 24.4214C17.3977 24.8709 17.7588 25.2354 18.2043 25.2354L18.3238 25.2279C18.7175 25.174 19.0209 24.8335 19.0209 24.4214ZM27.7694 27.8254C28.2149 27.8254 28.576 28.1898 28.576 28.6393C28.576 29.0514 28.2726 29.392 27.8789 29.4459L27.7694 29.4533C27.314 29.4533 26.9528 29.0889 26.9528 28.6393C26.9528 28.2273 27.2563 27.8867 27.65 27.8328L27.7694 27.8254ZM23.8035 28.6393C23.8035 28.1898 23.4423 27.8254 22.9968 27.8254L22.8774 27.8328C22.4837 27.8867 22.1802 28.2273 22.1802 28.6393C22.1802 29.0889 22.5414 29.4533 22.9968 29.4533L23.1063 29.4459C23.5 29.392 23.8035 29.0514 23.8035 28.6393ZM18.2143 27.8254C18.6598 27.8254 19.0209 28.1898 19.0209 28.6393C19.0209 29.0514 18.7175 29.392 18.3238 29.4459L18.2043 29.4533C17.7588 29.4533 17.3977 29.0889 17.3977 28.6393C17.3977 28.2273 17.7012 27.8867 18.0949 27.8328L18.2143 27.8254Z" fill="#3D84D6"/>
</svg>
