<svg width="45" height="45" viewBox="0 0 45 45" fill="none" xmlns="http://www.w3.org/2000/svg">
<ellipse cx="22.3471" cy="22.6792" rx="21.2133" ry="21.2203" stroke="#86A7E7" stroke-linecap="round" stroke-dasharray="2 5"/>
<path d="M12.6665 18.3334C12.6665 15.034 12.6665 13.3832 13.692 12.3589C14.7163 11.3334 16.3672 11.3334 19.6665 11.3334H24.3332C27.6325 11.3334 29.2833 11.3334 30.3077 12.3589C31.3332 13.3832 31.3332 15.034 31.3332 18.3334V27.6667C31.3332 30.966 31.3332 32.6169 30.3077 33.6412C29.2833 34.6667 27.6325 34.6667 24.3332 34.6667H19.6665C16.3672 34.6667 14.7163 34.6667 13.692 33.6412C12.6665 32.6169 12.6665 30.966 12.6665 27.6667V18.3334Z" stroke="#3D84D6" stroke-width="1.5"/>
<path d="M31.2142 27.6667H17.2142C16.1292 27.6667 15.5867 27.6667 15.141 27.7857C14.5475 27.9449 14.0064 28.2575 13.572 28.692C13.1377 29.1266 12.8254 29.6679 12.6665 30.2614" stroke="#3D84D6" stroke-width="1.5"/>
<path d="M17.333 17.1667H26.6663M17.333 21.2501H23.1663" stroke="#3D84D6" stroke-width="1.5" stroke-linecap="round"/>
</svg>
