<svg width="24" height="25" viewBox="0 0 24 25" fill="none" xmlns="http://www.w3.org/2000/svg">
<path d="M14.4291 19.32C14.2391 19.32 14.0491 19.25 13.8991 19.1C13.6091 18.81 13.6091 18.33 13.8991 18.04L19.4391 12.5L13.8991 6.96C13.6091 6.67 13.6091 6.19 13.8991 5.9C14.1891 5.61 14.6691 5.61 14.9591 5.9L21.0291 11.97C21.3191 12.26 21.3191 12.74 21.0291 13.03L14.9591 19.1C14.8091 19.25 14.6191 19.32 14.4291 19.32Z" fill="#212529"/>
<path d="M20.33 13.25H3.5C3.09 13.25 2.75 12.91 2.75 12.5C2.75 12.09 3.09 11.75 3.5 11.75H20.33C20.74 11.75 21.08 12.09 21.08 12.5C21.08 12.91 20.74 13.25 20.33 13.25Z" fill="#212529"/>
</svg>
