<svg width="20" height="20" viewBox="0 0 20 20" fill="none" xmlns="http://www.w3.org/2000/svg">
<path d="M15.9083 12.0342V15.7342C15.9081 16.2577 15.7001 16.7597 15.3299 17.1299C14.9597 17.5001 14.4577 17.7081 13.9342 17.7084H4.26668C4.00648 17.7082 3.74886 17.6567 3.50863 17.5567C3.2684 17.4568 3.05029 17.3103 2.86684 17.1258C2.68339 16.9412 2.53822 16.7223 2.43965 16.4815C2.34109 16.2406 2.29109 15.9827 2.29252 15.7225V6.06586C2.29097 5.80606 2.34099 5.54854 2.4397 5.30823C2.5384 5.06791 2.68382 4.84957 2.86753 4.66587C3.05123 4.48216 3.26957 4.33674 3.50989 4.23804C3.7502 4.13933 4.00772 4.08931 4.26752 4.09086H7.96668" stroke="#6C757D" stroke-width="1.5" stroke-linecap="round" stroke-linejoin="round"/>
<path d="M15.9083 7.49589L12.5041 4.09089M5.6958 13.1692V11.3651C5.69747 11.0676 5.8158 10.7817 6.02497 10.5709L13.9683 2.62755C14.0737 2.52098 14.1992 2.43636 14.3375 2.37862C14.4758 2.32087 14.6242 2.29114 14.7741 2.29114C14.924 2.29114 15.0724 2.32087 15.2108 2.37862C15.3491 2.43636 15.4746 2.52098 15.58 2.62755L17.3725 4.42005C17.479 4.52545 17.5637 4.65095 17.6214 4.78927C17.6792 4.92759 17.7089 5.07599 17.7089 5.22589C17.7089 5.37578 17.6792 5.52418 17.6214 5.66251C17.5637 5.80083 17.479 5.92632 17.3725 6.03172L9.42914 13.9751C9.21792 14.1848 8.93265 14.3031 8.63497 14.3042H6.8308C6.68169 14.3044 6.534 14.2752 6.3962 14.2183C6.25839 14.1613 6.13318 14.0777 6.02775 13.9723C5.92231 13.8668 5.83871 13.7416 5.78175 13.6038C5.72479 13.466 5.69558 13.3183 5.6958 13.1692Z" stroke="#6C757D" stroke-width="1.5" stroke-linecap="round" stroke-linejoin="round"/>
</svg>
