<svg width="18" height="18" viewBox="0 0 18 18" fill="none" xmlns="http://www.w3.org/2000/svg">
<path fill-rule="evenodd" clip-rule="evenodd" d="M9.04243 6.6416C7.7376 6.6416 6.68409 7.69511 6.68409 8.99993C6.68409 9.42525 6.79569 9.82201 6.99267 10.1658L10.2083 6.95018C9.86452 6.75321 9.46775 6.6416 9.04243 6.6416ZM5.43408 8.99993C5.43408 7.00476 7.04724 5.3916 9.04243 5.3916C10.0406 5.3916 10.9392 5.79613 11.5927 6.44966C11.8368 6.69374 11.8368 7.08947 11.5927 7.33354L7.37603 11.5502C7.13195 11.7943 6.73622 11.7943 6.49215 11.5502C5.83862 10.8967 5.43408 9.99811 5.43408 8.99993Z" fill="#6C757D"/>
<path fill-rule="evenodd" clip-rule="evenodd" d="M0.923599 6.50575C2.91604 3.37378 5.83573 1.48328 9.04239 1.48328C10.9171 1.48328 12.7136 2.13628 14.2688 3.3093C14.5444 3.51717 14.5992 3.90907 14.3914 4.18464C14.1835 4.46022 13.7916 4.51511 13.516 4.30725C12.1545 3.28027 10.6177 2.73328 9.04239 2.73328C6.36583 2.73328 3.80228 4.30928 1.97804 7.17706L1.97752 7.17788C1.68203 7.64081 1.51319 8.30348 1.51319 9.00411C1.51319 9.70474 1.68203 10.3674 1.97752 10.8303L1.97781 10.8308C2.60595 11.8167 3.33329 12.6608 4.11656 13.3344C4.37827 13.5595 4.40797 13.9541 4.1829 14.2158C3.95783 14.4775 3.56322 14.5072 3.30151 14.2821C2.4181 13.5224 1.6121 12.5832 0.923573 11.5024C0.469259 10.7904 0.263184 9.8783 0.263184 9.00411C0.263184 8.12991 0.469267 7.21776 0.923599 6.50575Z" fill="#6C757D"/>
<path fill-rule="evenodd" clip-rule="evenodd" d="M15.3592 5.12129C15.6282 4.90495 16.0216 4.94761 16.238 5.21657C16.5579 5.6143 16.8722 6.04167 17.162 6.49841C17.6159 7.21028 17.8218 8.12199 17.8218 8.9958C17.8218 9.87 17.6157 10.7822 17.1614 11.4942C15.1689 14.6261 12.2493 16.5166 9.04259 16.5166C7.92881 16.5166 6.83827 16.2811 5.81671 15.851C5.49858 15.717 5.34927 15.3506 5.48322 15.0324C5.61717 14.7143 5.98365 14.565 6.30178 14.6989C7.18023 15.0688 8.10637 15.2666 9.04259 15.2666C11.7192 15.2666 14.2827 13.6906 16.1069 10.8228L16.1075 10.822C16.403 10.3591 16.5718 9.69643 16.5718 8.9958C16.5718 8.29517 16.403 7.6325 16.1075 7.16957L16.1066 7.16819C15.8464 6.75825 15.5607 6.36897 15.2639 6.00002C15.0476 5.73106 15.0903 5.33763 15.3592 5.12129Z" fill="#6C757D"/>
<path fill-rule="evenodd" clip-rule="evenodd" d="M12.0802 8.9686C12.4196 9.0312 12.6441 9.35712 12.5815 9.69658C12.3178 11.1265 11.16 12.2842 9.73015 12.5479C9.39069 12.6105 9.06477 12.386 9.00217 12.0466C8.93958 11.7071 9.16402 11.3812 9.50347 11.3186C10.4236 11.1489 11.1825 10.39 11.3522 9.4699C11.4148 9.13045 11.7407 8.90601 12.0802 8.9686Z" fill="#6C757D"/>
<path fill-rule="evenodd" clip-rule="evenodd" d="M7.37596 10.6663C7.62004 10.9104 7.62004 11.3061 7.37596 11.5502L1.15093 17.7752C0.906852 18.0193 0.511122 18.0193 0.267043 17.7752C0.0229647 17.5311 0.0229647 17.1354 0.267043 16.8913L6.49207 10.6663C6.73615 10.4223 7.13188 10.4223 7.37596 10.6663Z" fill="#6C757D"/>
<path fill-rule="evenodd" clip-rule="evenodd" d="M17.8169 0.224684C18.061 0.468762 18.061 0.86449 17.8169 1.10857L11.5918 7.33357C11.3478 7.57765 10.952 7.57765 10.708 7.33357C10.4639 7.08949 10.4639 6.69376 10.708 6.44968L16.933 0.224684C17.1771 -0.0193934 17.5728 -0.0193934 17.8169 0.224684Z" fill="#6C757D"/>
</svg>
