<svg width="22" height="22" viewBox="0 0 22 22" fill="none" xmlns="http://www.w3.org/2000/svg">
<path d="M21 10.9995H7.64324M2.92865 10.9995H1M2.92865 10.9995C2.92865 10.3744 3.17695 9.77496 3.61893 9.33298C4.0609 8.891 4.66035 8.6427 5.28541 8.6427C5.91046 8.6427 6.50991 8.891 6.95188 9.33298C7.39386 9.77496 7.64216 10.3744 7.64216 10.9995C7.64216 11.6245 7.39386 12.224 6.95188 12.6659C6.50991 13.1079 5.91046 13.3562 5.28541 13.3562C4.66035 13.3562 4.0609 13.1079 3.61893 12.6659C3.17695 12.224 2.92865 11.6245 2.92865 10.9995ZM21 18.1422H14.7859M14.7859 18.1422C14.7859 18.7674 14.537 19.3675 14.095 19.8096C13.6529 20.2516 13.0533 20.5 12.4281 20.5C11.8031 20.5 11.2036 20.2506 10.7616 19.8086C10.3197 19.3667 10.0714 18.7672 10.0714 18.1422M14.7859 18.1422C14.7859 17.517 14.537 16.9179 14.095 16.4758C13.6529 16.0338 13.0533 15.7854 12.4281 15.7854C11.8031 15.7854 11.2036 16.0337 10.7616 16.4757C10.3197 16.9177 10.0714 17.5171 10.0714 18.1422M10.0714 18.1422H1M21 3.85676H17.6432M12.9286 3.85676H1M12.9286 3.85676C12.9286 3.23171 13.1769 2.63226 13.6189 2.19028C14.0609 1.7483 14.6604 1.5 15.2854 1.5C15.5949 1.5 15.9014 1.56096 16.1873 1.6794C16.4732 1.79784 16.733 1.97143 16.9519 2.19028C17.1707 2.40912 17.3443 2.66893 17.4628 2.95486C17.5812 3.2408 17.6422 3.54726 17.6422 3.85676C17.6422 4.16625 17.5812 4.47271 17.4628 4.75865C17.3443 5.04458 17.1707 5.30439 16.9519 5.52323C16.733 5.74208 16.4732 5.91568 16.1873 6.03412C15.9014 6.15255 15.5949 6.21351 15.2854 6.21351C14.6604 6.21351 14.0609 5.96521 13.6189 5.52323C13.1769 5.08126 12.9286 4.48181 12.9286 3.85676Z" stroke="#343A40" stroke-width="1.5" stroke-miterlimit="10" stroke-linecap="round"/>
</svg>
