<svg width="77" height="75" viewBox="0 0 77 75" fill="none" xmlns="http://www.w3.org/2000/svg">
<path d="M58.0526 13.9474L39.1054 11.8422L15.9474 13.9474L13.8418 35.0001L15.947 56.0529L36.9998 58.6845L58.0526 56.0529L60.1578 34.4741L58.0526 13.9474Z" fill="white"/>
<path d="M24.5842 46.6103C23.0106 45.5471 21.921 43.9947 21.3262 41.9419L24.979 40.4367C25.3106 41.6999 25.8894 42.6787 26.7158 43.3735C27.537 44.0683 28.537 44.4103 29.7054 44.4103C30.9002 44.4103 31.9266 44.0471 32.7842 43.3207C33.6418 42.5943 34.0738 41.6679 34.0738 40.5471C34.0738 39.3999 33.621 38.4627 32.7158 37.7367C31.8106 37.0107 30.6738 36.6471 29.3158 36.6471H27.2054V33.0315H29.0998C30.2682 33.0315 31.2526 32.7159 32.0526 32.0843C32.8526 31.4527 33.2526 30.5895 33.2526 29.4895C33.2526 28.5107 32.8946 27.7315 32.179 27.1475C31.4634 26.5635 30.5578 26.2687 29.4578 26.2687C28.3842 26.2687 27.5314 26.5531 26.8998 27.1267C26.2682 27.7003 25.8102 28.4055 25.521 29.2371L21.9054 27.7319C22.3842 26.3739 23.2634 25.1739 24.5526 24.1371C25.8422 23.1003 27.4894 22.5791 29.4894 22.5791C30.9682 22.5791 32.2998 22.8635 33.479 23.4371C34.6578 24.0107 35.5842 24.8055 36.2526 25.8159C36.921 26.8315 37.2526 27.9687 37.2526 29.2315C37.2526 30.5211 36.9422 31.6103 36.321 32.5051C35.6998 33.3999 34.9366 34.0839 34.0314 34.5631V34.7787C35.2262 35.2787 36.1998 36.0419 36.9682 37.0683C37.7314 38.0947 38.1154 39.3211 38.1154 40.7527C38.1154 42.1843 37.7522 43.4631 37.0258 44.5843C36.2994 45.7055 35.2942 46.5895 34.0206 47.2315C32.7418 47.8735 31.305 48.1999 29.7102 48.1999C27.863 48.2051 26.1578 47.6735 24.5842 46.6103Z" fill="#1A73E8"/>
<path d="M46.9997 28.4842L43.0101 31.3842L41.0049 28.3422L48.1997 23.1526H50.9577V47.6314H46.9997V28.4842Z" fill="#1A73E8"/>
<path d="M58.0527 75L76.9999 56.0528L67.5263 51.8424L58.0527 56.0528L53.8423 65.5264L58.0527 75Z" fill="#EA4335"/>
<path d="M11.7368 65.5263L15.9472 74.9999H58.0524V56.0527H15.9472L11.7368 65.5263Z" fill="#34A853"/>
<path d="M3.31559 -5C-0.173603 -5 -3 -2.1736 -3 1.31559V56.0523L6.47359 60.2627L15.9472 56.0523V13.9472H58.0523L62.2627 4.47359L58.0527 -5H3.31559Z" fill="#4285F4"/>
<path d="M-3 56.0527V68.6843C-3 72.1739 -0.173603 74.9999 3.31559 74.9999H15.9472V56.0527H-3Z" fill="#188038"/>
<path d="M58.0527 13.9471V56.0523H76.9999V13.9471L67.5263 9.73669L58.0527 13.9471Z" fill="#FBBC04"/>
<path d="M76.9999 13.9472V1.31559C76.9999 -2.174 74.1735 -5 70.6843 -5H58.0527V13.9472H76.9999Z" fill="#1967D2"/>
</svg>
