<svg width="43" height="50" viewBox="0 0 43 50" fill="none" xmlns="http://www.w3.org/2000/svg">
<path d="M10 16V19C10 21.7911 10 23.1867 10.3445 24.3223C11.1201 26.8791 13.1209 28.8799 15.6777 29.6555C16.8133 30 18.2089 30 21 30V30C23.7911 30 25.1867 30 26.3223 29.6555C28.8791 28.8799 30.8799 26.8791 31.6555 24.3223C32 23.1867 32 21.7911 32 19V16" stroke="currentColor" stroke-width="2" stroke-linecap="round"/>
<path d="M5.5 15L19.7148 3.07793C20.4582 2.45444 21.5418 2.45444 22.2852 3.07793L36.5 15" stroke="currentColor" stroke-width="2" stroke-linecap="round"/>
<path d="M13.582 38.93C13.7407 40.61 13.876 41.8887 13.988 42.766C14.0347 43.242 14.1 43.5967 14.184 43.83C14.268 44.0633 14.394 44.2267 14.562 44.32C14.73 44.4133 14.9773 44.46 15.304 44.46H15.514L15.598 45.23L15.514 46H15.304C14.5293 46 13.9367 45.7667 13.526 45.3C13.1153 44.824 12.8493 44.0447 12.728 42.962C12.6813 42.4673 12.5833 41.646 12.434 40.498C12.406 40.2087 12.3547 39.7747 12.28 39.196L13.582 38.93ZM13.47 45.02C12.91 45.2067 12.3453 45.3 11.776 45.3C10.9827 45.3 10.334 45.118 9.83 44.754C9.33533 44.39 9.088 43.8907 9.088 43.256C9.088 42.4813 9.41467 41.828 10.068 41.296C10.7213 40.7547 11.5987 40.2927 12.7 39.91L12.98 41.31C12.28 41.4873 11.664 41.7347 11.132 42.052C10.6093 42.3693 10.334 42.6727 10.306 42.962C10.278 43.2047 10.39 43.41 10.642 43.578C10.9033 43.7367 11.2487 43.816 11.678 43.816C12.1353 43.816 12.6253 43.7227 13.148 43.536L13.47 45.02ZM15.3616 44.46H16.0896C16.8176 44.46 17.3403 44.3713 17.6576 44.194C17.975 44.0167 18.1336 43.7413 18.1336 43.368C18.1336 43.116 18.0356 42.6867 17.8396 42.08C17.653 41.464 17.5036 41.0393 17.3916 40.806L18.5536 40.176C18.731 40.54 18.913 41.0487 19.0996 41.702C19.2863 42.346 19.3796 42.9013 19.3796 43.368C19.3796 44.236 19.095 44.894 18.5256 45.342C17.9656 45.7807 17.1536 46 16.0896 46H15.3616V44.46ZM16.4396 38.314C16.8036 37.9313 17.1676 37.5673 17.5316 37.222C17.8956 37.5673 18.2596 37.9313 18.6236 38.314L17.5316 39.406L16.4396 38.314ZM22.155 36.046C22.2297 36.578 22.2904 37.4273 22.337 38.594C22.3837 39.7513 22.407 40.8293 22.407 41.828V42.444C22.3977 43.004 22.421 43.4193 22.477 43.69C22.533 43.9607 22.659 44.1567 22.855 44.278C23.051 44.3993 23.3637 44.46 23.793 44.46H23.863L23.947 45.23L23.863 46H23.793C22.8037 46 22.1084 45.7433 21.707 45.23C21.315 44.7073 21.119 43.8813 21.119 42.752C21.119 41.7253 21.091 40.5587 21.035 39.252C20.9884 37.936 20.9184 36.9653 20.825 36.34L22.155 36.046ZM23.7148 44.46H24.9188C26.0668 44.46 27.1402 44.3247 28.1388 44.054C29.1375 43.7833 30.1548 43.3727 31.1908 42.822C31.4802 42.6633 31.7835 42.5187 32.1008 42.388C32.4182 42.248 32.6795 42.15 32.8848 42.094L32.9268 42.92C32.4135 42.9107 31.9188 42.8407 31.4428 42.71C30.9762 42.57 30.4628 42.36 29.9028 42.08C29.0348 41.6227 28.3022 41.394 27.7048 41.394C27.3222 41.394 26.9768 41.506 26.6688 41.73C26.3608 41.954 26.1322 42.2107 25.9828 42.5L25.0868 41.87C25.4042 41.2353 25.7868 40.7547 26.2348 40.428C26.6828 40.1013 27.1822 39.938 27.7328 39.938C28.1342 39.938 28.5122 40.008 28.8668 40.148C29.2308 40.2787 29.7395 40.512 30.3928 40.848C30.9995 41.156 31.4848 41.3847 31.8488 41.534C32.2128 41.6833 32.6188 41.8047 33.0668 41.898L33.1228 43.256C32.9455 43.3027 32.7215 43.396 32.4508 43.536C32.1802 43.6667 31.8862 43.8207 31.5688 43.998C30.2902 44.6793 29.1422 45.1833 28.1248 45.51C27.1168 45.8367 26.0015 46 24.7788 46H23.7148V44.46ZM26.6128 37.726C26.9768 37.3433 27.3408 36.9793 27.7048 36.634C28.0688 36.9793 28.4328 37.3433 28.7968 37.726L27.7048 38.818L26.6128 37.726Z" fill="currentColor"/>
</svg>
