<svg width="21" height="20" viewBox="0 0 21 20" fill="none" xmlns="http://www.w3.org/2000/svg">
<path d="M12.1112 19.0881L12.6153 18.2361L11.4153 17.5254L10.9102 18.3775L12.1112 19.0881ZM8.38465 18.2361L8.88884 19.0881L10.0888 18.3775L9.58558 17.5254L8.38465 18.2361ZM10.9102 18.3775C10.8668 18.447 10.8063 18.5044 10.7345 18.5442C10.6628 18.584 10.5821 18.6049 10.5 18.6049C10.4179 18.6049 10.3372 18.584 10.2655 18.5442C10.1937 18.5044 10.1332 18.447 10.0898 18.3775L8.88884 19.0881C9.60791 20.3039 11.3912 20.3039 12.1112 19.0881L10.9102 18.3775ZM9.10465 1.39533H11.8953V3.87399e-07H9.10465V1.39533ZM19.1046 8.60455V9.53477H20.5V8.60455H19.1046ZM1.89535 9.53477V8.60455H0.5V9.53477H1.89535ZM0.5 9.53477C0.5 10.6092 0.5 11.4492 0.546512 12.1273C0.593023 12.811 0.688837 13.3803 0.907442 13.9068L2.19674 13.3729C2.06 13.0454 1.98 12.6454 1.93814 12.0324C1.89535 11.4129 1.89535 10.6278 1.89535 9.53477H0.5ZM6.59581 15.8063C5.42744 15.7859 4.81535 15.7114 4.33535 15.5124L3.80233 16.8017C4.55116 17.1124 5.40326 17.1821 6.57163 17.2026L6.59581 15.8063ZM0.907442 13.9068C1.17625 14.5558 1.57025 15.1455 2.06696 15.6422C2.56366 16.1389 3.15334 16.5329 3.80233 16.8017L4.33535 15.5124C3.36668 15.1111 2.598 14.3415 2.19674 13.3729L0.907442 13.9068ZM19.1046 9.53477C19.1046 10.6278 19.1046 11.4129 19.0619 12.0324C19.02 12.6454 18.94 13.0454 18.8042 13.3729L20.0926 13.9068C20.3112 13.3803 20.407 12.811 20.4544 12.1273C20.5009 11.4492 20.5 10.6092 20.5 9.53477H19.1046ZM14.4284 17.2007C15.5967 17.1812 16.4488 17.1124 17.1977 16.8017L16.6637 15.5124C16.1846 15.7114 15.5726 15.7859 14.4051 15.8063L14.4284 17.2007ZM18.8042 13.3729C18.4029 14.3415 17.6333 15.1111 16.6647 15.5124L17.1977 16.8017C17.8467 16.5329 18.4363 16.1389 18.933 15.6422C19.4297 15.1455 19.8238 14.5558 20.0926 13.9068L18.8042 13.3729ZM11.8953 1.39533C13.4312 1.39533 14.5344 1.39533 15.3949 1.47812C16.2451 1.55905 16.7856 1.71347 17.2172 1.97765L17.9456 0.787898C17.2581 0.367438 16.4786 0.179533 15.527 0.0883715C14.5856 -0.000929808 13.4042 3.87399e-07 11.8953 3.87399e-07V1.39533ZM20.5 8.60455C20.5 7.09573 20.5 5.91528 20.4107 4.97297C20.3205 4.02135 20.1326 3.24089 19.7121 2.55439L18.5214 3.28275C18.7865 3.71438 18.9409 4.25483 19.0219 5.10599C19.1037 5.96551 19.1046 7.06875 19.1046 8.60455H20.5ZM17.2163 1.97765C17.7485 2.3035 18.1961 2.75073 18.5223 3.28275L19.7121 2.55439C19.2709 1.83438 18.6656 1.22904 17.9456 0.787898L17.2163 1.97765ZM9.10465 3.87399e-07C7.59581 3.87399e-07 6.41535 4.15841e-07 5.47302 0.0883715C4.5214 0.179533 3.74093 0.367438 3.05442 0.787898L3.78279 1.97858C4.21442 1.71347 4.75488 1.55905 5.60605 1.47812C6.46558 1.39626 7.56884 1.39533 9.10465 1.39533V3.87399e-07ZM1.89535 8.60455C1.89535 7.06875 1.89535 5.96551 1.97814 5.10506C2.05907 4.25483 2.21349 3.71438 2.47767 3.28275L1.28791 2.55532C0.867442 3.24182 0.679535 4.02135 0.588372 4.97297C0.5 5.91621 0.5 7.09573 0.5 8.60455H1.89535ZM3.05442 0.787898C2.3344 1.22904 1.72905 1.83531 1.28791 2.55532L2.4786 3.28275C2.80431 2.75095 3.25121 2.30374 3.78279 1.97765L3.05442 0.787898ZM9.58465 17.5254C9.39674 17.2063 9.23116 16.9245 9.0693 16.7031C8.90346 16.4598 8.68706 16.2551 8.43488 16.1031L7.73349 17.3096C7.77721 17.3356 7.83767 17.3821 7.94186 17.5254C8.05442 17.6798 8.18186 17.8937 8.38465 18.2361L9.58465 17.5254ZM6.57163 17.2007C6.98093 17.2082 7.2386 17.2138 7.43581 17.2351C7.62 17.2556 7.69163 17.2854 7.73349 17.3096L8.43488 16.1031C8.17493 15.9576 7.88635 15.8706 7.5893 15.8482C7.31209 15.8175 6.97907 15.8128 6.59581 15.8063L6.57163 17.2007ZM12.6153 18.2361C12.8181 17.8947 12.9456 17.6798 13.0581 17.5254C13.1623 17.3821 13.2228 17.3356 13.2665 17.3096L12.5651 16.1031C12.2953 16.2612 12.1 16.4705 11.9307 16.7031C11.7698 16.9245 11.6033 17.2054 11.4144 17.5254L12.6153 18.2361ZM14.4051 15.8063C14.0219 15.8128 13.6879 15.8175 13.4107 15.8482C13.1214 15.8807 12.8377 15.9449 12.5651 16.1031L13.2665 17.3096C13.3084 17.2854 13.38 17.2556 13.5642 17.2351C13.7614 17.2138 14.02 17.2072 14.4293 17.2007L14.4051 15.8063Z" fill="currentColor"/>
<path d="M6.7793 9.06964H6.78767M10.4919 9.06964H10.5002M14.2128 9.06964H14.2212" stroke="currentColor" stroke-width="2" stroke-linecap="round" stroke-linejoin="round"/>
</svg>
