<svg width="28" height="28" viewBox="0 0 28 28" fill="none" xmlns="http://www.w3.org/2000/svg">
<path fill-rule="evenodd" clip-rule="evenodd" d="M2.625 8.16663C2.625 7.68338 3.01675 7.29163 3.5 7.29163H24.5C24.9832 7.29163 25.375 7.68338 25.375 8.16663C25.375 8.64988 24.9832 9.04163 24.5 9.04163H3.5C3.01675 9.04163 2.625 8.64988 2.625 8.16663Z" fill="#333333"/>
<path fill-rule="evenodd" clip-rule="evenodd" d="M2.625 14C2.625 13.5168 3.01675 13.125 3.5 13.125H24.5C24.9832 13.125 25.375 13.5168 25.375 14C25.375 14.4832 24.9832 14.875 24.5 14.875H3.5C3.01675 14.875 2.625 14.4832 2.625 14Z" fill="#333333"/>
<path fill-rule="evenodd" clip-rule="evenodd" d="M2.625 19.8333C2.625 19.35 3.01675 18.9583 3.5 18.9583H24.5C24.9832 18.9583 25.375 19.35 25.375 19.8333C25.375 20.3165 24.9832 20.7083 24.5 20.7083H3.5C3.01675 20.7083 2.625 20.3165 2.625 19.8333Z" fill="#333333"/>
</svg>
