<svg width="24" height="24" viewBox="0 0 24 24" fill="none" xmlns="http://www.w3.org/2000/svg">
<path d="M15.3121 6.43308L20.5377 1.20889L19.9209 0.597755C19.1239 -0.199252 17.7313 -0.199252 16.9343 0.597755L14.701 2.83106C14.3011 3.23098 14.0814 3.76184 14.0814 4.3251C14.0814 4.88836 14.3011 5.41922 14.6982 5.81773L15.3121 6.43308ZM5.83815 14.6791C5.04114 13.8821 3.64849 13.8821 2.85148 14.6791L0.618173 16.9125C0.21967 17.3124 0 17.8432 0 18.4065C0 18.9697 0.21967 19.5006 0.620989 19.9019L1.23635 20.5103L6.45069 15.2959L5.83815 14.6791ZM22.4415 3.11832L21.943 2.61984L16.7217 7.84122L17.6369 8.75511C17.7025 8.82051 17.7545 8.8982 17.79 8.98374C17.8255 9.06928 17.8438 9.16098 17.8438 9.25359C17.8438 9.3462 17.8255 9.4379 17.79 9.52343C17.7545 9.60897 17.7025 9.68667 17.6369 9.75207L9.77108 17.6179C9.6368 17.7456 9.45859 17.8168 9.2733 17.8168C9.08801 17.8168 8.9098 17.7456 8.77552 17.6179L7.86023 16.7026L2.6473 21.9268L3.14578 22.4253C3.5119 22.7914 4.90032 23.9813 7.44906 23.9813C9.72461 23.9813 13.4421 22.9787 18.2213 18.2009C27.7586 8.66076 22.6682 3.34503 22.4415 3.11832Z" fill="#3D4AD0"/>
</svg>
