<svg width="43" height="51" viewBox="0 0 43 51" fill="none" xmlns="http://www.w3.org/2000/svg">
<circle cx="19.9868" cy="12" r="5" stroke="currentColor" stroke-width="2"/>
<path d="M26.3505 30H13.6232C10.6255 30 8.30115 27.3805 8.6583 24.4043L8.76423 23.5216C9.00535 21.5122 10.7099 20 12.7337 20C13.5495 20 14.3345 20.2753 15.0652 20.6382C18.8408 22.5135 23.1631 21.1816 25.0375 20.4253C25.6729 20.1689 26.3448 20 27.0299 20C29.1735 20 30.979 21.6018 31.2344 23.7301L31.3153 24.4043C31.6725 27.3805 29.3481 30 26.3505 30Z" stroke="currentColor" stroke-width="2" stroke-linecap="round"/>
<mask id="path-3-inside-1_161_1279" fill="white">
<rect x="18.5728" y="23.6" width="2" height="2" rx="0.5" transform="rotate(-45 18.5728 23.6)"/>
</mask>
<rect x="18.5728" y="23.6" width="2" height="2" rx="0.5" transform="rotate(-45 18.5728 23.6)" stroke="currentColor" stroke-width="1.6" mask="url(#path-3-inside-1_161_1279)"/>
<path d="M20.4868 24.3L21.3796 27.2759C21.4487 27.5064 21.4324 27.7541 21.3337 27.9736L20.7368 29.3" stroke="currentColor" stroke-width="0.8" stroke-linecap="round"/>
<path d="M19.4868 24.3L18.594 27.2759C18.5249 27.5064 18.5412 27.7541 18.6399 27.9736L19.2368 29.3" stroke="currentColor" stroke-width="0.8" stroke-linecap="round"/>
<path d="M4.814 39.79L6.732 44.326C6.90933 44.7553 7.11 45.054 7.334 45.222C7.558 45.3807 7.866 45.46 8.258 45.46H8.412L8.496 46.23L8.412 47H8.258C7.65133 47 7.138 46.8413 6.718 46.524C6.298 46.1973 5.934 45.6887 5.626 44.998L3.652 40.406L4.814 39.79ZM1.258 44.914C1.622 45.1193 1.96733 45.2873 2.294 45.418C2.63 45.5393 3.036 45.6 3.512 45.6C4.44533 45.6 5.28067 45.292 6.018 44.676L6.704 45.614C6.46133 45.866 6.228 46.0853 6.004 46.272C5.78 46.4587 5.46267 46.636 5.052 46.804C4.65067 46.972 4.17933 47.056 3.638 47.056C2.97533 47.056 2.406 46.9533 1.93 46.748C1.454 46.5427 1.02467 46.3 0.642 46.02L1.258 44.914ZM8.27375 45.46H8.38575C9.11375 45.46 9.67842 45.4273 10.0798 45.362C10.4811 45.2967 10.7704 45.2033 10.9478 45.082C11.1344 44.9513 11.2604 44.7693 11.3258 44.536C11.3631 44.4147 11.3818 44.242 11.3818 44.018C11.3818 43.766 11.3584 43.4813 11.3118 43.164C11.2651 42.8373 11.2371 42.6367 11.2278 42.562L12.3898 42.324C12.5204 42.9493 12.5858 43.7053 12.5858 44.592C12.6324 44.8627 12.7538 45.0773 12.9498 45.236C13.1551 45.3853 13.4304 45.46 13.7758 45.46H13.8738L13.9578 46.23L13.8738 47H13.7758C13.3184 47 12.9124 46.8693 12.5578 46.608C12.2124 46.3467 11.9558 46.0107 11.7878 45.6L12.0958 45.656C11.8904 46.1507 11.5124 46.5007 10.9618 46.706C10.4111 46.902 9.55242 47 8.38575 47H8.27375V45.46ZM7.75575 48.946C8.20375 48.498 8.42775 48.274 8.42775 48.274L9.44975 49.282C9.11375 49.6273 8.77308 49.968 8.42775 50.304L7.41975 49.282L7.75575 48.946ZM10.2338 48.946C10.6818 48.498 10.9058 48.274 10.9058 48.274L11.9278 49.282C11.5918 49.6273 11.2511 49.968 10.9058 50.304L9.89775 49.282L10.2338 48.946ZM13.7288 45.46H14.3168C15.2968 45.46 15.9875 45.3713 16.3888 45.194C16.7902 45.0073 16.9908 44.718 16.9908 44.326C16.9815 44.0647 16.8835 43.64 16.6968 43.052C16.5102 42.464 16.3562 42.0487 16.2348 41.806L17.3968 41.176C17.5835 41.5493 17.7655 42.0487 17.9428 42.674C18.1295 43.2993 18.2228 43.8453 18.2228 44.312C18.2228 45.1987 17.9148 45.8707 17.2988 46.328C16.6828 46.776 15.7588 47 14.5268 47H13.7288V45.46ZM14.3868 39.048C14.8348 38.6 15.0588 38.376 15.0588 38.376L16.0808 39.384C15.7448 39.7293 15.4042 40.07 15.0588 40.406L14.0508 39.384L14.3868 39.048ZM16.8508 39.048C17.2988 38.6 17.5228 38.376 17.5228 38.376L18.5448 39.384C18.2088 39.7293 17.8682 40.07 17.5228 40.406L16.5148 39.384L16.8508 39.048ZM21.0144 37.046C21.0891 37.578 21.1497 38.4273 21.1964 39.594C21.2431 40.7513 21.2664 41.8293 21.2664 42.828V43.444C21.2571 44.004 21.2804 44.4193 21.3364 44.69C21.3924 44.9607 21.5184 45.1567 21.7144 45.278C21.9104 45.3993 22.2231 45.46 22.6524 45.46H22.7224L22.8064 46.23L22.7224 47H22.6524C21.6631 47 20.9677 46.7433 20.5664 46.23C20.1744 45.7073 19.9784 44.8813 19.9784 43.752C19.9784 42.7253 19.9504 41.5587 19.8944 40.252C19.8477 38.936 19.7777 37.9653 19.6844 37.34L21.0144 37.046ZM30.4282 45.46C30.7549 45.46 31.0022 45.3713 31.1702 45.194C31.3382 45.0073 31.4222 44.746 31.4222 44.41C31.4222 44.1113 31.3289 43.6867 31.1422 43.136C30.9649 42.576 30.8062 42.1373 30.6662 41.82L31.8002 41.19C31.9869 41.5913 32.1735 42.1093 32.3602 42.744C32.5562 43.3787 32.6542 43.9433 32.6542 44.438C32.6542 44.914 32.5562 45.348 32.3602 45.74C32.1735 46.1227 31.9122 46.4307 31.5762 46.664C31.2402 46.888 30.8575 47 30.4282 47H30.4002V45.46H30.4282ZM26.6342 47V45.46H26.6762C26.9469 45.46 27.1849 45.3853 27.3902 45.236C27.5955 45.0773 27.7822 44.8487 27.9502 44.55C28.1555 44.1673 28.3142 43.584 28.4262 42.8L29.6022 42.856C29.4902 43.444 29.4342 43.906 29.4342 44.242C29.4342 44.6433 29.5135 44.9467 29.6722 45.152C29.8309 45.3573 30.0829 45.46 30.4282 45.46H30.4562L30.5402 46.23L30.4562 47H30.4282C29.8962 47 29.4669 46.8507 29.1402 46.552C28.8135 46.244 28.6035 45.8147 28.5102 45.264L28.7762 45.236C28.5615 45.7587 28.2675 46.1833 27.8942 46.51C27.5302 46.8367 27.1195 47 26.6622 47H26.6342ZM22.6162 47L22.5322 46.23L22.6162 45.46H22.6862C23.0222 45.46 23.3349 45.3853 23.6242 45.236C23.9229 45.0867 24.1515 44.8953 24.3102 44.662C24.4969 44.4193 24.6415 44.1533 24.7442 43.864C24.8562 43.5747 24.9542 43.262 25.0382 42.926L26.2142 43.052C26.2049 43.0987 26.1535 43.29 26.0602 43.626C25.9669 43.962 25.9202 44.2793 25.9202 44.578C25.9202 44.8673 25.9762 45.0867 26.0882 45.236C26.2095 45.3853 26.3962 45.46 26.6482 45.46H26.6762L26.7602 46.23L26.6762 47H26.6202C26.2002 47 25.8455 46.8787 25.5562 46.636C25.2669 46.3933 25.0849 46.0667 25.0102 45.656C24.3942 46.552 23.6149 47 22.6722 47H22.6162ZM34.1809 46.916C34.2555 46.356 34.2929 45.376 34.2929 43.976C34.2929 42.6973 34.2602 41.386 34.1949 40.042C34.1389 38.6887 34.0735 37.788 33.9989 37.34L35.3289 37.046C35.3942 37.5127 35.4595 38.432 35.5249 39.804C35.5902 41.176 35.6229 42.5013 35.6229 43.78C35.6229 45.236 35.5762 46.3327 35.4829 47.07L34.1809 46.916Z" fill="currentColor"/>
</svg>
