<svg width="26" height="19" viewBox="0 0 26 19" fill="none" xmlns="http://www.w3.org/2000/svg">
<path d="M7.18717 0C7.12133 0 7.05001 -8.37974e-08 6.98417 0.00548631C5.12429 0.0493774 2.84195 0.59253 0 1.8544V15.2083C3.33572 13.6282 5.85398 13.1728 7.91137 13.3923C8.66301 13.4691 9.35429 13.6392 9.99072 13.8641L7.51635 9.54083C7.04452 9.73286 6.53429 9.84258 5.99662 9.84258C3.79055 9.84258 1.99156 8.04305 1.99156 5.83752C1.99156 3.63199 3.79055 1.83245 5.99662 1.83245C8.20215 1.83245 10.0017 3.63199 10.0017 5.83752C10.0017 7.15425 9.35978 8.32285 8.37223 9.05803L11.5159 14.5444C11.8561 14.72 12.1798 14.912 12.498 15.104V1.7721C11.2252 0.801013 9.74383 0.126187 7.7797 0.0164593C7.58768 0.00548656 7.39017 0 7.18717 0ZM18.8183 0C18.6153 0 18.4123 0.00548656 18.2203 0.0164593C16.2562 0.126187 14.7803 0.801013 13.502 1.7721V15.104C14.8133 14.303 16.2507 13.5843 18.0886 13.3923C20.146 13.1728 22.6698 13.6282 26 15.2083V1.8544C23.1635 0.59253 20.8812 0.0493774 19.0213 0.00548631C18.95 0.00548631 18.8842 0 18.8183 0ZM5.99662 2.82C4.32437 2.82 2.97911 4.16417 2.97911 5.83752C2.97911 7.51087 4.32437 8.85503 5.99662 8.85503C7.66997 8.85503 9.01414 7.51087 9.01414 5.83752C9.01414 4.16417 7.66997 2.82 5.99662 2.82ZM6.12281 3.58261H6.27643C4.95421 4.58114 4.36826 5.89238 4.44562 7.43406C3.01587 5.30534 4.5153 3.6265 6.12281 3.58261ZM6.84153 14.3634C5.08588 14.3798 2.9023 14.901 0 16.3385V18.6702C3.33572 17.0901 5.85398 16.6347 7.91137 16.8542C8.93184 16.9639 9.82612 17.2328 10.6436 17.5839C10.3857 17.9186 10.1334 18.3136 9.88099 18.7744H12.8052L10.8301 15.3345C9.91939 14.8791 8.9483 14.5334 7.80713 14.4127C7.49989 14.3798 7.1762 14.3634 6.84153 14.3634ZM18.961 14.3634C18.6976 14.3689 18.4452 14.3853 18.1984 14.4127C16.333 14.6103 14.9285 15.4003 13.502 16.3001V16.3165C13.1673 16.2123 12.8272 16.1903 12.498 16.2507L13.9409 18.7744H16.311C15.9819 18.3245 15.6636 17.9295 15.3399 17.5894C16.1629 17.2328 17.0627 16.9639 18.0886 16.8542C20.146 16.6347 22.6698 17.0901 26 18.6702V16.3385C23.0867 14.8955 20.8922 14.3689 19.131 14.3634H18.961Z" fill="#3D4AD0"/>
</svg>
