<svg width="20" height="20" viewBox="0 0 20 20" fill="none" xmlns="http://www.w3.org/2000/svg">
<path d="M15.4919 18.125C16.4252 18.125 17.0169 17.8084 17.3919 17.4334C18.1252 16.7 18.6419 15.1417 16.9919 11.8334L16.2669 10.3917C16.1752 10.2 16.1752 9.80002 16.2669 9.60835L16.9919 8.16669C18.6502 4.85835 18.1252 3.29168 17.3919 2.56668C16.6669 1.83335 15.1002 1.30835 11.8002 2.96668L4.66687 6.53335C2.89187 7.41669 1.91687 8.65002 1.91687 10C1.91687 11.35 2.89187 12.5834 4.65854 13.4667L11.7919 17.0334C13.4085 17.8417 14.6085 18.125 15.4919 18.125ZM15.4919 3.12502C15.9419 3.12502 16.2919 3.23335 16.5085 3.45002C17.1169 4.05002 16.8752 5.60835 15.8752 7.60002L15.1502 9.05002C14.8835 9.59169 14.8835 10.4084 15.1502 10.95L15.8752 12.3917C16.8752 14.3917 17.1169 15.9417 16.5085 16.5417C15.9085 17.15 14.3502 16.9084 12.3502 15.9084L5.21687 12.3417C3.90854 11.6917 3.16687 10.8334 3.16687 9.99169C3.16687 9.15002 3.91687 8.29169 5.22521 7.64169L12.3585 4.08335C13.6252 3.45002 14.7169 3.12502 15.4919 3.12502Z" fill="white"/>
<path d="M10.9673 10.625H15.4673C15.809 10.625 16.0923 10.3417 16.0923 10C16.0923 9.65833 15.809 9.375 15.4673 9.375H10.9673C10.6256 9.375 10.3423 9.65833 10.3423 10C10.3423 10.3417 10.6256 10.625 10.9673 10.625Z" fill="white"/>
</svg>
