<svg width="43" height="51" viewBox="0 0 43 51" fill="none" xmlns="http://www.w3.org/2000/svg">
<path d="M10.4722 16V19C10.4722 21.7911 10.4722 23.1867 10.8166 24.3223C11.5922 26.8791 13.5931 28.8799 16.1499 29.6555C17.2855 30 18.681 30 21.4722 30V30C24.2633 30 25.6589 30 26.7944 29.6555C29.3513 28.8799 31.3521 26.8791 32.1277 24.3223C32.4722 23.1867 32.4722 21.7911 32.4722 19V16" stroke="currentColor" stroke-width="2" stroke-linecap="round"/>
<path d="M32.4722 13C32.4722 13.5 10.4722 13.5 10.4722 13C10.4722 12.0712 10.4722 11.6067 10.5235 11.2168C10.878 8.52444 12.9966 6.40579 15.689 6.05133C16.0789 6 16.5433 6 17.4722 6H21.4722H25.4722C26.401 6 26.8654 6 27.2553 6.05133C29.9477 6.40579 32.0664 8.52444 32.4208 11.2168C32.4722 11.6067 32.4722 12.0712 32.4722 13Z" stroke="currentColor" stroke-width="2" stroke-linecap="round"/>
<path d="M19.4916 8.19842C15.3374 7.31006 15.8177 5.40291 19.9145 2.21334" stroke="currentColor" stroke-linecap="round"/>
<path d="M26.4916 8.19842C22.3374 7.31006 22.8177 5.40291 26.9145 2.21334" stroke="currentColor" stroke-linecap="round"/>
<path d="M9.55417 38.93C9.71283 40.61 9.84817 41.8887 9.96017 42.766C10.0068 43.242 10.0722 43.5967 10.1562 43.83C10.2402 44.0633 10.3662 44.2267 10.5342 44.32C10.7022 44.4133 10.9495 44.46 11.2762 44.46H11.4862L11.5702 45.23L11.4862 46H11.2762C10.5015 46 9.90884 45.7667 9.49817 45.3C9.0875 44.824 8.8215 44.0447 8.70017 42.962C8.6535 42.4673 8.5555 41.646 8.40617 40.498C8.37817 40.2087 8.32683 39.7747 8.25217 39.196L9.55417 38.93ZM9.44217 45.02C8.88217 45.2067 8.3175 45.3 7.74817 45.3C6.95483 45.3 6.30617 45.118 5.80217 44.754C5.3075 44.39 5.06017 43.8907 5.06017 43.256C5.06017 42.4813 5.38683 41.828 6.04017 41.296C6.6935 40.7547 7.57083 40.2927 8.67217 39.91L8.95217 41.31C8.25217 41.4873 7.63617 41.7347 7.10417 42.052C6.5815 42.3693 6.30617 42.6727 6.27817 42.962C6.25017 43.2047 6.36217 43.41 6.61417 43.578C6.8755 43.7367 7.22083 43.816 7.65017 43.816C8.1075 43.816 8.5975 43.7227 9.12017 43.536L9.44217 45.02ZM14.0778 43.382C14.6565 43.774 15.1791 44.082 15.6458 44.306C16.1125 44.53 16.4718 44.642 16.7238 44.642C16.7985 44.642 16.8731 44.6233 16.9478 44.586C17.0878 44.5113 17.1951 44.39 17.2698 44.222C17.3445 44.0447 17.3818 43.844 17.3818 43.62C17.3818 43.1907 17.2698 42.7987 17.0458 42.444C16.8218 42.0893 16.5325 41.912 16.1778 41.912C15.8978 41.912 15.5991 42.1033 15.2818 42.486C14.9738 42.8687 14.6331 43.4567 14.2598 44.25C13.9798 44.8287 13.6111 45.2673 13.1538 45.566C12.6965 45.8553 12.1738 46 11.5858 46H11.3338L11.3618 44.46H11.6138C11.9871 44.46 12.3325 44.3527 12.6498 44.138C12.9671 43.9233 13.2378 43.5967 13.4618 43.158C13.8725 42.3553 14.2878 41.7207 14.7078 41.254C15.1278 40.7873 15.5851 40.54 16.0798 40.512C16.5745 40.484 17.0038 40.6147 17.3678 40.904C17.7411 41.1933 18.0258 41.576 18.2218 42.052C18.4178 42.528 18.5158 43.0273 18.5158 43.55C18.5158 44.0633 18.4178 44.5347 18.2218 44.964C18.0258 45.384 17.7365 45.7013 17.3538 45.916C17.1671 46.0187 16.9525 46.07 16.7098 46.07C15.9725 46.07 14.8945 45.5987 13.4758 44.656L14.0778 43.382ZM21.2717 36.046C21.3464 36.578 21.4071 37.4273 21.4537 38.594C21.5004 39.7513 21.5237 40.8293 21.5237 41.828V42.444C21.5144 43.004 21.5377 43.4193 21.5937 43.69C21.6497 43.9607 21.7757 44.1567 21.9717 44.278C22.1677 44.3993 22.4804 44.46 22.9097 44.46H22.9797L23.0637 45.23L22.9797 46H22.9097C21.9204 46 21.2251 45.7433 20.8237 45.23C20.4317 44.7073 20.2357 43.8813 20.2357 42.752C20.2357 41.7253 20.2077 40.5587 20.1517 39.252C20.1051 37.936 20.0351 36.9653 19.9417 36.34L21.2717 36.046ZM22.8455 44.46H23.5735C24.3015 44.46 24.8242 44.3713 25.1415 44.194C25.4589 44.0167 25.6175 43.7413 25.6175 43.368C25.6175 43.116 25.5195 42.6867 25.3235 42.08C25.1369 41.464 24.9875 41.0393 24.8755 40.806L26.0375 40.176C26.2149 40.54 26.3969 41.0487 26.5835 41.702C26.7702 42.346 26.8635 42.9013 26.8635 43.368C26.8635 44.236 26.5789 44.894 26.0095 45.342C25.4495 45.7807 24.6375 46 23.5735 46H22.8455V44.46ZM23.9235 38.314C24.2875 37.9313 24.6515 37.5673 25.0155 37.222C25.3795 37.5673 25.7435 37.9313 26.1075 38.314L25.0155 39.406L23.9235 38.314ZM31.7225 46C31.1252 46 30.6538 45.79 30.3085 45.37C29.9725 44.9407 29.6878 44.334 29.4545 43.55L30.3925 42.976C30.5232 43.5267 30.6865 43.914 30.8825 44.138C31.0878 44.3527 31.3678 44.46 31.7225 44.46H31.8205L31.9045 45.23L31.8205 46H31.7225ZM26.3745 48.73C26.9812 48.506 27.5272 48.226 28.0125 47.89C28.5072 47.554 28.8945 47.204 29.1745 46.84C29.4638 46.4853 29.6085 46.154 29.6085 45.846C29.6085 45.454 29.3612 44.2967 28.8665 42.374L30.0985 41.898C30.3132 42.5607 30.4858 43.2607 30.6165 43.998C30.7565 44.726 30.8265 45.342 30.8265 45.846C30.8265 46.7047 30.4672 47.512 29.7485 48.268C29.0392 49.0333 28.1152 49.626 26.9765 50.046L26.3745 48.73ZM31.6776 44.46H32.4056C33.1336 44.46 33.6562 44.3713 33.9736 44.194C34.2909 44.0167 34.4496 43.7413 34.4496 43.368C34.4496 43.116 34.3516 42.6867 34.1556 42.08C33.9689 41.464 33.8196 41.0393 33.7076 40.806L34.8696 40.176C35.0469 40.54 35.2289 41.0487 35.4156 41.702C35.6022 42.346 35.6956 42.9013 35.6956 43.368C35.6956 44.236 35.4109 44.894 34.8416 45.342C34.2816 45.7807 33.4696 46 32.4056 46H31.6776V44.46ZM32.3216 48.31C32.6856 47.9273 33.0496 47.5633 33.4136 47.218C33.7776 47.5633 34.1416 47.9273 34.5056 48.31L33.4136 49.402L32.3216 48.31Z" fill="currentColor"/>
</svg>
